<svg width="25" height="25" viewBox="0 0 25 25" fill="none" xmlns="http://www.w3.org/2000/svg">
<path fill-rule="evenodd" clip-rule="evenodd" d="M4 0C1.79086 0 0 1.79086 0 4V9.12602C1.72523 9.57006 3 11.1362 3 13C3 14.8638 1.72523 16.4299 0 16.874V21C0 23.2091 1.79086 25 4 25H21C23.2091 25 25 23.2091 25 21V16.874C23.2748 16.4299 22 14.8638 22 13C22 11.1362 23.2748 9.57006 25 9.12602V4C25 1.79086 23.2091 0 21 0H4ZM18.7333 8.22222C18.7333 6.97778 16.2444 6 12.5111 6C8.77778 6 6.28889 6.97778 6.28889 8.22222V9.55556C5.79722 9.55556 5.4 9.95278 5.4 10.4444V12.2222C5.4 12.7139 5.79722 13.1111 6.28889 13.1111V17.5556C6.28889 18.0472 6.68611 18.4444 7.17778 18.4444V19.3333C7.17778 19.825 7.575 20.2222 8.06667 20.2222H8.95556C9.44722 20.2222 9.84444 19.825 9.84444 19.3333V18.4444H15.1778V19.3333C15.1778 19.825 15.575 20.2222 16.0667 20.2222H16.9556C17.4472 20.2222 17.8444 19.825 17.8444 19.3333V18.4444C18.3361 18.4444 18.7333 18.0472 18.7333 17.5556V13.1111C19.225 13.1111 19.6222 12.7139 19.6222 12.2222V10.4444C19.6222 9.95278 19.225 9.55556 18.7333 9.55556V8.22222ZM8.06667 13.1111V10.4444C8.06667 9.95278 8.46389 9.55556 8.95556 9.55556H12.0667V14H8.95556C8.46389 14 8.06667 13.6028 8.06667 13.1111ZM16.0667 14H12.9556V9.55556H16.0667C16.5583 9.55556 16.9556 9.95278 16.9556 10.4444V13.1111C16.9556 13.6028 16.5583 14 16.0667 14ZM9.13965 16.8508C8.97295 17.0175 8.74686 17.1111 8.51111 17.1111C8.27536 17.1111 8.04927 17.0175 7.88257 16.8508C7.71587 16.6841 7.62222 16.458 7.62222 16.2222C7.62222 15.9865 7.71587 15.7604 7.88257 15.5937C8.04927 15.427 8.27536 15.3333 8.51111 15.3333C8.74686 15.3333 8.97295 15.427 9.13965 15.5937C9.30635 15.7604 9.4 15.9865 9.4 16.2222C9.4 16.458 9.30635 16.6841 9.13965 16.8508ZM17.1397 16.8508C16.973 17.0175 16.7469 17.1111 16.5111 17.1111C16.2754 17.1111 16.0493 17.0175 15.8826 16.8508C15.7159 16.6841 15.6222 16.458 15.6222 16.2222C15.6222 15.9865 15.7159 15.7604 15.8826 15.5937C16.0493 15.427 16.2754 15.3333 16.5111 15.3333C16.7469 15.3333 16.973 15.427 17.1397 15.5937C17.3063 15.7604 17.4 15.9865 17.4 16.2222C17.4 16.458 17.3063 16.6841 17.1397 16.8508ZM14.7333 7.77778C14.9778 7.77778 15.1778 7.97778 15.1778 8.22222C15.1778 8.46667 14.9778 8.66667 14.7333 8.66667H10.2889C10.0444 8.66667 9.84444 8.46667 9.84444 8.22222C9.84444 7.97778 10.0444 7.77778 10.2889 7.77778H14.7333Z" fill="#655ADC"/>
</svg>
