<svg width="320" height="197" viewBox="0 0 320 197" fill="none" xmlns="http://www.w3.org/2000/svg">
<circle cx="121.41" cy="98.4412" r="97.5" fill="#DBFDF7"/>
<circle cx="246.91" cy="107.941" r="56" fill="#DBFDF7"/>
<path d="M41.5078 176.202L41.5627 175.964C41.6474 175.995 41.7328 176.024 41.817 176.057C42.8661 176.473 43.5131 177.557 44.6389 177.95C46.992 178.773 57.9657 178.441 61.0332 178.445C61.352 178.445 61.4639 178.461 61.7279 178.627L61.822 178.781C61.6749 179.689 61.6117 180.576 61.5687 181.493C58.7178 181.554 55.8622 181.512 53.0104 181.541C50.8998 181.562 48.5395 181.786 46.4578 181.446C45.52 181.293 44.6205 181.019 43.8276 180.481C42.3372 179.469 41.8291 177.895 41.5078 176.202Z" fill="#5745CD"/>
<path d="M161.625 181.591L162.918 181.682C165.324 181.85 167.788 181.744 170.2 181.742L182.567 181.745C184.949 181.748 187.772 181.46 190.08 182.039C188.11 182.844 186.118 183.399 184.026 183.788C180.838 184.38 162.956 186.404 160.691 186.03C161.347 184.55 161.61 183.203 161.625 181.591Z" fill="#B5EBE2"/>
<path d="M82.1797 178.334L123.942 178.364L136.575 178.377C138.658 178.383 140.953 178.223 143.014 178.494C142.787 179.594 142.674 180.641 142.616 181.761C135.04 181.561 127.442 181.736 119.863 181.752L82.8414 181.678C82.7597 180.501 82.5216 179.457 82.1797 178.334Z" fill="#6A62E0"/>
<path d="M144.761 185.976C144.379 185.153 144.033 184.289 143.849 183.397C143.381 181.134 143.707 178.753 145.019 176.814C146.335 174.868 148.495 173.549 150.792 173.119C153.23 172.663 155.845 173.181 157.867 174.635C160.243 176.344 161.188 178.816 161.625 181.591C161.61 183.203 161.347 184.55 160.692 186.03L160.421 186.586C159.541 187.641 158.652 188.524 157.481 189.254C157.354 189.335 157.225 189.412 157.095 189.486C156.964 189.56 156.831 189.631 156.697 189.699C156.563 189.766 156.427 189.83 156.289 189.891C156.152 189.952 156.013 190.009 155.873 190.063C155.732 190.117 155.591 190.167 155.448 190.214C155.305 190.261 155.161 190.304 155.016 190.344C154.871 190.384 154.726 190.42 154.579 190.453C154.432 190.485 154.284 190.514 154.136 190.54C153.988 190.565 153.839 190.586 153.69 190.604C153.541 190.622 153.391 190.636 153.241 190.646C153.091 190.657 152.941 190.664 152.791 190.667C152.641 190.67 152.491 190.669 152.34 190.664C152.19 190.66 152.04 190.652 151.89 190.64C151.74 190.628 151.591 190.613 151.442 190.593C151.293 190.574 151.144 190.551 150.996 190.525C150.849 190.498 150.701 190.467 150.555 190.434C147.889 189.812 146.171 188.233 144.761 185.976Z" fill="#5D5E7B"/>
<path d="M152.737 175.605C154.203 175.674 155.546 176.072 156.713 176.993C158.018 178.024 158.947 179.588 159.106 181.256C159.271 183.001 158.55 184.82 157.39 186.109C156.107 187.534 154.577 188.011 152.722 188.07C151.16 188.037 149.684 187.676 148.444 186.682C148.363 186.617 148.284 186.55 148.207 186.481C148.13 186.412 148.054 186.342 147.981 186.269C147.907 186.196 147.835 186.122 147.765 186.046C147.695 185.97 147.627 185.892 147.56 185.812C147.494 185.733 147.43 185.652 147.368 185.569C147.306 185.486 147.245 185.402 147.187 185.316C147.129 185.231 147.073 185.144 147.02 185.055C146.966 184.967 146.914 184.877 146.865 184.786C146.816 184.695 146.769 184.603 146.724 184.509C146.679 184.416 146.637 184.322 146.596 184.226C146.556 184.131 146.518 184.035 146.483 183.938C146.448 183.84 146.415 183.742 146.384 183.643C146.354 183.544 146.326 183.445 146.3 183.344C146.274 183.244 146.251 183.143 146.231 183.042C146.21 182.94 146.192 182.839 146.176 182.736C146.16 182.634 146.147 182.532 146.137 182.428C145.977 180.765 146.576 179.119 147.677 177.877C149.061 176.315 150.727 175.769 152.737 175.605Z" fill="#88888A"/>
<path d="M151.697 179.292C152.265 179.286 152.854 179.268 153.392 179.476C153.491 179.514 153.588 179.556 153.684 179.603C153.779 179.65 153.871 179.702 153.962 179.758C154.052 179.814 154.139 179.874 154.223 179.939C154.307 180.004 154.388 180.072 154.466 180.145C154.543 180.218 154.617 180.294 154.687 180.374C154.757 180.453 154.823 180.536 154.885 180.622C154.947 180.709 155.005 180.798 155.058 180.889C155.111 180.981 155.16 181.075 155.204 181.172C155.245 181.264 155.281 181.357 155.313 181.452C155.344 181.547 155.371 181.643 155.393 181.741C155.415 181.839 155.431 181.937 155.443 182.037C155.455 182.136 155.462 182.236 155.464 182.336C155.466 182.436 155.462 182.536 155.454 182.636C155.446 182.736 155.433 182.835 155.415 182.933C155.396 183.032 155.373 183.129 155.345 183.225C155.317 183.321 155.284 183.416 155.247 183.509C154.848 184.49 154.119 184.934 153.191 185.35C152.699 185.378 152.182 185.428 151.699 185.311C150.907 185.12 150.189 184.578 149.802 183.859C149.41 183.131 149.358 182.254 149.615 181.472C149.97 180.392 150.695 179.761 151.697 179.292Z" fill="#FEFEFE"/>
<path d="M64.5229 186.559C63.3576 184.044 62.6277 181.374 63.5642 178.642C64.3481 176.355 66.229 174.504 68.3874 173.477C70.58 172.434 73.1214 172.2 75.4206 173.044C77.7824 173.91 79.4396 175.728 80.4307 177.99C81.6731 180.824 81.5649 183.169 80.4728 186.016C79.0955 188.418 77.4443 190.126 74.6825 190.869C72.4282 191.476 69.9311 191.19 67.9133 190.005C66.3615 189.093 65.5745 187.94 64.5229 186.559Z" fill="#5D5E7B"/>
<path d="M72.0981 175.912C73.5374 176.002 74.7012 176.31 75.8469 177.252C75.928 177.319 76.0072 177.388 76.0847 177.459C76.1624 177.53 76.2383 177.602 76.3123 177.677C76.3864 177.751 76.4586 177.827 76.5289 177.906C76.5991 177.984 76.6675 178.063 76.7339 178.145C76.8002 178.226 76.8645 178.309 76.9269 178.394C76.9892 178.478 77.0495 178.564 77.1076 178.652C77.1656 178.739 77.2215 178.828 77.2753 178.919C77.3291 179.009 77.3807 179.1 77.4299 179.193C77.4792 179.286 77.5261 179.38 77.5708 179.475C77.6152 179.57 77.6575 179.666 77.6976 179.763C77.7375 179.86 77.775 179.958 77.8102 180.057C77.8453 180.156 77.8779 180.256 77.908 180.357C77.9381 180.457 77.9659 180.559 77.9912 180.66C78.0164 180.762 78.0391 180.865 78.0595 180.968C78.0796 181.071 78.0973 181.175 78.1125 181.279C78.1276 181.383 78.1402 181.487 78.1502 181.591C78.2989 183.127 77.8675 184.678 76.8745 185.868C75.6749 187.305 74.1561 187.792 72.3665 187.986C71.0973 187.881 69.9962 187.68 68.9166 186.941C67.5723 186.02 66.6161 184.483 66.3736 182.872C66.1327 181.272 66.6432 179.611 67.6203 178.337C68.7766 176.829 70.2608 176.149 72.0981 175.912Z" fill="#88888A"/>
<path d="M71.5306 179.476C72.0209 179.438 72.5196 179.42 73.0027 179.535C73.7937 179.724 74.5299 180.297 74.9129 181.013C75.2476 181.639 75.3215 182.405 75.0824 183.076C74.7452 184.022 74.0527 184.493 73.1869 184.912C72.6579 184.98 72.1399 185.024 71.616 184.892C70.8671 184.703 70.2204 184.097 69.876 183.42C69.8302 183.329 69.7894 183.236 69.7535 183.142C69.7177 183.047 69.687 182.951 69.6612 182.853C69.6354 182.754 69.6149 182.655 69.5995 182.555C69.5841 182.455 69.5741 182.354 69.5696 182.253C69.5648 182.152 69.5654 182.05 69.5714 181.949C69.5773 181.848 69.5885 181.748 69.6051 181.648C69.6217 181.548 69.6435 181.449 69.6706 181.351C69.6974 181.253 69.7294 181.157 69.7666 181.063C70.1175 180.182 70.6988 179.845 71.5306 179.476Z" fill="#FEFEFE"/>
<path d="M210.414 175.868L210.577 175.936C210.383 178.313 209.369 182.659 210.259 184.78C210.969 185.412 213.224 185.517 214.195 185.658C223.005 186.934 231.931 187.783 240.773 188.835C245.419 189.388 250.034 190.133 254.667 190.785C258.728 191.358 262.813 191.835 266.865 192.458C267.547 192.616 268.227 192.704 268.92 192.795C272.807 193.569 276.873 194.208 280.816 194.617C281.405 194.501 282.004 194.329 282.492 193.963C283.637 193.104 283.753 191.474 283.948 190.172C284.361 187.468 285.487 177.984 286.392 176.269C286.84 176.286 287.293 176.318 287.74 176.318C286.792 180.84 286.612 185.477 285.563 189.984C289.883 190.778 294.525 190.823 298.703 191.668C299.172 191.763 299.92 191.903 300.239 192.299C300.334 192.417 300.309 192.41 300.298 192.553L300.144 192.173C298.777 191.754 287.137 190.263 285.924 190.422C285.683 190.634 285.673 190.664 285.579 190.953C285.589 191.845 285.608 192.863 285.168 193.665C285.11 193.843 285.05 194.021 284.979 194.195C284.397 195.603 282.973 195.834 281.694 196.365C281.994 196.397 282.285 196.442 282.582 196.498C282.25 196.848 281.529 196.938 281.061 196.941C279.772 196.949 278.424 196.689 277.14 196.549L268.597 195.591C256.048 194.156 243.578 192.162 231.018 190.775C225.155 190.127 219.314 189.315 213.45 188.673C210.551 188.355 207.606 188.264 204.721 187.892C204.239 187.83 203.733 187.804 203.375 187.443C203.298 187.129 203.184 186.945 203.293 186.633C203.372 186.919 203.478 187.124 203.633 187.375C204.065 187.63 204.31 187.665 204.795 187.7C205.152 187.273 205.052 186.454 205.281 185.907C206.001 184.194 207.068 182.483 208.112 180.95C208.801 179.939 210.589 177.534 210.353 176.278C209.268 176.23 208.073 176.392 207.041 176.037C208.167 175.97 209.297 176.056 210.414 175.868Z" fill="#B5EBE2"/>
<path d="M291.009 144.858C292.708 144.444 294.586 144.687 296.305 144.856C298.827 145.238 301.67 146.156 303.709 147.732C307.25 149.922 309.277 154.419 310.482 158.223C311.106 160.955 311.45 163.436 311.339 166.248C313.135 165.94 314.946 165.96 316.498 167.058C317.857 168.02 318.696 169.616 318.945 171.241C319.197 172.879 319.035 174.659 318.995 176.311L299.456 176.292C295.607 176.537 291.605 176.321 287.741 176.318C287.293 176.319 286.84 176.287 286.393 176.27C287.123 174.183 287.176 171.132 287.516 168.909C288.739 160.912 289.998 152.883 291.009 144.858Z" fill="#06CB75"/>
<path d="M291.009 144.858C292.708 144.444 294.586 144.687 296.305 144.856C298.827 145.238 301.67 146.156 303.709 147.732L303.412 147.842C302.607 147.378 301.441 146.485 300.563 146.3C300.292 149.943 300.09 153.541 300.076 157.199C300.053 163.434 300.282 169.467 299.32 175.668C299.95 176.221 302.181 176.052 303.045 176.066C301.882 176.114 300.592 176.061 299.456 176.292C295.607 176.537 291.605 176.321 287.741 176.318C287.293 176.319 286.84 176.287 286.393 176.27C287.123 174.183 287.176 171.132 287.516 168.909C288.739 160.912 289.998 152.883 291.009 144.858Z" fill="url(#paint0_linear_9217_60002)"/>
<path d="M12.1014 167.839C12.1693 164.811 12.3461 161.88 13.1342 158.936C14.4115 154.164 17.1501 149.592 21.5162 147.087C21.728 146.964 21.9428 146.847 22.1605 146.734C22.3782 146.622 22.5986 146.515 22.8216 146.414C23.0447 146.313 23.2701 146.217 23.4979 146.127C23.7257 146.037 23.9556 145.953 24.1876 145.875C24.4197 145.796 24.6535 145.723 24.8891 145.656C25.1248 145.589 25.3619 145.529 25.6006 145.474C25.8393 145.419 26.0792 145.37 26.3204 145.327C26.5615 145.284 26.8036 145.247 27.0465 145.216C27.2895 145.185 27.5331 145.16 27.7773 145.141C28.0216 145.122 28.2661 145.109 28.511 145.103C28.7558 145.096 29.0007 145.096 29.2456 145.102C29.4904 145.107 29.735 145.119 29.9793 145.137C30.2236 145.155 30.4673 145.179 30.7104 145.208C30.9535 145.239 31.1957 145.275 31.437 145.317C31.6783 145.359 31.9184 145.407 32.1573 145.461C32.3963 145.515 32.6337 145.575 32.8695 145.641C37.0497 146.817 40.3715 149.493 42.4912 153.262C42.0888 158.033 41.4439 162.982 41.6811 167.771C41.6805 169.338 41.6384 170.917 41.6939 172.484C41.6076 173.646 41.5727 174.798 41.5621 175.964L41.5072 176.202C28.0132 176.084 14.5177 176.359 1.02518 176.285C0.90757 174.933 0.841511 173.445 1.05813 172.102C1.35105 170.287 2.13036 168.628 3.67242 167.55C5.51722 166.261 7.86159 166.275 9.98521 166.687C10.747 167.024 11.4202 167.352 12.1014 167.839Z" fill="#06CB75"/>
<path d="M46.6054 134.064C51.0193 134.484 55.5844 134.464 60.022 134.651C61.3643 134.708 62.7616 134.63 64.0909 134.806C64.8613 134.908 65.5118 135.035 66.1791 135.456L66.7893 135.445C66.554 135.725 66.4546 135.956 66.3184 136.293C66.2953 136.349 66.2635 136.403 66.2442 136.461C65.9011 137.487 66.0161 169.12 66.0946 172.878C63.9631 174.545 62.6269 176.169 61.8219 178.781L61.7278 178.627C61.4638 178.461 61.3519 178.445 61.033 178.445C57.9655 178.441 46.9918 178.773 44.6387 177.95C43.5129 177.557 42.8659 176.473 41.8168 176.057C41.7327 176.024 41.6473 175.995 41.5625 175.964C41.5731 174.798 41.608 173.646 41.6943 172.483C41.6389 170.917 41.6809 169.338 41.6816 167.771C41.4444 162.982 42.0892 158.032 42.4916 153.262C42.989 150.313 43.0819 147.267 43.4734 144.294C43.7807 141.964 44.3778 139.682 44.8625 137.384C45.3792 136.388 45.7448 134.804 46.6054 134.064Z" fill="#6A62E0"/>
<path d="M63.9126 148.103C64.0307 148.551 64.1551 148.988 64.1869 149.452C64.2804 150.83 64.5403 164.273 64.3287 164.579C64.0008 165.053 63.4304 165.159 62.8947 165.221C62.8454 165.227 62.7965 165.231 62.7473 165.236C56.3742 165.808 49.7857 165.225 43.3945 165.115C44.1828 163.243 44.7447 161.268 45.5912 159.424L45.9443 159.317C45.3775 161.016 44.764 162.698 44.1039 164.363L62.3234 164.42C62.766 164.404 63.1032 164.363 63.5274 164.237C64.152 163.024 63.6608 155.054 63.7303 152.994C63.9597 151.381 63.6262 149.699 63.9126 148.103Z" fill="#5745CD"/>
<path d="M41.6819 167.77C43.9434 167.746 46.2192 167.685 48.4792 167.794C48.497 169.329 48.5021 170.865 48.4944 172.401C46.2251 172.471 43.9649 172.524 41.6947 172.483C41.6392 170.917 41.6813 169.338 41.6819 167.77Z" fill="#F5C65C"/>
<path d="M51.9265 140.917C51.9857 140.314 52.1241 139.742 52.5792 139.302C53.6479 138.268 61.5494 138.485 63.3643 138.669C63.6105 138.694 63.8458 138.737 64.088 138.786C64.2086 140.868 64.299 142.887 64.1014 144.969L64.0892 144.625C64.0138 145.773 64.0425 146.964 63.9122 148.102C63.6258 149.698 63.9593 151.38 63.7299 152.993C63.6604 155.053 64.1516 163.022 63.527 164.236C63.1028 164.362 62.7656 164.403 62.323 164.419L44.1035 164.362C44.7636 162.697 45.3771 161.015 45.9439 159.316C47.0557 157.047 51.6694 142.924 51.9265 140.917Z" fill="#B5EBE2"/>
<path d="M51.9277 140.917C51.987 140.314 52.1253 139.742 52.5804 139.302C53.6491 138.268 61.5506 138.485 63.3655 138.669C63.6117 138.694 63.8471 138.737 64.0892 138.786C64.2098 140.868 64.3002 142.887 64.1026 144.969L64.0905 144.625C64.015 145.773 64.0437 146.964 63.9134 148.102C63.627 149.698 63.9605 151.38 63.7311 152.993C63.3044 148.591 63.7813 144.028 63.5849 139.594C61.9293 139.494 54.1733 139.394 52.9547 139.745C52.4616 139.886 52.1839 140.505 51.9277 140.917Z" fill="#5745CD"/>
<path d="M213.175 46.9253C212.961 44.5688 213.552 42.0202 214.488 39.8691C216.471 35.3121 219.925 31.7116 224.596 29.912C227.669 28.728 232.286 28.0994 235.392 29.4741C239.938 30.953 243.526 33.6951 245.698 38.0168C248.212 43.0173 247.944 47.8925 246.198 53.0902C245.518 55.1167 244.638 57.0659 243.704 58.9862C242.676 60.7892 241.665 62.6321 240.479 64.336C239.214 66.1522 237.76 67.8548 236.53 69.6899C234.776 71.6962 232.976 73.6186 230.877 75.2708C228.191 73.0616 225.771 70.6882 223.559 68.0057C222.144 66.2974 220.91 64.4274 219.448 62.7655C216.144 58.7508 213.331 52.1777 213.175 46.9253Z" fill="#F5C086"/>
<path d="M235.393 29.4741C239.938 30.953 243.527 33.6951 245.699 38.0168C248.212 43.0173 247.944 47.8924 246.199 53.0902C245.518 55.1167 244.639 57.0659 243.705 58.9861C242.677 60.7892 241.666 62.6321 240.48 64.336C239.215 66.1521 237.761 67.8548 236.531 69.6899C234.777 71.6962 232.977 73.6186 230.878 75.2707C228.192 73.0616 225.772 70.6882 223.56 68.0056C223.534 67.723 223.508 67.5275 223.385 67.267C223.222 66.922 223.093 66.5804 222.963 66.2219C223.376 66.3257 229.186 72.2563 230.11 73.133C231.704 71.883 233.178 70.5039 234.531 68.9958C239.996 62.9933 244.623 52.451 244.178 44.325C244.161 44.0213 244.136 43.718 244.104 43.4153C244.073 43.1125 244.033 42.8108 243.987 42.5102C243.94 42.2093 243.887 41.9098 243.826 41.6116C243.765 41.3134 243.697 41.0169 243.622 40.7221C243.547 40.427 243.465 40.1341 243.376 39.8432C243.286 39.5523 243.19 39.2637 243.087 38.9773C242.984 38.691 242.874 38.4074 242.757 38.1265C242.64 37.8454 242.516 37.5673 242.386 37.2924C242.256 37.0173 242.119 36.7456 241.976 36.4771C241.832 36.2086 241.682 35.9438 241.526 35.6827C241.37 35.4215 241.208 35.1641 241.039 34.9106C240.871 34.6573 240.696 34.4082 240.516 34.1632C240.335 33.9183 240.149 33.6778 239.957 33.4417C239.764 33.2057 239.567 32.9744 239.363 32.7479C239.16 32.5215 238.951 32.3001 238.737 32.0838C238.523 31.8675 238.304 31.6564 238.08 31.4504C237.298 30.727 236.286 30.3128 235.539 29.6141C235.49 29.5679 235.442 29.5209 235.393 29.4741Z" fill="#C18E64"/>
<path d="M229.196 35.0186C231.88 34.854 234.52 35.1747 236.762 36.7789C239.128 38.4725 240.806 41.2371 241.278 44.1032C241.307 44.2877 241.331 44.4728 241.351 44.6583C241.371 44.8439 241.387 45.0298 241.398 45.2162C241.408 45.4026 241.415 45.5892 241.416 45.776C241.418 45.9626 241.415 46.1492 241.408 46.3357C241.4 46.5223 241.388 46.7086 241.372 46.8946C241.355 47.0805 241.334 47.266 241.309 47.4509C241.283 47.6358 241.253 47.82 241.218 48.0035C241.184 48.187 241.145 48.3694 241.101 48.5508C241.058 48.7324 241.01 48.9129 240.957 49.0922C240.905 49.2713 240.848 49.4491 240.787 49.6255C240.726 49.8019 240.661 49.9767 240.591 50.15C240.521 50.3231 240.447 50.4945 240.369 50.6643C240.291 50.8338 240.209 51.0014 240.123 51.167C240.037 51.3326 239.947 51.496 239.852 51.6573C239.758 51.8183 239.66 51.977 239.558 52.1335C239.456 52.2897 239.35 52.4435 239.241 52.5948C237.369 55.1561 234.733 56.5745 231.636 57.0486C228.942 57.2543 226.461 56.7353 224.217 55.1832C221.821 53.5267 220.071 50.8653 219.573 47.9873C219.066 45.0616 219.726 41.9103 221.441 39.478C223.311 36.8275 226.069 35.5544 229.196 35.0186Z" fill="#FEFEFE"/>
<path d="M230.137 38.1561C230.325 38.1344 230.514 38.1208 230.703 38.1152C230.892 38.1096 231.081 38.1121 231.27 38.1227C231.459 38.1335 231.647 38.1522 231.834 38.1788C232.021 38.2056 232.207 38.2404 232.391 38.2832C232.576 38.3258 232.758 38.3763 232.938 38.4347C233.118 38.4929 233.295 38.5587 233.469 38.6323C233.643 38.7056 233.814 38.7864 233.982 38.8745C234.149 38.9628 234.312 39.0579 234.472 39.1599C236.256 40.3281 237.501 42.4151 237.899 44.4921C238.305 46.6055 237.964 48.8156 236.676 50.5759C235.139 52.6772 232.977 53.3878 230.541 53.7936C229.007 53.9769 227.023 53.1578 225.805 52.2926C224.082 51.0687 222.856 49.1718 222.577 47.0655C222.299 44.9773 222.895 42.737 224.215 41.0933C225.743 39.1917 227.777 38.3764 230.137 38.1561Z" fill="#89EADB"/>
<path d="M275.285 63.1833C280.189 65.913 284.522 69.6384 288.513 73.5521C290.598 75.5967 292.708 77.6565 294.612 79.8731C295.137 80.4913 295.653 81.1161 296.161 81.7475C296.669 82.379 297.169 83.0171 297.66 83.6618C298.152 84.3064 298.634 84.9573 299.109 85.6145C299.583 86.2717 300.049 86.935 300.506 87.6045C300.963 88.2738 301.411 88.949 301.851 89.6301C302.29 90.3112 302.72 90.9979 303.142 91.6902C303.563 92.3825 303.976 93.0803 304.379 93.7834C304.782 94.4865 305.176 95.1949 305.561 95.9084C305.945 96.6217 306.321 97.34 306.687 98.0633C307.053 98.7864 307.409 99.5143 307.756 100.247C308.103 100.979 308.44 101.716 308.768 102.458C309.096 103.199 309.413 103.944 309.722 104.694C310.03 105.444 310.328 106.197 310.617 106.955C310.905 107.712 311.184 108.474 311.452 109.238C311.721 110.003 311.98 110.771 312.229 111.543C312.477 112.314 312.715 113.089 312.943 113.866C313.159 114.593 313.362 115.323 313.551 116.056C313.742 116.79 313.921 117.526 314.087 118.266C314.251 119.005 314.404 119.747 314.545 120.492C314.686 121.236 314.814 121.983 314.928 122.732C315.045 123.481 315.148 124.231 315.237 124.984C315.328 125.736 315.406 126.49 315.471 127.245C315.535 128 315.586 128.756 315.623 129.512C315.663 130.269 315.69 131.027 315.704 131.784C315.717 132.542 315.717 133.299 315.704 134.057C315.692 134.815 315.667 135.572 315.63 136.329C315.592 137.086 315.541 137.842 315.477 138.597C315.415 139.352 315.339 140.106 315.249 140.858C315.162 141.61 315.061 142.361 314.947 143.111C314.833 143.86 314.706 144.607 314.567 145.351C314.426 146.096 314.273 146.838 314.109 147.578C313.945 148.318 313.768 149.055 313.579 149.788C312.949 152.309 312.211 155.379 310.933 157.632C310.801 157.865 310.661 158.024 310.483 158.222C309.277 154.418 307.251 149.921 303.71 147.731C301.67 146.155 298.828 145.238 296.306 144.855C294.586 144.686 292.709 144.443 291.01 144.858C291.484 141.06 291.993 137.267 292.537 133.479C292.853 131.321 293.319 129.094 293.452 126.922C293.484 126.396 293.46 125.98 293.315 125.474L293.474 125.432L293.443 125.344C293.844 124.886 294.098 124.226 294.377 123.682C294.361 124.445 294.424 125.563 294.903 126.199C295.222 125.477 294.806 124.043 294.688 123.242C294.051 122.689 291.975 122.371 291.096 122.417C291.01 122.421 290.923 122.428 290.837 122.434L290.606 122.053L290.533 122.311C291.06 121.832 292.834 122.23 293.568 122.234H293.707C292.855 121.746 290.248 121.776 289.134 121.669C285.368 121.306 279.1 120.99 275.704 119.433L275.768 118.903L275.707 117.516L275.738 82.9306L275.777 73.0397C275.798 69.884 276.183 66.2296 275.285 63.1833Z" fill="#89EADB"/>
<path d="M293.313 125.474L293.472 125.432C294.3 127.412 292.528 133.893 292.446 136.526C292.4 138.018 292.971 139.672 293.159 141.172C293.286 142.188 293.242 143.247 293.478 144.243C294.458 144.395 295.463 144.264 296.304 144.855C294.585 144.686 292.707 144.443 291.008 144.858C291.482 141.06 291.991 137.267 292.535 133.479C292.851 131.321 293.317 129.094 293.45 126.922C293.482 126.396 293.458 125.98 293.313 125.474Z" fill="#57DBC6"/>
<path d="M275.706 117.517C276.01 117.981 276.169 118.018 276.707 118.133C277.897 118.389 279.094 118.486 280.271 118.825C282.923 119.023 285.434 120.18 288.045 120.525C290.473 120.846 294.627 120.667 296.804 121.427C295.963 121.768 294.817 121.185 293.934 121.125C293.001 121.063 291.954 121.144 291.03 121.302L291.179 121.317C291.571 121.362 291.898 121.43 292.271 121.556C293.671 122.028 295.528 121.527 296.4 123.107C296.625 123.516 296.693 123.976 296.681 124.438C296.655 125.43 296.404 126.435 296.26 127.415C295.874 130.057 295.472 132.92 295.827 135.583C296.009 136.948 296.421 139.404 295.957 140.655L295.754 140.594C295.757 140.415 295.775 140.241 295.783 140.063C295.794 139.836 295.758 139.709 295.707 139.496C294.758 135.576 295.258 131.126 295.732 127.181C295.857 126.14 296.232 124.904 296.209 123.878C296.199 123.403 295.92 123.076 295.527 122.839C294.982 122.512 294.322 122.366 293.706 122.234C292.854 121.746 290.247 121.777 289.133 121.669C285.367 121.307 279.099 120.99 275.703 119.433L275.767 118.903L275.706 117.517Z" fill="#57DBC6"/>
<path d="M243.705 58.9863C249.567 58.9273 255.428 58.9036 261.29 58.9153C264.069 58.9168 267.657 58.5793 270.343 59.1824C271.577 59.4598 272.691 60.1137 273.598 60.987C274.245 61.61 274.836 62.4041 275.285 63.1836C276.183 66.2299 275.798 69.8843 275.777 73.04L275.739 82.9309L275.707 117.517L275.768 118.903L275.705 119.433C279.101 120.99 285.369 121.307 289.134 121.669C290.248 121.777 292.855 121.746 293.707 122.234H293.568C292.834 122.23 291.06 121.832 290.533 122.312L290.606 122.053L290.837 122.434C290.924 122.428 291.01 122.421 291.097 122.417C291.975 122.371 294.051 122.689 294.689 123.243C294.807 124.043 295.222 125.477 294.903 126.199C294.424 125.563 294.362 124.445 294.377 123.683C294.098 124.227 293.845 124.886 293.443 125.344L293.474 125.432L293.315 125.474C290.653 124.104 280.522 124.815 278.902 123.17C278.952 122.541 279.022 122.049 278.658 121.506C277.716 121.454 276.773 121.375 275.83 121.43L275.282 121.38C266.833 120.942 258.413 120.112 249.979 119.47C245.561 119.133 241.02 119.114 236.63 118.564C233.314 118.362 229.996 118.178 226.678 118.013C229.734 117.385 233.037 118.681 236.094 118.244L236.215 117.987L236.357 118.08C236.815 117.35 236.216 116.408 236.362 115.59C236.652 113.977 236.559 112.222 236.585 110.584C236.636 107.208 236.659 103.831 236.653 100.455L236.718 70.0208L236.531 69.6901C237.761 67.855 239.215 66.1523 240.48 64.3362C241.666 62.6323 242.677 60.7894 243.705 58.9863Z" fill="#57DBC6"/>
<path d="M247.86 92.5266C249.632 92.679 251.345 93.1964 252.615 94.517C254.149 96.113 254.097 97.8983 254.063 99.9578C254.902 99.3625 255.663 98.9115 256.715 98.8567C257.504 98.8159 258.24 99.112 258.79 99.678C260.02 100.945 259.901 102.676 259.907 104.305L250.881 104.308L238.474 104.331C238.363 103.046 238.009 101.266 238.541 100.069C238.995 99.0493 239.893 98.6909 240.86 98.2991C241.652 98.3618 242.411 98.5375 243.186 98.7052C243.132 97.2379 243.223 95.7895 244.093 94.5419C245 93.2413 246.361 92.7582 247.86 92.5266Z" fill="#5BC0BE"/>
<path d="M243.704 58.9863C249.565 58.9273 255.427 58.9036 261.288 58.9153C264.067 58.9168 267.655 58.5793 270.341 59.1824C271.576 59.4598 272.689 60.1137 273.596 60.987C274.243 61.61 274.835 62.4041 275.284 63.1836C276.182 66.2299 275.797 69.8843 275.776 73.04L275.737 82.9309L275.705 117.517L275.767 118.903L275.703 119.433C279.099 120.99 285.367 121.307 289.133 121.669C290.247 121.777 292.853 121.746 293.705 122.234H293.567C292.833 122.23 291.058 121.832 290.531 122.312L290.605 122.053L290.835 122.434C290.922 122.428 291.008 122.421 291.095 122.417C291.974 122.371 294.049 122.689 294.687 123.243C294.805 124.043 295.22 125.477 294.902 126.199C294.422 125.563 294.36 124.445 294.375 123.683C294.097 124.227 293.843 124.886 293.441 125.344L293.473 125.432L293.313 125.474C290.651 124.104 280.521 124.815 278.9 123.17C278.95 122.541 279.02 122.049 278.656 121.506C277.714 121.454 276.771 121.375 275.828 121.43L275.28 121.38C266.831 120.942 258.411 120.112 249.978 119.47C245.559 119.133 241.019 119.114 236.628 118.564C236.645 116.018 236.556 113.401 236.777 110.868C237.543 112.25 236.244 117.319 237.139 118.244C238.461 118.637 243.608 118.731 245.264 118.841C249.939 119.152 254.598 119.602 259.269 119.953C260.137 120.019 263.562 120.47 264.127 120.187C264.515 119.429 264.225 116.457 264.208 115.456C262.96 114.96 261.349 114.882 260.008 114.8L259.876 114.642L260.192 114.849L260.454 114.611C261.778 114.796 263.099 115.004 264.416 115.236C264.832 105.867 264.502 96.4226 264.51 87.0435C264.506 84.4051 264.523 81.7668 264.563 79.1288C264.59 77.3607 264.768 75.434 264.507 73.6864C264.389 72.8919 263.832 72.0367 263.286 71.4685C262.735 70.8947 262.002 70.406 261.218 70.2334C258.745 69.6892 255.37 70.0289 252.803 70.028L236.716 70.0208L236.529 69.6901C237.759 67.855 239.214 66.1523 240.479 64.3362C241.665 62.6323 242.676 60.7894 243.704 58.9863Z" fill="#5BC0BE"/>
<path d="M44.787 63.6589C44.9166 69.6144 44.7573 75.5888 44.758 81.5468L44.7679 116.397L44.7377 130.139C44.734 132.485 44.5114 135.074 44.8621 137.384C44.3774 139.682 43.7803 141.964 43.4729 144.294C43.0815 147.266 42.9886 150.313 42.4912 153.262C40.3715 149.492 37.0497 146.817 32.8695 145.641C32.6337 145.575 32.3963 145.515 32.1573 145.461C31.9184 145.407 31.6783 145.359 31.437 145.316C31.1957 145.274 30.9535 145.238 30.7104 145.208C30.4673 145.178 30.2236 145.154 29.9793 145.137C29.735 145.119 29.4905 145.107 29.2456 145.101C29.0007 145.096 28.7558 145.096 28.511 145.103C28.2661 145.109 28.0216 145.122 27.7774 145.141C27.5331 145.159 27.2895 145.184 27.0465 145.215C26.8036 145.246 26.5615 145.283 26.3204 145.326C26.0793 145.369 25.8393 145.418 25.6006 145.473C25.362 145.528 25.1248 145.589 24.8891 145.656C24.6535 145.723 24.4197 145.796 24.1876 145.874C23.9556 145.953 23.7257 146.037 23.4979 146.127C23.2701 146.217 23.0447 146.313 22.8216 146.414C22.5986 146.515 22.3782 146.622 22.1605 146.734C21.9428 146.846 21.728 146.964 21.5162 147.087C17.1501 149.592 14.4115 154.164 13.1342 158.936C12.3461 161.88 12.1693 164.81 12.1014 167.838C11.4202 167.351 10.747 167.023 9.98522 166.687C9.98201 166.673 9.98113 166.658 9.97559 166.644C2.3133 148.021 0.837036 133.137 6.23803 113.639C11.7349 93.7943 26.8299 73.8332 44.787 63.6589Z" fill="#89EADB"/>
<path d="M76.5907 59.1351C76.578 55.9149 75.9007 50.9942 78.2875 48.503C79.3927 47.3495 80.5474 47.1494 82.0631 47.026C86.4608 46.6669 91.5542 46.9378 96.0292 46.9459L122.684 46.988L213.174 46.9256C213.33 52.1779 216.144 58.7511 219.447 62.7658C202.129 62.4388 184.768 62.595 167.447 62.6131L79.4912 62.6467L79.3924 122.143C77.7869 122.456 69.517 122.493 67.8527 122.222C66.8612 122.221 65.9998 122.236 65.243 122.976C64.6705 123.536 64.4735 124.503 64.5162 125.276C64.5355 125.62 64.6063 125.96 64.6646 126.299L64.7144 126.6L64.7472 126.779C61.847 126.795 58.2562 126.438 55.4643 127.197C54.4847 127.458 52.6093 127.824 52.0832 128.722C49.8442 130.125 48.0374 131.834 46.6043 134.065C45.7438 134.805 45.3782 136.389 44.8615 137.385C44.5108 135.075 44.7334 132.486 44.7371 130.14L44.7673 116.397L44.7574 81.5472C44.7567 75.5893 44.916 69.6148 44.7864 63.6594C45.0812 62.4152 45.5821 61.41 46.5252 60.5252C47.2417 59.8529 48.2793 59.228 49.2598 59.0681C51.9791 58.6243 55.8056 58.9665 58.6377 58.9824C64.6206 59.0157 70.6103 58.9222 76.5907 59.1351Z" fill="#5BC0BE"/>
<path d="M90.3804 53.9942C90.7291 53.969 91.0988 53.9291 91.4475 53.9671C92.0157 54.0294 92.5116 54.4131 92.8423 54.8607C93.1976 55.3419 93.3313 55.9085 93.2007 56.4938C93.034 57.2409 92.6238 57.6455 92.007 58.0569C91.8667 58.0849 91.8455 58.093 91.681 58.1033C90.9997 58.1454 90.3875 57.9624 89.8979 57.4681C89.464 57.0302 89.2749 56.4315 89.306 55.8225C89.3503 54.956 89.753 54.5418 90.3804 53.9942Z" fill="#89EADB"/>
<path d="M95.963 53.9999C96.2952 53.9743 96.6418 53.9385 96.974 53.9684C97.6232 54.0273 98.2151 54.4643 98.5925 54.977C98.8946 55.3868 99.0183 55.8886 98.9139 56.3895C98.7559 57.1465 98.2347 57.5112 97.613 57.8948C97.3524 57.9503 97.1024 57.984 96.8356 57.9728C96.2257 57.9469 95.6245 57.6524 95.2433 57.1708C94.9142 56.7547 94.7833 56.2127 94.8416 55.6894C94.9301 54.8941 95.3661 54.4786 95.963 53.9999Z" fill="#89EADB"/>
<path d="M84.9751 53.9912C85.3039 53.9729 85.6449 53.9464 85.9737 53.9729C86.5154 54.0165 87.0801 54.4288 87.3856 54.8661C87.4269 54.9247 87.465 54.9853 87.4997 55.0478C87.5344 55.1104 87.5655 55.1747 87.5932 55.2407C87.6208 55.3068 87.6448 55.3741 87.6652 55.4427C87.6855 55.5113 87.7021 55.5808 87.715 55.6512C87.7279 55.7216 87.7369 55.7926 87.7421 55.8641C87.7471 55.9356 87.7484 56.007 87.7459 56.0785C87.7432 56.1502 87.7366 56.2215 87.7263 56.2923C87.7159 56.363 87.7017 56.433 87.6839 56.5024C87.4713 57.3258 86.9714 57.7217 86.2561 58.1147C85.9693 58.139 85.6857 58.1692 85.3987 58.1281C84.8289 58.0461 84.3006 57.7653 83.9559 57.2975C83.614 56.834 83.5333 56.2502 83.6443 55.6945C83.8104 54.8608 84.3034 54.4528 84.9751 53.9912Z" fill="#89EADB"/>
<path d="M55.4021 86.2402L55.4289 77.5087C55.4373 75.8755 55.2874 74.041 55.6156 72.4362C55.7066 71.9917 55.8706 71.6143 56.195 71.2917C56.6781 70.8108 57.2569 70.5194 57.9239 70.3904C60.0775 69.9743 62.55 70.2012 64.7501 70.2077C68.6645 70.2073 72.5786 70.2348 76.4924 70.2903C76.5124 72.9701 76.8025 92.6401 76.3035 93.5355L76.4313 93.7562C69.4324 93.5829 62.3926 93.7269 55.3896 93.7366C55.0995 91.9211 55.1655 88.0825 55.4021 86.2402Z" fill="#57DBC6"/>
<path d="M55.4021 86.2405C56.7872 85.1515 58.7542 83.5358 60.6301 83.782C63.8316 84.2021 65.4296 89.4759 67.8787 89.9413C68.3097 90.0232 68.843 89.8998 69.2741 89.8362C69.9666 90.4596 70.6492 91.1044 71.3635 91.7019L73.011 91.9347C74.3902 92.1236 75.2289 92.7061 76.3035 93.5358L76.4313 93.7565C69.4324 93.5832 62.3926 93.7272 55.3896 93.7368C55.0995 91.9213 55.1655 88.0828 55.4021 86.2405Z" fill="#0EBDCA"/>
<path d="M55.3904 93.7367C62.3934 93.727 69.4331 93.583 76.4321 93.7563C76.8684 95.3412 76.5726 98.577 76.5851 100.334L76.5832 122.048C75.5092 122.049 68.3229 121.828 67.8542 122.222C66.8628 122.22 66.0013 122.235 65.2445 122.976C64.672 123.536 64.475 124.503 64.5177 125.276C64.5371 125.62 64.6078 125.96 64.6661 126.299L64.716 126.599L64.7487 126.779C61.8486 126.795 58.2578 126.438 55.4658 127.197C55.2844 124.054 55.4163 120.85 55.4334 117.7L55.4845 101.68C55.4864 99.0451 55.5677 96.3653 55.3904 93.7367Z" fill="#57DBC6"/>
<path d="M212.507 149.95C212.884 149.11 212.982 144.619 213.092 143.282L215.145 117.427C217.583 117.414 220.019 117.592 222.449 117.781C223.815 117.888 225.325 118.154 226.676 118.013C229.995 118.178 233.312 118.361 236.629 118.563C241.019 119.114 245.559 119.133 249.978 119.469C258.411 120.112 266.832 120.942 275.28 121.38L275.828 121.43C276.771 121.375 277.714 121.453 278.656 121.506C279.02 122.049 278.95 122.54 278.9 123.169C280.521 124.815 290.652 124.103 293.313 125.474C293.459 125.98 293.483 126.396 293.451 126.922C293.318 129.094 292.852 131.321 292.536 133.479C291.992 137.267 291.483 141.06 291.008 144.858C289.997 152.883 288.739 160.912 287.515 168.908C287.175 171.132 287.122 174.182 286.392 176.269C285.487 177.984 284.361 187.468 283.948 190.173C283.753 191.474 283.638 193.105 282.492 193.963C282.004 194.329 281.405 194.501 280.816 194.617C276.873 194.209 272.807 193.569 268.92 192.795C268.227 192.705 267.547 192.616 266.865 192.458C262.813 191.835 258.728 191.358 254.667 190.786C250.035 190.133 245.419 189.388 240.773 188.835C231.931 187.784 223.005 186.934 214.196 185.658C213.224 185.518 210.969 185.412 210.259 184.781C209.369 182.659 210.384 178.313 210.577 175.936C210.875 174.548 210.82 172.908 210.941 171.479C211.05 170.815 211.054 170.108 211.101 169.434C211.786 162.964 211.717 156.418 212.507 149.95Z" fill="#FEFEFE"/>
<path d="M223.708 173.343C224.947 173.449 228.344 173.397 229.176 174.263C230.04 175.162 229.355 178.141 229.216 179.313C227.215 179.191 225.136 179.095 223.17 178.703C223.293 176.981 223.28 175.015 223.708 173.343Z" fill="#F5C65C"/>
<path d="M231.887 174.269C233.952 174.383 236.064 174.745 238.123 174.982C238.047 176.676 237.866 178.358 237.581 180.028C236.023 180.372 233.065 179.726 231.425 179.488C231.392 177.77 231.647 175.969 231.887 174.269Z" fill="#F5C65C"/>
<path d="M224.396 165.88C225.748 165.963 227.127 165.945 228.469 166.102C229.038 166.169 229.71 166.304 230.041 166.829C230.732 167.928 230.036 170.617 229.827 171.859C227.849 171.749 225.88 171.552 223.92 171.266C223.951 169.474 224.188 167.659 224.396 165.88Z" fill="#F5C65C"/>
<path d="M235.528 124.098C236.016 124.059 236.505 124.043 236.995 124.05C237.485 124.056 237.974 124.085 238.461 124.136C238.948 124.187 239.432 124.261 239.912 124.356C240.393 124.452 240.868 124.569 241.337 124.708C241.283 126.468 241.317 128.35 240.855 130.055C238.909 129.998 236.883 129.849 234.965 129.513C235.045 127.749 235.14 125.822 235.528 124.098Z" fill="#F5C65C"/>
<path d="M227.605 123.504C229.557 123.351 231.472 123.562 233.375 124C233.318 125.735 233.375 127.784 232.774 129.422C230.847 129.284 228.903 129.194 226.988 128.936C226.951 127.288 226.964 125.018 227.605 123.504Z" fill="#F5C65C"/>
<path d="M215.141 172.546C216.719 172.66 218.33 172.634 219.899 172.802C220.379 172.854 220.92 172.979 221.19 173.424C221.839 174.497 221.145 177.224 220.979 178.471C218.91 178.279 216.798 178.068 214.76 177.666C214.759 175.969 214.991 174.236 215.141 172.546Z" fill="#F5C65C"/>
<path d="M225.236 158.053C227.175 158.103 229.177 158.34 231.1 158.594C230.969 160.45 230.99 162.441 230.573 164.253C230.391 164.282 230.223 164.309 230.038 164.305C228.791 164.273 225.796 164.241 225.016 163.258C224.198 162.227 225.054 159.334 225.236 158.053Z" fill="#F5C65C"/>
<path d="M219.928 122.754C221.856 122.856 223.659 123.02 225.523 123.539C225.435 124.999 225.528 127.023 225.082 128.393C224.979 128.708 224.971 128.644 224.702 128.782C222.78 128.486 220.823 128.308 218.892 128.055C218.893 126.639 218.699 124.739 219.174 123.414C219.329 122.98 219.524 122.927 219.928 122.754Z" fill="#F5C65C"/>
<path d="M249.148 176.273C251.259 176.559 253.392 176.59 255.499 176.929C255.484 178.735 255.298 180.538 255.151 182.336C253.948 182.229 249.863 182.364 249.128 181.416C248.379 180.451 249.015 177.465 249.148 176.273Z" fill="#3C8FFA"/>
<path d="M232.423 166.762C234.557 166.758 236.8 167.047 238.9 167.412L238.418 172.788C236.343 172.687 234.139 172.438 232.102 172.032C232.033 170.281 232.268 168.505 232.423 166.762Z" fill="#F5C65C"/>
<path d="M241.264 175.192C242.336 175.335 246.165 175.404 246.757 175.967C247.088 176.281 247.209 176.766 247.249 177.204C247.342 178.233 247.272 180.62 246.637 181.409C245.132 181.294 242.271 181.399 241.012 180.635C240.744 180.473 240.672 180.376 240.633 180.063C240.535 179.282 240.856 175.738 241.264 175.192Z" fill="#3C8FFA"/>
<path d="M215.888 165.095C217.966 165.236 220.036 165.389 222.106 165.617C222.092 167.454 221.873 169.331 221.74 171.165C219.677 171.224 217.547 171.027 215.513 170.696C215.492 168.821 215.709 166.959 215.888 165.095Z" fill="#F5C65C"/>
<path d="M216.669 157.139C218.753 157.369 220.845 157.445 222.92 157.759C222.869 159.647 222.83 161.556 222.424 163.408C220.388 163.052 218.27 163.09 216.213 162.794C216.384 160.911 216.569 159.028 216.669 157.139Z" fill="#F5C65C"/>
<path d="M257.515 177.062C259.023 177.059 260.799 177.053 262.276 177.332C262.872 177.445 263.382 177.647 263.714 178.189C264.372 179.263 263.552 181.835 263.29 183.006C261.296 183.211 258.985 182.66 256.98 182.473C257.055 180.708 257.133 178.786 257.515 177.062Z" fill="#3C8FFA"/>
<path d="M233.181 158.962C234.525 159.031 238.447 158.784 239.249 159.839C240.054 160.897 239.324 163.692 239.14 164.938C238.455 165.358 233.805 164.621 232.766 164.414C232.859 162.596 233.065 160.78 233.181 158.962Z" fill="#F5C65C"/>
<path d="M246.887 124.444C248.806 124.591 250.726 124.726 252.646 124.849C252.771 126.888 252.572 129.069 252.238 131.082C250.296 130.941 248.346 130.835 246.418 130.554C246.513 128.52 246.685 126.471 246.887 124.444Z" fill="#3C8FFA"/>
<path d="M242.692 159.833C244.535 160.077 246.962 160.12 248.68 160.757C248.942 161.71 248.444 165.552 247.976 166.45C246.713 166.366 243.283 166.146 242.322 165.534C242.087 165.384 242.052 165.315 242.01 165.048C241.877 164.181 242.238 160.47 242.692 159.833Z" fill="#3C8FFA"/>
<path d="M241.739 167.528C243.205 167.589 244.906 167.676 246.334 167.994C246.929 168.126 247.483 168.353 247.797 168.908C248.293 169.782 247.75 173 247.479 174.025C246.324 174.155 244.932 174.008 243.769 173.918C243.07 173.864 242.111 173.794 241.669 173.156C240.937 172.1 241.615 168.864 241.739 167.528Z" fill="#3C8FFA"/>
<path d="M245.932 132.36C247.374 132.383 248.89 132.378 250.323 132.55C250.884 132.618 251.525 132.751 251.844 133.272C252.441 134.246 251.628 137.463 251.467 138.689C250.24 139.331 246.922 138.559 245.5 138.399C245.512 136.402 245.728 134.347 245.932 132.36Z" fill="#3C8FFA"/>
<path d="M262.025 133.764C263.937 133.787 266.449 133.853 268.229 134.5C268.056 136.456 267.954 138.423 267.825 140.383C266.514 140.331 263.118 140.558 262.146 139.672C261.222 138.831 261.943 135.069 262.025 133.764Z" fill="#3C8FFA"/>
<path d="M250.049 168.518C251.267 168.567 255.232 168.519 255.946 169.377C256.702 170.286 255.928 173.747 255.777 174.973C254.191 174.881 252.461 174.947 250.907 174.65C250.43 174.559 249.931 174.374 249.69 173.919C249.082 172.769 249.796 169.79 250.049 168.518Z" fill="#3C8FFA"/>
<path d="M254.773 125.192C254.818 125.187 254.863 125.18 254.909 125.176C256.104 125.081 259.697 124.971 260.504 125.876C261.345 126.817 260.456 130.504 260.254 131.763C258.94 131.689 257.6 131.676 256.294 131.531C255.658 131.46 254.856 131.353 254.483 130.756C253.884 129.795 254.515 126.351 254.773 125.192Z" fill="#3C8FFA"/>
<path d="M254.046 132.999C256.044 133.095 258.205 133.097 260.139 133.604C259.807 135.537 260.058 137.702 259.557 139.554C258.263 139.534 254.503 139.598 253.495 138.88C253.216 137.9 253.704 133.983 254.046 132.999Z" fill="#3C8FFA"/>
<path d="M250.771 160.759C252.501 160.864 255.536 160.742 256.957 161.674C257.165 162.389 256.672 166.638 256.378 167.32C254.346 167.247 252.228 166.958 250.213 166.663C250.226 164.984 250.136 162.264 250.771 160.759Z" fill="#3C8FFA"/>
<path d="M258.385 169.317C260.433 169.564 262.553 169.571 264.567 170.019L264.558 170.203C264.508 171.228 264.481 175.333 263.857 175.902C262.442 175.842 260.125 175.929 258.807 175.559C258.375 175.438 257.996 175.183 257.826 174.753C257.508 173.946 257.929 170.167 258.385 169.317Z" fill="#3C8FFA"/>
<path d="M258.957 161.476C260.404 161.675 264.172 161.567 265.088 162.566C265.678 163.982 265.062 166.39 264.881 167.897C263.035 168.272 260.373 167.802 258.502 167.513C258.483 165.58 258.457 163.337 258.957 161.476Z" fill="#3C8FFA"/>
<path d="M225.571 149.468L227.659 149.566C228.646 149.614 230.891 149.479 231.506 150.357C232.214 151.365 231.525 155.002 231.392 156.249C229.404 156.349 227.21 156.023 225.251 155.688C225.198 153.643 225.453 151.515 225.571 149.468Z" fill="#9492EE"/>
<path d="M253.395 142.505C255.24 142.469 257.072 142.741 258.891 143.033C258.888 144.294 258.724 148.785 258.048 149.7C256.225 149.714 254.381 149.451 252.57 149.25C252.458 147.767 252.582 143.763 253.395 142.505Z" fill="#B5EBE2"/>
<path d="M262.844 125.771C264.294 125.774 267.813 125.544 268.828 126.518C269.366 127.666 268.608 131.05 268.487 132.493C266.385 132.347 264.273 132.236 262.182 131.975C262.181 129.922 262.526 127.798 262.844 125.771Z" fill="#3C8FFA"/>
<path d="M260.274 152.491C262.216 152.398 264.206 152.778 266.126 153.041C266.032 154.862 266.133 157.998 265.461 159.638C264.061 159.553 262.511 159.676 261.14 159.449C260.667 159.371 260.205 159.182 259.954 158.745C259.415 157.807 260.025 153.575 260.274 152.491Z" fill="#B5EBE2"/>
<path d="M261.424 142.99C263.408 143.012 265.431 143.284 267.327 143.861C267.024 146.066 266.854 148.286 266.536 150.49C264.736 150.628 262.469 150.347 260.733 149.865C260.602 147.63 261.075 145.203 261.424 142.99Z" fill="#B5EBE2"/>
<path d="M243.488 150.941C245.433 150.751 247.642 150.888 249.549 151.308C249.348 153.579 249.162 155.887 248.724 158.125C246.899 158.291 244.592 157.996 242.818 157.519C242.974 155.336 243.119 153.098 243.488 150.941Z" fill="#B5EBE2"/>
<path d="M233.823 150.315C235.928 150.222 238.1 150.502 240.198 150.667C240.178 151.68 240.315 156.511 239.96 157.147C237.8 157.036 235.387 157.067 233.295 156.516C233.325 154.443 233.604 152.376 233.823 150.315Z" fill="#9492EE"/>
<path d="M252.001 151.714C253.992 151.658 256.099 151.874 258.067 152.174C257.855 154.439 257.706 156.784 257.224 159.009C255.873 158.998 254.168 159.039 252.85 158.765C252.281 158.646 251.825 158.381 251.542 157.854C250.984 156.809 251.543 152.827 252.001 151.714Z" fill="#B5EBE2"/>
<path d="M217.191 148.416C219.368 148.503 221.517 148.794 223.666 149.137C223.507 151.289 223.36 153.435 223.298 155.593C221.167 155.597 218.863 155.33 216.785 154.859C216.781 152.731 216.959 150.531 217.191 148.416Z" fill="#9492EE"/>
<path d="M244.782 141.585C246.174 141.649 248.417 141.402 249.691 141.881C250.112 142.039 250.38 142.299 250.562 142.713C250.948 143.593 250.312 147.981 249.925 148.97C247.923 148.867 245.873 148.745 243.907 148.34C243.882 146.898 244.034 142.787 244.782 141.585Z" fill="#B5EBE2"/>
<path d="M271.289 185.969C274.289 185.981 279.028 186.976 282.162 187.384C281.77 189.452 281.632 191.59 281.047 193.616C279.492 193.754 277.76 193.365 276.212 193.183C274.289 192.958 272.357 192.811 270.439 192.542C270.892 190.399 270.944 188.142 271.289 185.969Z" fill="#57DBC6"/>
<path d="M272.763 176.011C276.466 176.513 280.2 176.875 283.89 177.454C283.181 180.26 282.807 183.014 282.481 185.885C281.539 185.97 273.324 184.656 271.848 184.357C272.104 181.573 272.464 178.791 272.763 176.011Z" fill="#57DBC6"/>
<path d="M273.868 166.503L285.313 167.802C284.737 170.496 284.429 173.256 284.066 175.986C280.357 175.36 276.592 174.986 272.865 174.463C273.121 171.806 273.506 169.148 273.868 166.503Z" fill="#57DBC6"/>
<path d="M277.932 135.489C281.864 136.001 285.798 136.624 289.749 136.963C289.254 139.614 289.014 142.362 288.663 145.039C284.745 144.652 280.822 144.023 276.908 143.556C277.344 140.879 277.685 138.19 277.932 135.489Z" fill="#57DBC6"/>
<path d="M279.524 125.467C283.466 126.076 287.499 126.195 291.415 126.864C290.761 129.581 290.519 132.399 289.988 135.144C286.238 135.135 282.004 134.439 278.277 133.887C278.651 131.112 278.85 128.182 279.524 125.467Z" fill="#57DBC6"/>
<path d="M275.314 156.067C278.848 156.379 283.323 157.075 286.826 157.664C286.365 160.496 285.837 163.351 285.628 166.214C281.779 165.785 277.907 165.451 274.074 164.894C274.644 161.984 274.794 158.991 275.314 156.067Z" fill="#57DBC6"/>
<path d="M276.662 145.288C280.606 145.551 284.603 145.989 288.488 146.725C287.86 149.795 287.373 152.886 287.026 156C284.611 156.1 278.206 154.953 275.471 154.615C275.809 151.503 276.453 148.409 276.662 145.288Z" fill="#57DBC6"/>
<path d="M218.562 130.327C225.97 130.721 233.366 131.824 240.776 132.334C240.66 134.331 240.674 147.546 240.468 148.043C240.424 148.149 240.329 148.225 240.26 148.316L239.817 148.347C232.265 147.76 224.722 147.065 217.189 146.262C217.241 143.548 217.635 140.782 217.846 138.071C218.031 135.695 217.952 132.592 218.562 130.327Z" fill="#5745CD"/>
<path d="M226.625 136.917C227.183 137.187 227.401 137.279 227.638 137.858L227.533 138.105C227.479 138.113 227.425 138.127 227.371 138.128C227.004 138.136 226.492 137.932 226.25 137.654C226.215 137.613 226.192 137.561 226.151 137.526C225.82 137.235 223.937 137.279 223.419 137.24C222.937 137.202 222.328 137.186 221.989 136.794C221.932 136.4 221.849 136.344 222.059 135.988C222.893 135.657 225.037 136.33 225.976 136.512L226.625 136.917Z" fill="#FEFEFE"/>
<path d="M226.182 139.049C226.346 139.25 226.286 139.139 226.369 139.425C226.449 139.705 226.537 139.974 226.635 140.247L226.804 140.257C226.757 139.855 226.675 139.49 226.836 139.105C227.862 139.123 230.779 139.525 231.63 140.037C231.594 140.123 231.56 140.21 231.521 140.295C230.95 141.528 228.902 140.121 227.827 140.511C227.562 140.607 227.285 140.738 227.008 140.789C226.605 140.863 226.421 140.746 226.109 140.517C225.931 140.011 226.015 139.543 226.182 139.049Z" fill="#F5C086"/>
<path d="M225.977 136.511C226.237 136.143 226.513 135.751 226.869 135.469C227.781 134.745 230.816 133.411 231.953 133.296C232.23 133.268 232.22 133.277 232.454 133.301C232.684 133.588 232.72 133.623 232.757 133.985C231.434 135.361 228.404 135.021 226.626 136.917L225.977 136.511Z" fill="#C18E64"/>
<path d="M79.4923 62.6465L167.448 62.6128C184.77 62.5948 202.13 62.4386 219.448 62.7656C220.911 64.4274 222.144 66.2974 223.559 68.0057C225.772 70.6883 228.192 73.0617 230.878 75.2708C232.977 73.6186 234.776 71.6962 236.53 69.69L236.717 70.0207L236.653 100.455C236.658 103.831 236.635 107.208 236.585 110.584C236.559 112.222 236.652 113.977 236.362 115.59C236.215 116.408 236.814 117.35 236.356 118.08L236.214 117.987L236.093 118.244C233.036 118.681 229.734 117.385 226.677 118.013C225.326 118.155 223.816 117.888 222.45 117.781C220.02 117.592 217.584 117.414 215.146 117.427L213.093 143.282C212.983 144.619 212.885 149.111 212.508 149.951C211.718 156.418 211.787 162.964 211.102 169.434C211.055 170.108 211.051 170.815 210.942 171.48C210.821 172.908 210.876 174.548 210.578 175.936L210.415 175.869C209.298 176.057 208.168 175.97 207.042 176.038L191.678 176.066C191.687 177.51 191.92 179.51 191.304 180.824C190.96 181.367 190.622 181.691 190.081 182.039C187.773 181.46 184.949 181.748 182.567 181.745L170.201 181.741C167.789 181.744 165.325 181.85 162.919 181.681C162.887 180.672 162.726 179.792 162.448 178.83C162.453 177.978 161.897 176.959 161.468 176.234C160.08 173.888 157.573 172.309 154.967 171.662C152.249 170.987 149.526 171.391 147.135 172.862C145.057 174.141 143.568 176.102 143.015 178.494C140.954 178.222 138.659 178.383 136.576 178.377L123.943 178.364L82.1808 178.334C81.8937 177.657 81.612 176.965 81.2489 176.325C79.9252 173.992 77.7254 172.134 75.1145 171.438C71.9383 170.591 68.8776 171.245 66.0947 172.878C66.0162 169.12 65.9011 137.487 66.2443 136.461C66.2636 136.403 66.2954 136.349 66.3185 136.293C66.4547 135.956 66.5541 135.725 66.7894 135.446L66.1792 135.456C65.5119 135.035 64.8614 134.908 64.091 134.806C62.7617 134.63 61.3644 134.708 60.0221 134.651C55.5845 134.464 51.0194 134.484 46.6055 134.065C48.0385 131.834 49.8453 130.125 52.0844 128.722C52.6105 127.824 54.4858 127.458 55.4654 127.197C58.2574 126.438 61.8482 126.794 64.7483 126.779L64.7155 126.599L64.6657 126.299C64.6074 125.96 64.5366 125.619 64.5173 125.276C64.4746 124.503 64.6716 123.536 65.2441 122.976C66.0009 122.235 66.8624 122.22 67.8538 122.222C69.5181 122.492 77.7881 122.456 79.3935 122.143L79.4923 62.6465Z" fill="#B5EBE2"/>
<path d="M179.055 105.151C180.897 105.136 185.005 104.758 186.546 105.502C186.624 105.679 186.649 105.713 186.688 105.933C186.816 106.644 186.9 109.023 186.518 109.612C184.035 109.828 181.472 109.702 178.983 109.626C178.918 108.203 178.729 106.541 179.055 105.151Z" fill="#57DBC6"/>
<path d="M153.058 78.9348C156.471 78.8127 159.896 78.8641 163.312 78.8607C163.292 80.3879 163.247 81.9144 163.178 83.4404L153.074 83.4631C153.036 81.9538 153.031 80.4444 153.058 78.9348Z" fill="#57DBC6"/>
<path d="M173.652 78.8085C178.095 78.7709 182.538 78.7653 186.98 78.7917C187.007 80.2877 187.085 81.8034 186.997 83.2976C182.551 83.4173 178.105 83.4389 173.659 83.3624L173.652 78.8085Z" fill="#57DBC6"/>
<path d="M153.056 105.265C156.025 105.301 158.994 105.306 161.964 105.281C163.765 105.267 165.726 105.106 167.508 105.352C167.755 105.386 168.273 105.424 168.405 105.646C168.888 106.454 168.642 108.724 168.494 109.657C166.671 109.942 164.658 109.812 162.813 109.812C159.558 109.818 156.304 109.803 153.049 109.768C152.973 108.275 153.04 106.761 153.056 105.265Z" fill="#57DBC6"/>
<path d="M197.44 78.7882C202.643 78.6947 207.862 78.7755 213.066 78.772C213.161 80.255 213.104 81.7248 213.052 83.2081C211.536 83.5269 209.547 83.3128 207.982 83.3119L197.41 83.2835L197.44 78.7882Z" fill="#57DBC6"/>
<path d="M153.037 92.1719L181.703 92.3315C187.671 92.3455 193.728 92.118 199.685 92.4081C199.685 93.4862 199.98 96.1276 199.451 97.0019L169.377 96.9168C163.964 96.9121 158.453 97.1294 153.049 96.8423C152.991 95.2883 153.029 93.7265 153.037 92.1719Z" fill="#57DBC6"/>
<path d="M101.287 93.7168C101.989 91.0146 102.911 88.6169 104.645 86.3922C107.576 82.6328 111.858 80.0216 116.623 79.4634C121.407 78.903 125.729 79.9907 129.499 83.0018C132.813 85.6476 135.35 89.7666 135.843 94.0045C137.306 93.8854 138.857 93.8327 140.032 94.8765C140.572 95.3568 140.946 96.0331 140.963 96.7656C140.989 97.8751 140.4 98.7784 139.676 99.5576C137.373 99.5298 130.369 99.8399 128.628 99.3459C129.316 96.3355 129.135 93.4787 127.442 90.8273C127.35 90.6845 127.254 90.5443 127.155 90.4065C127.055 90.2688 126.953 90.1335 126.847 90.0007C126.741 89.8679 126.631 89.738 126.519 89.6108C126.406 89.4834 126.29 89.359 126.172 89.2374C126.053 89.1161 125.931 88.9976 125.806 88.8821C125.681 88.7668 125.554 88.6546 125.424 88.5455C125.293 88.4364 125.16 88.3307 125.025 88.2282C124.889 88.1258 124.751 88.0269 124.611 87.9315C124.47 87.8359 124.327 87.744 124.182 87.6557C124.037 87.5672 123.89 87.4824 123.741 87.4014C123.591 87.3203 123.44 87.243 123.287 87.1695C123.133 87.0961 122.978 87.0265 122.822 86.9607C122.665 86.895 122.507 86.8332 122.347 86.7752C122.187 86.7175 122.026 86.6636 121.864 86.6138C121.701 86.5641 121.538 86.5184 121.373 86.4766C121.208 86.4351 121.043 86.3976 120.876 86.3641C118.117 85.8112 115.012 86.3545 112.668 87.9315C110.438 89.431 108.927 91.8611 108.434 94.4888C108.13 96.1108 108.197 97.7461 108.565 99.3512C106.484 99.3709 98.7952 99.8661 97.623 98.8217C97.2337 98.4745 97.0704 97.9839 97.0277 97.4793C96.9012 95.9833 97.5395 94.8295 98.4845 93.7442L101.287 93.7168Z" fill="#FEFEFE"/>
<path d="M108.567 99.3511C108.199 97.746 108.132 96.1106 108.436 94.4887C108.929 91.861 110.44 89.4308 112.67 87.9314C115.014 86.3543 118.119 85.8111 120.878 86.364C121.045 86.3974 121.21 86.4349 121.375 86.4765C121.54 86.5183 121.703 86.564 121.866 86.6136C122.028 86.6635 122.189 86.7173 122.349 86.7751C122.509 86.8331 122.667 86.8949 122.824 86.9605C122.98 87.0264 123.135 87.096 123.289 87.1693C123.442 87.2429 123.593 87.3202 123.743 87.4012C123.892 87.4823 124.039 87.5669 124.184 87.6553C124.329 87.7438 124.472 87.8358 124.613 87.9314C124.753 88.0268 124.891 88.1257 125.027 88.2281C125.162 88.3305 125.295 88.4363 125.426 88.5454C125.556 88.6545 125.684 88.7667 125.808 88.882C125.933 88.9975 126.055 89.116 126.174 89.2373C126.292 89.3589 126.408 89.4833 126.521 89.6107C126.633 89.7378 126.743 89.8678 126.849 90.0006C126.955 90.1334 127.057 90.2686 127.157 90.4064C127.256 90.5441 127.352 90.6844 127.444 90.8271C129.137 93.4785 129.318 96.3353 128.63 99.3458C127.114 103.93 122.061 112.891 118.592 116.331C115.562 112.304 109.611 104.245 108.567 99.3511Z" fill="#57DBC6"/>
<path d="M118.384 92.5283C119.066 92.5464 119.745 92.6651 120.359 92.9706C120.481 93.03 120.6 93.0955 120.716 93.1669C120.831 93.2384 120.943 93.3154 121.051 93.3979C121.159 93.4806 121.262 93.5685 121.361 93.6616C121.46 93.7547 121.554 93.8524 121.643 93.9548C121.732 94.0573 121.816 94.164 121.895 94.2749C121.973 94.3859 122.046 94.5005 122.113 94.6187C122.18 94.7367 122.241 94.858 122.295 94.9824C122.35 95.1067 122.399 95.2334 122.441 95.3627C122.808 96.4828 122.746 97.7314 122.18 98.7764C121.476 100.077 120.373 100.656 119.012 101.093C117.916 101.088 117.108 100.993 116.182 100.349C116.069 100.27 115.961 100.186 115.856 100.096C115.752 100.007 115.653 99.9126 115.558 99.8131C115.463 99.7135 115.374 99.6095 115.289 99.5011C115.205 99.3926 115.126 99.2802 115.053 99.1638C114.98 99.0473 114.913 98.9275 114.852 98.8045C114.791 98.6813 114.736 98.5554 114.688 98.4267C114.64 98.2981 114.598 98.1673 114.563 98.0343C114.527 97.9016 114.499 97.7673 114.477 97.6317C114.455 97.4839 114.441 97.3355 114.433 97.1863C114.426 97.0371 114.426 96.888 114.433 96.739C114.441 96.5898 114.456 96.4414 114.478 96.2936C114.5 96.1459 114.53 95.9996 114.566 95.8548C114.603 95.7102 114.647 95.5677 114.697 95.4272C114.748 95.2867 114.806 95.1492 114.87 95.0145C114.935 94.8797 115.006 94.7485 115.083 94.6209C115.161 94.4933 115.244 94.3698 115.334 94.2503C116.119 93.2056 117.126 92.7331 118.384 92.5283Z" fill="#FEFEFE"/>
<path d="M108.615 126.704C108.424 125.469 108.146 124.095 108.919 122.993C109.402 122.304 109.894 122.21 110.695 122.098C113.278 121.734 116.197 121.987 118.811 121.987C122.272 121.988 125.915 121.787 129.361 122.098C129.931 122.15 130.995 122.192 131.425 122.594C132.14 123.261 132.229 124.222 132.205 125.148C132.19 125.686 132.108 126.215 132.019 126.745C136.503 126.722 140.991 126.632 145.474 126.651C145.292 125.46 144.985 124.057 145.81 123.02C146.367 122.32 147.646 122.136 148.482 122.084C151.914 121.87 155.475 122.11 158.919 122.117C161.489 122.122 164.204 121.854 166.75 122.097C167.432 122.162 168.221 122.304 168.748 122.779C169.295 123.272 169.47 124.024 169.483 124.736C169.494 125.396 169.355 126.092 169.226 126.739C172.869 126.747 181.138 126.325 184.246 127.175C184.439 127.227 184.63 127.285 184.819 127.349C185.008 127.414 185.195 127.484 185.379 127.56C185.564 127.637 185.746 127.719 185.925 127.808C186.104 127.896 186.28 127.991 186.453 128.09C186.626 128.191 186.796 128.296 186.962 128.407C187.128 128.519 187.29 128.635 187.448 128.757C187.607 128.879 187.761 129.006 187.911 129.138C188.061 129.27 188.206 129.407 188.347 129.548C193.267 134.491 190.696 143.472 191.518 149.722C191.605 154.373 191.759 159.18 191.53 163.822C190.886 162.478 192.029 159.699 191.083 158.355L191.059 158.202C187.047 157.69 170.911 158.984 168.631 157.792C168.036 157.01 168.522 145.627 168.366 143.519L168.954 143.863C168.98 143.702 169.002 143.539 169.041 143.381C169.114 143.082 169.287 142.823 169.559 142.679C170.135 142.373 189.675 142.249 190.965 142.621C191.054 142.064 190.923 141.394 190.876 140.827C190.911 139.415 190.873 137.995 190.865 136.581C189.967 136.604 189.061 136.661 188.17 136.522L188.314 136.526C188.658 136.29 189.974 136.446 190.481 136.39L190.535 136.215C189.614 135.829 188.543 136.174 187.56 135.808L190.856 135.777C190.783 135.246 190.676 134.722 190.534 134.206C190.392 133.689 190.217 133.183 190.009 132.689C189.046 130.434 187.337 128.629 185.027 127.733C183.848 127.276 182.66 127.169 181.407 127.118C175.84 126.889 170.179 127.104 164.603 127.099L124.023 127.182L80.0492 127.104L66.6665 127.191C63.6916 127.198 60.6871 127.089 57.7159 127.234C55.6629 127.335 53.9596 127.906 52.084 128.721C52.6101 127.824 54.4854 127.458 55.465 127.197C58.257 126.437 61.8478 126.794 64.7479 126.779L64.7152 126.599L64.6653 126.298C64.607 125.96 64.5363 125.619 64.5169 125.276C64.4742 124.503 64.6712 123.536 65.2438 122.976C66.0005 122.235 66.862 122.22 67.8534 122.221C69.5177 122.492 77.7877 122.455 79.3931 122.143C81.1865 122.095 84.824 121.5 86.2194 122.848C86.7717 123.382 87.0285 124.206 86.9967 124.961C86.9721 125.549 86.8577 126.151 86.7838 126.734L108.615 126.704Z" fill="#5745CD"/>
<path d="M68.2174 122.466C71.5392 122.392 74.8725 122.457 78.1956 122.47C80.1819 122.478 82.2704 122.348 84.2402 122.551C84.7588 122.605 85.5505 122.704 85.9513 123.076C86.8517 123.913 86.5456 125.567 86.4696 126.643L83.5894 126.633C79.7076 126.624 75.8261 126.645 71.9447 126.696C69.7256 126.718 67.451 126.854 65.2415 126.67C64.9941 126.427 64.8778 126.216 64.8164 125.868C64.6743 125.067 64.9741 123.843 65.5164 123.225C66.1744 122.474 67.2995 122.53 68.2174 122.466Z" fill="#FEFEFE"/>
<path d="M147.577 122.436C149.751 122.361 166.931 122.26 167.828 122.75C168.469 123.1 168.74 123.78 168.897 124.457C169.037 125.056 169.053 125.788 168.638 126.294C168.3 126.706 167.911 126.623 167.431 126.65C165.516 126.642 146.685 126.783 146.164 126.548C146.059 126.5 145.998 126.387 145.915 126.306C145.692 125.639 145.579 124.539 145.86 123.871C146.19 123.083 146.842 122.771 147.577 122.436Z" fill="#FEFEFE"/>
<path d="M110.473 122.425C112.989 122.357 130.095 122.035 131.186 122.966C132.079 123.727 131.742 125.641 131.674 126.653L130.184 126.693L109.062 126.682C108.914 125.78 108.691 124.664 109.004 123.787C109.264 123.06 109.816 122.75 110.473 122.425Z" fill="#FEFEFE"/>
<path d="M168.953 143.863C168.98 143.702 169.001 143.539 169.04 143.381C169.113 143.082 169.286 142.823 169.559 142.679C170.134 142.373 189.675 142.25 190.964 142.621C190.875 147.47 190.723 152.445 190.922 157.287C187.922 157.506 184.773 157.346 181.759 157.365C177.557 157.392 173.321 157.557 169.124 157.407C168.951 153.054 169.551 148.097 168.953 143.863Z" fill="#FEFEFE"/>
<path d="M52.0844 128.721C53.96 127.906 55.6633 127.335 57.7163 127.234C60.6875 127.089 63.692 127.198 66.6669 127.191L80.0496 127.104L124.023 127.182L164.603 127.099C170.179 127.104 175.84 126.889 181.408 127.118C182.66 127.169 183.849 127.276 185.027 127.733C187.337 128.629 189.046 130.434 190.009 132.689C190.217 133.183 190.392 133.688 190.534 134.205C190.676 134.722 190.783 135.246 190.857 135.777L187.56 135.808C185.663 135.474 182.128 135.717 180.014 135.705C174.268 135.673 168.519 135.586 162.774 135.621C154.722 135.488 146.67 135.449 138.618 135.503C136.367 135.2 133.804 135.448 131.511 135.446L115.429 135.465L66.7894 135.445L66.1792 135.456C65.5119 135.035 64.8614 134.908 64.091 134.806C62.7617 134.629 61.3644 134.708 60.0221 134.651C55.5845 134.464 51.0194 134.484 46.6055 134.064C48.0385 131.834 49.8453 130.124 52.0844 128.721Z" fill="#FEFEFE"/>
<path d="M66.7881 135.445L115.428 135.465L131.51 135.446C133.802 135.447 136.365 135.2 138.616 135.503C146.669 135.449 154.721 135.488 162.773 135.621C168.518 135.586 174.267 135.672 180.012 135.705C182.127 135.716 185.661 135.474 187.559 135.808C188.542 136.173 189.613 135.829 190.534 136.215L190.48 136.39C189.973 136.445 188.657 136.29 188.313 136.526L188.169 136.521C189.06 136.66 189.966 136.604 190.865 136.581C190.872 137.994 190.91 139.414 190.875 140.827C190.922 141.393 191.053 142.063 190.964 142.62C189.674 142.249 170.134 142.373 169.558 142.678C169.286 142.823 169.113 143.082 169.04 143.38C169.001 143.539 168.979 143.701 168.953 143.863L168.365 143.519C168.521 145.627 168.035 157.009 168.63 157.792C170.91 158.984 187.046 157.689 191.058 158.201L191.082 158.355C192.028 159.698 190.885 162.478 191.529 163.822C191.758 159.18 191.604 154.372 191.517 149.722L205.785 149.71C207.766 149.713 209.894 149.542 211.854 149.718C212.164 149.745 212.279 149.756 212.507 149.95C211.717 156.417 211.786 162.963 211.101 169.434C211.054 170.107 211.049 170.814 210.941 171.479C210.819 172.908 210.874 174.547 210.577 175.936L210.413 175.868C209.296 176.056 208.166 175.97 207.041 176.037L191.676 176.065C191.685 177.51 191.918 179.509 191.303 180.823C190.958 181.366 190.62 181.691 190.08 182.038C187.772 181.459 184.948 181.747 182.566 181.744L170.2 181.741C167.787 181.743 165.324 181.849 162.918 181.681C162.886 180.672 162.725 179.791 162.447 178.829C162.451 177.977 161.895 176.959 161.466 176.234C160.078 173.887 157.572 172.308 154.965 171.661C152.248 170.986 149.525 171.39 147.134 172.861C145.055 174.141 143.567 176.101 143.014 178.494C140.953 178.222 138.658 178.382 136.575 178.376L123.942 178.363L82.1794 178.333C81.8924 177.656 81.6106 176.965 81.2475 176.325C79.9239 173.991 77.7241 172.133 75.1132 171.438C71.9369 170.591 68.8763 171.244 66.0934 172.877C66.0148 169.119 65.8998 137.487 66.243 136.46C66.2623 136.402 66.2941 136.349 66.3172 136.292C66.4534 135.956 66.5528 135.725 66.7881 135.445Z" fill="#9492EE"/>
<path d="M138.617 135.503C146.67 135.449 154.722 135.489 162.774 135.622C162.615 135.902 162.485 136.038 162.225 136.228C160.546 136.56 157.215 136.301 155.333 136.306C150.991 136.316 146.53 136.53 142.2 136.302C141.446 136.267 140.7 136.17 139.962 136.011C142.642 135.92 145.289 136.119 147.963 136.107C150.728 136.096 153.883 135.693 156.587 136.126C156.935 136.182 156.764 136.217 157.076 136.008C156.147 135.645 144.968 135.702 143.066 135.701C141.696 135.7 139.91 135.958 138.617 135.503Z" fill="#6A62E0"/>
<path d="M168.366 143.519C168.345 143.438 168.322 143.356 168.303 143.274C168.234 142.97 168.151 142.604 168.356 142.339C168.808 141.753 169.715 141.657 170.399 141.578C172.158 141.373 174.043 141.516 175.815 141.525L186.109 141.562C187.609 141.562 189.195 141.664 190.683 141.476L190.876 140.828C190.922 141.394 191.053 142.064 190.965 142.621C189.675 142.25 170.134 142.374 169.559 142.679C169.287 142.824 169.114 143.083 169.04 143.381C169.002 143.54 168.98 143.702 168.953 143.864L168.366 143.519Z" fill="url(#paint1_linear_9217_60002)"/>
<path d="M171.487 169.993C174.849 169.886 178.24 170.004 181.606 170.016C182.638 170.02 183.954 169.802 184.947 170.02C185.336 170.104 185.459 170.222 185.675 170.542C185.669 170.956 185.746 171.168 185.479 171.504L184.728 171.532C182.233 171.525 172.325 171.925 170.802 171.42C170.579 171.346 170.584 171.234 170.484 171.039C170.531 170.759 170.563 170.566 170.715 170.318C170.877 170.056 171.199 170.063 171.487 169.993Z" fill="#FEFEFE"/>
<path d="M179.275 166.897L185.814 166.81C185.865 167.384 185.837 167.969 185.832 168.546L177.063 168.562C175.786 168.548 171.95 168.887 171.003 168.341C170.645 168.134 170.62 168.064 170.525 167.692L170.758 167.334C172.127 166.547 177.348 166.91 179.275 166.897Z" fill="#FEFEFE"/>
<path d="M170.715 172.932C172.581 172.861 184.879 172.58 185.836 173.301C186.001 173.799 185.96 174.174 185.904 174.69C184.119 174.766 171.89 174.983 170.902 174.459C170.601 173.967 170.686 173.483 170.715 172.932Z" fill="#FEFEFE"/>
<path d="M191.082 158.355C192.028 159.699 190.885 162.479 191.529 163.823C191.563 165.606 191.566 167.389 191.538 169.172L191.504 170.394C191.576 172.161 191.514 173.96 191.628 175.719C194.064 175.697 209.123 175.48 210.413 175.869C209.296 176.057 208.167 175.97 207.041 176.038L191.677 176.066C191.686 177.51 191.918 179.51 191.303 180.824C191.178 180.562 191.199 180.672 191.184 180.39C191.161 179.958 191.188 179.625 190.984 179.227C189.428 178.907 187.438 179.106 185.833 179.063C180.505 178.923 175.158 178.961 169.826 178.944C167.435 178.936 164.795 179.177 162.447 178.83C163.506 178.388 187.542 178.734 191.056 178.64C191.071 177.836 191.292 175.922 190.834 175.289C190.509 175.239 190.174 175.192 189.863 175.082C189.081 174.806 188.795 174.278 188.445 173.565C187.865 171.696 188.107 169.504 188.144 167.565C188.113 166.941 188.019 166.285 188.425 165.754C188.771 165.304 189.194 165.238 189.719 165.145C190.104 165.076 190.385 165.03 190.73 164.835C191.332 163.934 191.062 159.712 191.082 158.355Z" fill="#4633BF"/>
<path d="M188.939 167.638C189.443 166.799 190.056 166.178 190.99 165.864C190.859 168.743 191.089 171.665 190.866 174.531C190.184 174.202 189.649 173.883 189.112 173.342C188.798 171.496 188.936 169.507 188.939 167.638Z" fill="#FEFEFE"/>
<path d="M162.447 178.829C164.795 179.177 167.435 178.936 169.826 178.943C175.158 178.961 180.505 178.922 185.833 179.063C187.438 179.105 189.428 178.907 190.984 179.227C191.188 179.624 191.161 179.958 191.184 180.39C191.199 180.672 191.178 180.562 191.303 180.823C190.958 181.366 190.62 181.691 190.08 182.038C187.772 181.46 184.948 181.748 182.566 181.744L170.2 181.741C167.787 181.743 165.324 181.85 162.918 181.681C162.886 180.672 162.725 179.791 162.447 178.829Z" fill="#6A62E0"/>
<path d="M191.54 169.173C194.012 169.178 210.266 168.969 211.102 169.435C211.056 170.109 211.051 170.815 210.943 171.48C210.821 172.909 210.876 174.548 210.578 175.937L210.415 175.869C209.124 175.481 194.065 175.697 191.63 175.72C191.515 173.96 191.578 172.161 191.506 170.395L191.54 169.173Z" fill="url(#paint2_linear_9217_60002)"/>
<path d="M191.54 169.173C194.012 169.178 210.266 168.969 211.102 169.435C211.056 170.109 211.051 170.815 210.943 171.48C204.538 171.419 198.095 171.249 191.694 171.458C191.695 172.863 191.779 174.324 191.63 175.72C191.515 173.96 191.578 172.161 191.506 170.395L191.54 169.173Z" fill="#2585AD"/>
<path d="M191.518 149.723L205.786 149.71C207.767 149.713 209.895 149.543 211.855 149.718C212.164 149.746 212.28 149.756 212.508 149.951C211.718 156.418 211.787 162.964 211.101 169.434C210.265 168.968 194.011 169.177 191.539 169.172C191.567 167.389 191.563 165.606 191.529 163.822C191.758 159.18 191.605 154.373 191.518 149.723Z" fill="url(#paint3_linear_9217_60002)"/>
<path d="M68.7428 158.137C68.5755 154.34 68.7771 150.462 68.7983 146.656C68.8055 145.338 68.6017 144 68.6204 142.707C68.6247 142.398 68.6939 142.188 68.932 141.967C69.6401 141.308 71.5064 141.646 72.3969 141.687C71.6208 141.999 70.5565 141.45 69.7583 141.874L69.8007 142.023C70.7291 142.252 71.8689 142.12 72.8376 142.212L72.8491 142.229L72.5593 142.171L72.669 142.32L71.781 142.492C74.3721 142.519 76.9631 142.531 79.5542 142.53C80.7703 142.531 82.1086 142.639 83.3089 142.48C84.0971 142.372 85.2525 142.029 86.0033 142.295C86.3751 142.597 86.4717 142.775 86.7223 143.186C86.7501 143.231 86.7887 143.269 86.8221 143.311L86.8925 143.275L86.919 143.035C86.9461 142.802 86.9826 142.579 87.029 142.35C87.773 141.898 90.5347 141.93 91.4108 142.168C91.6564 142.234 91.8054 142.349 92.0043 142.489C95.395 142.614 98.8486 142.581 102.241 142.506C101.919 142.424 101.642 142.4 101.393 142.169C102.357 142.037 103.769 141.957 104.677 142.317C105.059 142.699 105.11 143.18 105.476 143.612C105.514 143.657 105.539 143.711 105.57 143.761C105.574 143.697 105.576 143.632 105.581 143.568C105.62 143.059 105.68 142.761 106.089 142.429C106.815 141.838 108.156 142.077 109.011 142.17L109.465 142.483C112.021 142.585 114.6 142.519 117.159 142.516C119.262 142.513 121.407 142.595 123.505 142.484C122.831 142.408 122.023 142.408 121.394 142.165C122.753 142.045 123.831 142.133 125.164 142.44C125.386 142.491 126.016 142.723 126.194 142.603L126.101 142.396C126.389 142.099 126.611 142.075 127.022 142.057C128.912 141.977 130.904 142.132 132.808 142.128C136.4 142.122 140.025 142.007 143.614 142.107C144.258 142.125 145.122 142.651 145.686 142.515C145.683 142.454 145.678 142.393 145.676 142.332C145.668 142.081 145.656 142.18 145.728 141.954L145.875 141.972C148.471 142.263 151.095 141.98 153.693 142.191C151.238 142.508 148.397 141.873 146.029 142.444C149.363 142.593 152.734 142.507 156.072 142.512C158.204 142.516 160.519 142.695 162.628 142.443C162.212 142.325 161.779 142.306 161.351 142.266L161.498 142.117L162.085 142.166C162.237 141.827 162.215 141.879 162.489 141.695C163.003 141.682 163.382 141.71 163.875 141.864C164.259 142.226 164.422 142.461 164.445 143.002C164.507 144.444 164.516 157.475 164.13 157.81C163.665 158.212 162.672 158.232 162.079 158.249C158.162 158.358 154.205 158.153 150.283 158.173L111.608 158.222L82.8582 158.22C78.1847 158.207 73.403 158.42 68.7428 158.137Z" fill="#5745CD"/>
<path d="M71.781 142.493C74.372 142.52 76.963 142.532 79.5541 142.531C80.7702 142.531 82.1086 142.64 83.3088 142.481L86.1902 142.515C86.2217 147.433 86.3174 152.405 86.1245 157.318L69.4758 157.336C69.2595 152.437 69.4422 147.461 69.3901 142.55C70.1836 142.501 70.9859 142.509 71.781 142.493Z" fill="#FEFEFE"/>
<path d="M162.628 142.443C162.895 142.478 163.141 142.54 163.4 142.613C163.927 143.376 163.629 155.599 163.5 157.312C161.047 157.485 158.557 157.416 156.098 157.422C152.755 157.454 149.411 157.443 146.068 157.388L146.029 142.444C149.363 142.594 152.734 142.507 156.072 142.513C158.204 142.517 160.519 142.696 162.628 142.443Z" fill="#FEFEFE"/>
<path d="M102.242 142.507L104.973 142.52C105.1 144.627 105.322 155.811 104.76 157.066C102.726 157.739 90.1792 157.37 87.1718 157.336C87.0487 152.417 87.1893 147.441 87.2569 142.521L92.0047 142.49C95.3953 142.616 98.849 142.582 102.242 142.507Z" fill="#FEFEFE"/>
<path d="M126.485 142.505C132.602 142.443 138.718 142.442 144.835 142.502C145.006 144.707 144.931 146.971 144.946 149.183C144.964 151.897 145.053 154.648 144.9 157.356C138.763 157.424 132.625 157.411 126.488 157.318C126.276 152.406 126.458 147.426 126.485 142.505Z" fill="#FEFEFE"/>
<path d="M123.504 142.484L125.365 142.513C125.543 147.39 125.543 152.431 125.34 157.306C121.816 157.432 118.275 157.41 114.75 157.423C111.896 157.434 109.007 157.519 106.158 157.341L106.139 142.584C107.235 142.478 108.362 142.504 109.465 142.483C112.021 142.585 114.6 142.519 117.159 142.515C119.262 142.513 121.406 142.595 123.504 142.484Z" fill="#FEFEFE"/>
<defs>
<linearGradient id="paint0_linear_9217_60002" x1="288.245" y1="160.118" x2="300.7" y2="161.272" gradientUnits="userSpaceOnUse">
<stop stop-color="#00612F"/>
<stop offset="1" stop-color="#04AD5F"/>
</linearGradient>
<linearGradient id="paint1_linear_9217_60002" x1="179.567" y1="143.305" x2="179.519" y2="141.498" gradientUnits="userSpaceOnUse">
<stop stop-color="#543BCD"/>
<stop offset="1" stop-color="#6C64E4"/>
</linearGradient>
<linearGradient id="paint2_linear_9217_60002" x1="209.761" y1="176.531" x2="192.589" y2="170.109" gradientUnits="userSpaceOnUse">
<stop stop-color="#4BCCA3"/>
<stop offset="1" stop-color="#5DF6BF"/>
</linearGradient>
<linearGradient id="paint3_linear_9217_60002" x1="212.142" y1="159.383" x2="191.83" y2="159.441" gradientUnits="userSpaceOnUse">
<stop stop-color="#40C792"/>
<stop offset="1" stop-color="#5DF2BE"/>
</linearGradient>
</defs>
</svg>
