<svg width="386" height="247" viewBox="0 0 386 247" fill="none" xmlns="http://www.w3.org/2000/svg">
<path d="M41.5283 39.9035C43.0131 39.8598 44.3544 40.1207 45.6154 40.9507C47.2845 42.0496 48.2479 43.8412 48.5749 45.7831C48.8931 47.672 48.5463 49.5655 47.3982 51.1193C46.128 52.8382 44.3557 53.5406 42.2989 53.818C40.8637 53.7266 39.6584 53.3672 38.453 52.5558C36.6083 51.3146 35.222 49.286 34.8903 47.071C34.6513 45.4734 35.11 43.8841 36.1197 42.6287C37.4997 40.912 39.4067 40.178 41.5283 39.9035Z" fill="#B5EBE2"/>
<path d="M14.9965 112.678C16.8605 115.862 18.3097 119.328 19.8307 122.686C21.7719 126.99 23.7883 131.259 25.8797 135.492L52.6324 187.826C53.871 190.9 55.4872 193.825 56.9989 196.771C59.1361 200.997 61.3282 205.194 63.575 209.363C64.2169 210.543 64.881 212.28 65.7253 213.285L65.8065 216.459C63.0418 216.448 45.8749 215.979 44.7449 216.823C44.0908 218.022 44.2844 219.689 44.6493 220.969C44.6847 221.092 44.7238 221.214 44.7613 221.337L45.3993 223.548C43.0576 224.478 39.6994 224.461 37.1767 224.793C33.7848 225.244 30.4055 225.775 27.0388 226.388C26.9849 225.063 19.68 213.016 18.4564 210.513C18.0956 209.769 17.7426 209.022 17.3973 208.27C17.052 207.519 16.7145 206.764 16.3848 206.006C16.0551 205.248 15.7333 204.486 15.4193 203.721C15.1054 202.957 14.7994 202.189 14.5013 201.418C14.2032 200.646 13.9132 199.872 13.6311 199.095C13.3491 198.318 13.0751 197.538 12.8092 196.755C12.5432 195.972 12.2854 195.186 12.0358 194.398C11.7861 193.61 11.5446 192.819 11.3112 192.026C11.0779 191.233 10.8528 190.438 10.6359 189.64C10.419 188.842 10.2104 188.042 10.0101 187.24C9.80977 186.438 9.61774 185.633 9.43402 184.827C9.25032 184.021 9.07497 183.213 8.90797 182.404C8.74097 181.594 8.58234 180.782 8.43209 179.969C8.28187 179.156 8.14008 178.342 8.00672 177.526C7.87333 176.71 7.74839 175.893 7.63189 175.074C7.51542 174.255 7.40741 173.436 7.30786 172.615C7.20834 171.794 7.1173 170.973 7.03476 170.15C6.95224 169.327 6.87822 168.504 6.8127 167.679C6.74719 166.855 6.6902 166.031 6.64175 165.205C6.59329 164.38 6.55337 163.554 6.52197 162.728C6.4906 161.901 6.46776 161.075 6.45345 160.248C6.43917 159.422 6.43343 158.595 6.43624 157.768C6.43904 156.942 6.45039 156.115 6.47028 155.288C6.49018 154.462 6.51862 153.636 6.5556 152.81C6.59258 151.984 6.6381 151.158 6.69217 150.333C6.74621 149.508 6.80878 148.684 6.87988 147.86C6.95098 147.036 7.03059 146.213 7.11872 145.391C7.20682 144.569 7.30343 143.748 7.40853 142.928C7.51364 142.108 7.6272 141.289 7.74923 140.471C7.87125 139.654 8.00172 138.837 8.14064 138.022C8.27955 137.207 8.42687 136.394 8.5826 135.582C8.73832 134.77 8.90243 133.959 9.07493 133.151C10.0112 128.832 11.147 124.567 12.4823 120.355C13.2763 117.901 14.2848 115.507 14.916 113.004L14.9965 112.678Z" fill="#B5EBE2"/>
<path d="M26.1447 164.023C27.1948 164.011 28.2335 164.118 29.188 164.588C29.3424 164.663 29.4923 164.745 29.6379 164.836C29.7838 164.926 29.9246 165.024 30.0601 165.129C30.1956 165.234 30.3252 165.346 30.449 165.464C30.573 165.583 30.6905 165.707 30.8017 165.838C30.9125 165.969 31.0163 166.105 31.1131 166.247C31.2099 166.388 31.299 166.535 31.3804 166.685C31.462 166.836 31.5355 166.991 31.6009 167.15C31.6665 167.308 31.7236 167.47 31.7722 167.634C32.1552 168.959 31.9199 170.36 31.2192 171.536C30.3105 173.062 29.0138 173.889 27.3286 174.319C25.9246 174.335 24.6633 174.232 23.4659 173.423C21.9322 172.386 21.4394 170.813 21.0566 169.104C21.2357 168.214 21.4608 167.345 21.9537 166.571C22.96 164.989 24.4162 164.46 26.1447 164.023Z" fill="#89EADB"/>
<path d="M52.6317 187.826C53.8703 190.9 55.4865 193.825 56.9982 196.771C59.1354 200.997 61.3275 205.194 63.5743 209.363C64.2162 210.543 64.8803 212.28 65.7246 213.285L65.8058 216.459C63.0411 216.448 45.8742 215.978 44.7442 216.823C44.0901 218.022 44.2837 219.689 44.6486 220.969C44.684 221.092 44.7231 221.214 44.7606 221.337C44.4134 221.326 43.9542 221.398 43.7172 221.122C42.9727 220.252 42.9361 218.875 42.7215 217.795C41.9369 213.855 41.1465 210.463 41.6188 206.397C42.511 198.708 46.6903 192.531 52.6317 187.826Z" fill="#89EADB"/>
<path d="M342.146 216.452C343.965 216.435 345.812 216.484 347.627 216.368C348.211 219.321 347.227 221.643 345.883 224.198C347.701 224.578 349.611 224.466 351.451 224.742C356.62 225.358 378.488 227.821 381.615 231.678C381.87 231.992 381.849 232.082 381.918 232.456C381.588 233.405 380.742 233.777 379.895 234.187C371.904 238.055 355.672 239.325 346.596 240.352C331.134 242.03 315.638 243.292 300.109 244.14C274.371 245.723 248.609 246.591 222.822 246.745C198.754 247.161 174.687 247.068 150.622 246.466C126.557 245.864 102.515 244.754 78.4973 243.134C63.4179 242.123 48.389 240.893 33.4304 238.672C27.6906 237.82 21.6401 237.134 16.1473 235.197C14.7207 234.695 12.5525 233.984 11.8357 232.552C11.6653 232.211 11.7398 231.976 11.7614 231.61C12.7989 229.744 15.865 228.872 17.8135 228.318C20.8029 227.468 23.9553 226.802 27.0374 226.388C30.4041 225.775 33.7834 225.244 37.1753 224.793C39.698 224.461 43.0562 224.478 45.3979 223.548L44.7599 221.337C44.7224 221.214 44.6833 221.092 44.6479 220.969C44.283 219.689 44.0894 218.022 44.7434 216.823C45.8735 215.978 63.0404 216.448 65.8051 216.459L72.7958 216.467L74.4498 216.441L74.1872 217.252L138.993 217.253L158.199 217.299C160.961 217.308 164.141 217.63 166.866 217.284C168.211 217.341 169.557 217.378 170.904 217.393C171.211 218.87 171.537 220.173 172.35 221.471C173.42 222.354 174.578 223.009 175.964 223.229C179.275 223.755 184.84 223.338 188.381 223.337C196.411 223.334 204.475 223.5 212.501 223.301C215.238 223.233 216.366 222.87 218.259 220.873C218.875 219.693 219.091 218.537 219.256 217.236C221.537 217.692 224.962 217.315 227.369 217.309L246.593 217.288C262.736 217.422 278.879 217.466 295.022 217.422L310.041 217.404C312.866 217.396 315.746 217.492 318.563 217.267C317.031 217.083 315.408 217.135 313.864 217.103L314.045 216.832C315.868 216.287 318.53 216.583 320.446 216.587L334.29 216.633C336.869 216.637 339.59 216.79 342.146 216.452Z" fill="#5BC0BE"/>
<path d="M342.145 216.452C343.965 216.435 345.812 216.484 347.626 216.368C348.211 219.321 347.227 221.643 345.883 224.198C342.722 228.11 339.669 230.684 334.507 231.196C333.819 231.264 333.125 231.286 332.433 231.304L189.755 231.276L123.764 231.348C112.902 231.348 101.967 231.618 91.1148 231.306C84.3354 231.597 77.4264 231.35 70.6323 231.366C65.4307 231.379 59.9653 231.728 54.7894 231.323C53.6257 231.231 52.3749 231.037 51.3088 230.555C48.2352 229.168 46.6376 226.521 45.4945 223.52L45.3977 223.548L44.7597 221.337C44.7222 221.214 44.6831 221.092 44.6477 220.969C44.2828 219.689 44.0892 218.022 44.7432 216.823C45.8733 215.978 63.0402 216.448 65.8049 216.459L72.7956 216.467L74.4496 216.441L74.187 217.252L138.993 217.253L158.198 217.299C160.96 217.308 164.141 217.63 166.866 217.284C168.211 217.341 169.557 217.378 170.904 217.393C171.211 218.87 171.537 220.173 172.35 221.471C173.42 222.354 174.578 223.009 175.964 223.229C179.275 223.755 184.84 223.338 188.381 223.337C196.41 223.334 204.475 223.5 212.5 223.301C215.238 223.233 216.366 222.87 218.259 220.873C218.875 219.693 219.09 218.537 219.256 217.236C221.537 217.692 224.961 217.315 227.369 217.309L246.593 217.288C262.736 217.422 278.879 217.466 295.022 217.422L310.041 217.404C312.866 217.396 315.746 217.492 318.562 217.267C317.03 217.083 315.408 217.135 313.864 217.103L314.045 216.832C315.868 216.287 318.53 216.583 320.446 216.587L334.289 216.633C336.869 216.637 339.59 216.79 342.145 216.452Z" fill="url(#paint0_linear_9217_59895)"/>
<path d="M318.563 217.267C327.984 217.349 337.506 217.008 346.911 217.502C346.837 218.695 346.834 219.974 346.255 221.051C345.95 219.964 346.763 219.089 346.229 218.006C345.558 217.717 344.846 217.762 344.128 217.744C343.939 218.367 343.812 218.831 343.353 219.321C341.413 219.598 339.574 220.317 337.601 220.435C335.351 220.571 333.136 220.198 330.883 220.267C324.532 220.462 318.175 221.108 311.827 221.282C307.043 221.413 302.248 221.247 297.462 221.322C290.444 221.433 283.46 221.773 276.432 221.774C274.134 221.775 271.814 221.839 269.519 221.738C268.158 221.678 266.814 221.507 265.45 221.524C262.232 221.564 259.015 222.032 255.784 222.106C251.779 222.198 247.726 222.288 243.722 222.145C241.943 222.081 240.173 221.839 238.395 221.794C235.396 221.719 223.056 222.119 221.091 220.86C220.669 220.589 220.45 220.327 219.914 220.265C218.982 220.156 218.95 220.296 218.26 220.873C218.876 219.693 219.091 218.537 219.257 217.236C221.538 217.692 224.963 217.315 227.37 217.309L246.594 217.288C262.737 217.422 278.88 217.466 295.023 217.422L310.042 217.404C312.867 217.396 315.747 217.492 318.563 217.267Z" fill="#FEFEFE"/>
<path d="M74.1869 217.252L138.993 217.253L158.198 217.299C160.96 217.308 164.141 217.63 166.866 217.284C168.211 217.341 169.557 217.378 170.904 217.393C171.211 218.87 171.537 220.173 172.35 221.471C172.267 221.478 172.184 221.481 172.101 221.49C170.686 221.655 169.324 222.281 167.895 222.369C165.143 222.54 162.289 222.332 159.525 222.343C156.351 222.356 153.189 222.539 150.023 222.577C147.766 222.603 145.496 222.436 143.235 222.422L100.433 222.23L62.5015 222.573C58.9219 222.606 49.8109 223.43 46.6982 222.429L46.1359 222.662C45.6658 221.274 44.7857 218.963 45.3387 217.558C47.5774 216.863 59.1277 217.258 62.3293 217.26L74.1869 217.252Z" fill="#FEFEFE"/>
<path d="M342.145 216.452C343.965 216.435 345.812 216.484 347.626 216.368C348.211 219.321 347.227 221.643 345.883 224.198C342.722 228.11 339.669 230.684 334.507 231.196C333.819 231.264 333.125 231.286 332.433 231.304L189.755 231.276L123.764 231.348C112.902 231.348 101.967 231.618 91.1148 231.306C84.3354 231.597 77.4264 231.35 70.6323 231.366C65.4307 231.379 59.9653 231.728 54.7894 231.323C53.6257 231.231 52.3749 231.037 51.3088 230.555C48.2352 229.168 46.6376 226.521 45.4945 223.52L45.3977 223.548L44.7597 221.337C44.7222 221.214 44.6831 221.092 44.6477 220.969C44.2828 219.689 44.0892 218.022 44.7432 216.823C45.8733 215.978 63.0402 216.448 65.8049 216.459L72.7956 216.467L74.4496 216.441L74.187 217.252L62.3293 217.26C59.1278 217.258 47.5774 216.863 45.3388 217.558C44.7857 218.963 45.6658 221.274 46.1359 222.662L46.1393 222.802C47.0273 224.886 48.0858 227.347 50.1468 228.533C54.5125 229.562 64.1879 228.703 69.1243 228.592C76.5788 228.47 84.0337 228.389 91.489 228.346L232.41 228.342C244.372 228.371 256.319 228.255 268.28 228.49C270.949 228.543 274.353 228.086 276.919 228.783L308.97 228.843C313.043 228.867 317.25 228.613 321.309 228.842C324.93 228.854 328.551 228.833 332.172 228.778C334.368 228.735 336.996 228.401 339.144 228.751C339.264 228.709 339.387 228.674 339.505 228.624C342.373 227.419 345.273 223.953 346.254 221.051C346.833 219.974 346.836 218.695 346.91 217.502C337.505 217.008 327.983 217.349 318.562 217.267C317.03 217.083 315.408 217.135 313.864 217.103L314.045 216.832C315.868 216.287 318.53 216.583 320.446 216.587L334.289 216.633C336.869 216.637 339.59 216.79 342.145 216.452Z" fill="#440E9A"/>
<path d="M74.4507 216.441L74.188 217.252L62.3304 217.26C61.9845 217.074 61.774 216.956 61.4941 216.672C65.0749 216.494 69.3367 217.256 72.7966 216.467L74.4507 216.441Z" fill="#331378"/>
<path d="M321.309 228.842C324.93 228.854 328.551 228.833 332.172 228.779C334.368 228.736 336.996 228.401 339.144 228.751C338.216 229.26 337.356 229.578 336.348 229.876C328.63 230.285 320.739 229.891 313 229.87C301.733 229.839 290.443 230.025 279.18 229.817C279.337 229.645 279.474 229.605 279.714 229.571C282.22 229.212 286.946 229.554 289.667 229.558C295.307 229.604 300.947 229.586 306.586 229.504C311.417 229.474 316.518 229.509 321.309 228.842Z" fill="#9492EE"/>
<path d="M50.1465 228.533C54.5122 229.562 64.1876 228.704 69.124 228.592C76.5785 228.47 84.0333 228.389 91.4887 228.346L232.41 228.342C244.371 228.371 256.319 228.255 268.279 228.49C270.949 228.543 274.353 228.086 276.919 228.783L308.97 228.843C313.043 228.867 317.249 228.613 321.309 228.842C316.517 229.509 311.417 229.474 306.586 229.504C300.946 229.586 295.307 229.604 289.667 229.558C286.945 229.553 282.22 229.212 279.714 229.571C279.474 229.605 279.337 229.645 279.179 229.816C268.039 230.176 256.787 229.878 245.636 229.874C229.326 229.869 212.994 230.03 196.686 229.805L101.302 229.892C85.6223 229.808 69.9434 229.869 54.2651 230.076C52.7348 229.937 51.4057 229.393 50.1465 228.533Z" fill="#B5EBE2"/>
<path d="M66.1538 49.3589C66.012 44.8876 65.1736 26.9421 66.5326 23.9392C67.0393 22.8188 68.0823 21.9552 69.2439 21.5587C70.9909 20.9623 89.6342 21.3091 93.4338 21.2961C113.93 21.2245 134.486 20.8184 154.977 21.1623C156.001 21.1795 157.349 21.1235 158.288 21.5562C159.958 22.3268 161.183 23.8954 161.822 25.5886C161.703 26.2813 161.674 26.8865 161.724 27.5877C161.182 28.6205 161.402 47.3261 161.287 50.1115L161.602 49.7874C163.148 50.0323 165.108 51.4246 166.537 52.1674L166.538 76.9062C166.54 81.5055 166.422 86.1502 166.602 90.7449L161.271 90.7486C155.076 90.7571 148.799 90.9671 142.613 90.6346C126.911 90.2596 111.126 90.4932 95.4187 90.5997C92.9658 90.6443 90.5133 90.6363 88.061 90.5757C85.503 90.7567 83.3527 91.43 80.947 92.2878C77.7821 94.4022 75.5275 96.9578 74.7686 100.775C74.1963 103.656 74.5527 106.931 74.5978 109.87C74.6906 114.85 74.7539 119.83 74.7876 124.81L74.7135 177.239L74.7295 193.478C74.7396 197.041 74.8436 200.66 74.6091 204.213C74.4934 207.989 74.2535 212.021 74.5952 215.774L74.4505 216.441L72.7964 216.467L65.8058 216.459L65.7245 213.285C64.8803 212.28 64.2161 210.542 63.5743 209.363C61.3274 205.194 59.1354 200.997 56.9982 196.771C55.4864 193.825 53.8703 190.9 52.6317 187.826L25.879 135.492C23.7875 131.259 21.7712 126.99 19.8299 122.686C18.309 119.328 16.8598 115.862 14.9958 112.678C11.4477 105.229 7.60196 97.9165 4.01832 90.4827C2.87629 88.1136 0.0797278 83.6738 1.08864 81.0438C1.49882 79.9744 2.29048 78.9971 3.25684 78.3805C5.65004 76.854 8.55233 75.8039 11.1548 74.6545C14.8816 73.0115 18.5903 71.3285 22.281 69.6058C35.3086 63.5646 48.2289 57.0108 61.4952 51.5184C63.0325 50.7654 64.5854 50.0455 66.1538 49.3589Z" fill="#57DBC6"/>
<path d="M65.9839 92.728C66.2718 93.635 66.2423 94.744 66.1641 95.6868L63.5382 96.7798L63.4734 96.6295C63.101 95.789 63.1464 95.0075 63.1426 94.1072L63.3644 93.88C64.2306 93.4801 65.1038 93.0961 65.9839 92.728Z" fill="#5BC0BE"/>
<path d="M65.0723 164.38C65.406 164.884 65.733 165.394 66.0811 165.888C66.725 167.465 66.9123 176.07 66.462 177.862C66.1207 178.06 65.7831 178.248 65.4258 178.416C65.2326 173.729 65.0756 169.074 65.0723 164.38Z" fill="#B5EBE2"/>
<path d="M65.7304 86.4255C66.2926 88.2243 65.8579 90.7988 65.985 92.7281C65.1048 93.0962 64.2316 93.4802 63.3655 93.88C63.3672 91.7883 63.2775 89.6103 63.0195 87.5354L63.2695 87.3759L65.7304 86.4255Z" fill="#B5EBE2"/>
<path d="M63.5332 143.139C64.4335 144.734 65.2188 146.382 66.0164 148.029C66.3379 149.518 66.1839 151.282 66.1936 152.808C66.2121 155.784 66.2028 158.761 66.3316 161.735C65.3889 161.215 65.0812 160.613 64.7327 159.627C63.8098 156.741 63.8624 153.519 63.4878 150.521C63.3051 149.059 62.9053 147.6 62.7988 146.138C63.3577 146.827 63.4933 148.171 63.8384 149.036L64.67 149.113L64.8859 149.398C63.5989 153.221 64.2218 158.031 65.9406 161.622L65.9629 160.412C65.9953 158.653 65.0177 157.143 64.9659 155.342C64.9095 153.386 66.1094 149.746 65.7845 148.32C65.5703 147.379 64.6427 146.487 64.3182 145.524C64.0795 144.817 63.6439 144.173 63.3375 143.485L63.5332 143.139Z" fill="#1AD4A5"/>
<path d="M66.1588 137.815C66.4782 138.834 66.4092 147.251 66.0161 148.029C65.2186 146.383 64.4332 144.734 63.533 143.14C63.0481 142.02 62.408 140.929 61.8457 139.843C62.5397 139.565 63.1992 139.263 63.86 138.913L66.1588 137.815Z" fill="#FEFEFE"/>
<path d="M66.1647 95.6868C66.1748 98.2675 66.1045 100.874 66.3439 103.446L63.3385 104.749C63.3798 102.126 63.1171 99.5297 63.3255 96.9056L63.5388 96.7798L66.1647 95.6868Z" fill="#B5EBE2"/>
<path d="M66.1516 126.807C66.5531 127.773 66.6264 136.7 66.2425 137.658C66.2206 137.714 66.1865 137.763 66.1583 137.815L63.8595 138.913C63.3339 136.487 63.8574 130.602 63.9008 127.842L64.051 127.736C64.7581 127.498 65.4673 127.113 66.1516 126.807Z" fill="#1AD4A5"/>
<path d="M65.9658 76.7471C65.8509 78.8704 65.5693 81.1852 65.911 83.2937C65.9498 84.1161 66.217 85.7508 65.7305 86.4254L63.2697 87.3757C62.8534 86.7575 62.9187 85.5786 62.8177 84.8312L62.8572 84.7339C62.6228 82.521 62.8799 80.298 62.5449 78.0875L62.6135 77.9705L65.9658 76.7471Z" fill="#B5EBE2"/>
<path d="M65.9098 83.2937C65.9485 84.1161 66.2158 85.7507 65.7293 86.4254L63.2684 87.3757C62.8522 86.7575 62.9174 85.5786 62.8164 84.8311L62.856 84.7339C63.8858 84.3189 64.9043 83.7697 65.9098 83.2937Z" fill="#5BC0BE"/>
<path d="M63.339 104.749L66.3445 103.446C66.3986 106.703 66.4111 109.959 66.3819 113.216L63.6198 114.507C62.7414 113.037 63.1762 106.786 63.1745 104.857L63.339 104.749Z" fill="#1AD4A5"/>
<path d="M66.3822 113.216C66.3788 115.027 66.6027 126.182 66.1793 126.783C66.1726 126.793 66.1621 126.799 66.1536 126.806C65.4693 127.112 64.7601 127.498 64.0531 127.736C64.125 126.654 63.9441 115.769 63.7825 115.167C63.7063 114.884 63.6608 114.849 63.5156 114.639L63.62 114.507L66.3822 113.216Z" fill="#B5EBE2"/>
<path d="M65.9212 63.4634C65.9776 66.84 65.9259 70.2163 65.9734 73.5925C66.2238 74.5045 66.215 75.8357 65.9658 76.7473L62.6136 77.9708C62.5631 77.0567 62.4878 76.1775 62.3232 75.2764C61.8358 72.0748 62.7639 68.5715 61.7378 65.4617L61.7285 65.3548C63.149 64.7769 64.5324 64.1128 65.9212 63.4634Z" fill="#B5EBE2"/>
<path d="M65.9725 73.5925C66.2229 74.5046 66.2141 75.8358 65.9649 76.7474L62.6127 77.9708C62.5622 77.0567 62.4868 76.1775 62.3223 75.2764L65.9725 73.5925Z" fill="#5BC0BE"/>
<path d="M66.1536 49.3591C66.1628 51.3389 66.5673 62.396 65.9204 63.4634C64.5315 64.1128 63.1481 64.7769 61.7277 65.3548C61.3085 60.8376 61.5496 56.0661 61.4949 51.5186C63.0322 50.7655 64.5851 50.0457 66.1536 49.3591Z" fill="#5BC0BE"/>
<path d="M65.9405 205.06C68.8054 204.132 71.6181 203.86 74.6092 204.213C74.4935 207.989 74.2536 212.021 74.5953 215.774L74.4505 216.442L72.7965 216.467L65.8058 216.459L65.7246 213.285C66.0807 210.602 65.8071 207.774 65.9405 205.06Z" fill="#B5EBE2"/>
<path d="M74.7207 83.3391L87.5829 83.3736L88.0602 90.5756C85.5022 90.7565 83.3519 91.4299 80.9462 92.2877C78.8903 92.1782 76.8158 92.2809 74.7582 92.3281L74.7207 83.3391Z" fill="#FEFEFE"/>
<path d="M63.5146 114.64C63.6598 114.849 63.7053 114.885 63.7815 115.168C63.9431 115.769 64.1241 126.655 64.0521 127.736L63.9018 127.843C61.7739 128.745 59.7672 129.786 57.7382 130.887C55.9961 127.129 54.2064 123.393 52.3691 119.679C56.1831 118.272 59.7878 116.274 63.5146 114.64Z" fill="#FEFEFE"/>
<path d="M64.7441 163.721C64.8809 163.944 65.0168 164.122 65.0728 164.38C65.0762 169.074 65.2331 173.729 65.4263 178.416C63.5926 179.391 61.7163 180.321 59.9971 181.489C57.6486 177.624 55.3368 173.401 53.4824 169.276C56.7265 168.146 61.9806 165.741 64.7441 163.721Z" fill="#FEFEFE"/>
<path d="M78.9401 57.4014C81.7877 57.2819 84.6445 57.3063 87.4947 57.2932C87.5634 61.3964 87.5948 65.5001 87.589 69.6041L83.6786 69.5544L74.8008 69.5216C74.8513 65.5217 74.8516 61.5217 74.8016 57.5217L78.9401 57.4014Z" fill="#FEFEFE"/>
<path d="M35.7218 102.921L36.154 103.073C38.3485 106.319 39.8211 110.38 41.4069 113.963C37.6999 115.751 33.8376 117.226 30.1183 119.019L30.032 119.074C28.8052 117.851 25.4311 110.346 24.3789 108.269C28.0232 106.279 32.0085 104.825 35.7218 102.921Z" fill="#FEFEFE"/>
<path d="M45.3519 123.132L45.7324 123.209C47.0042 124.672 49.9642 131.879 51.231 134.23C47.5362 136.111 43.5072 137.626 39.7063 139.315L39.3679 139.34C38.7947 138.827 34.9206 130.26 33.9219 128.552C37.2686 126.522 41.7408 124.858 45.3519 123.132Z" fill="#FEFEFE"/>
<path d="M74.8297 35.8922C79.0826 35.9633 83.3553 35.8623 87.6099 35.8442L87.601 48.427C83.3421 48.3824 79.0832 48.3873 74.8242 48.4417C74.85 44.2586 74.8519 40.0754 74.8297 35.8922Z" fill="#FEFEFE"/>
<path d="M26.4035 82.946L26.7941 82.9907C28.5125 84.6455 31.3449 91.047 32.483 93.4901C28.6552 95.3718 24.8458 97.3175 20.9673 99.0919L20.7092 99.1525C19.8349 98.5679 16.0093 90.1139 15.1953 88.4502C18.8354 86.3509 22.5866 84.6784 26.4035 82.946Z" fill="#FEFEFE"/>
<path d="M55.1908 143.187C56.7783 145.146 59.3831 151.766 61.0952 154.593C57.0237 156.234 52.9804 158.167 49.2254 160.444C48.3596 159.67 44.2208 150.58 43.3066 148.865C47.2729 146.995 51.3276 145.263 55.1908 143.187Z" fill="#FEFEFE"/>
<path d="M161.287 50.1114L161.602 49.7874C163.148 50.0323 165.109 51.4245 166.537 52.1674L166.539 76.9062C166.54 81.5055 166.422 86.1502 166.602 90.7448L161.271 90.7486C161.57 77.2277 161.285 63.6391 161.287 50.1114Z" fill="#5BC0BE"/>
<path d="M95.3965 83.6299L125.094 83.4581C131.039 83.4173 137.349 83.0162 143.254 83.7376C143.347 85.1656 143.883 89.4678 143.074 90.5519L142.612 90.6348C126.91 90.2598 111.126 90.4934 95.4179 90.5999L95.3965 83.6299Z" fill="#FEFEFE"/>
<path d="M33.3438 77.8824C35.7191 76.6038 38.3058 75.5937 40.7645 74.4742C47.6837 71.3252 54.7391 68.4368 61.7366 65.4617C62.7626 68.5715 61.8346 72.0748 62.322 75.2764C62.4865 76.1775 62.5619 77.0567 62.6124 77.9708L62.5438 78.0878C62.8788 80.2982 62.6216 82.5213 62.8561 84.7342L62.8165 84.8314C62.9175 85.5789 62.8523 86.7577 63.2685 87.376L63.0185 87.5355C63.2765 89.6104 63.3662 91.7884 63.3645 93.8801L63.1427 94.1074C63.1465 95.0077 63.101 95.7892 63.4735 96.6297L63.5383 96.7799L63.3249 96.9058C63.1166 99.5299 63.3792 102.126 63.338 104.75L63.1734 104.858C61.4142 105.444 59.6705 106.367 57.9731 107.122C54.864 108.526 51.7303 109.872 48.5721 111.162C46.8903 106.96 44.6374 102.869 42.7527 98.7378C41.3512 95.6667 40.132 92.5144 38.7662 89.4265C37.0483 85.5414 35.172 81.7165 33.3438 77.8824Z" fill="#FEFEFE"/>
<path d="M63.3252 96.9055C60.5495 98.0537 54.3829 101.087 51.6826 101.37C51.2188 101.158 50.9949 100.999 50.7954 100.507C50.6961 100.262 50.4882 99.6526 50.6346 99.4173C51.1746 98.5512 61.4296 94.7759 63.1429 94.1072C63.1467 95.0074 63.1013 95.789 63.4737 96.6295L63.5385 96.7797L63.3252 96.9055Z" fill="#1AD4A5"/>
<path d="M46.3828 91.4471L62.8166 84.8311C62.9176 85.5785 62.8523 86.7574 63.2686 87.3756L63.0186 87.5352C59.7686 88.5305 49.9101 93.6159 47.8041 93.6757C47.0979 93.1226 46.7746 92.235 46.3828 91.4471Z" fill="#1AD4A5"/>
<path d="M62.3217 75.2761C62.4863 76.1772 62.5616 77.0564 62.6121 77.9705L62.5435 78.0876C57.004 80.157 51.6623 82.7828 46.1409 84.856C45.1073 85.244 44.2592 85.3863 43.242 84.9149C42.875 84.4284 42.8649 84.4604 42.9229 83.8573C43.8425 82.1868 59.275 76.4798 62.3217 75.2761Z" fill="#1AD4A5"/>
<path d="M122.392 34.2627C125.175 34.2118 141.778 33.6802 142.895 34.6949C143.122 35.4121 143.232 36.0695 143.282 36.8208C143.601 41.5661 143.273 46.5782 143.283 51.3454C143.295 57.3328 143.653 63.5398 143.157 69.5027C134.151 69.9972 124.995 69.6676 115.973 69.6618C109.032 69.5947 102.09 69.5794 95.1485 69.6159L95.1641 46.3047C95.1599 42.3531 95.0307 38.3801 95.1847 34.4319C98.6838 34.1945 102.237 34.2829 105.744 34.2779L122.392 34.2627Z" fill="#FEFEFE"/>
<path d="M101.328 43.0198L101.674 43.0097C108.724 42.8675 115.806 43.0156 122.859 43.011C127.178 43.0085 131.761 42.7025 136.049 43.0771C136.709 43.1347 137.095 43.1158 137.57 43.5733C137.735 44.2302 137.654 44.7286 137.551 45.3813C134.985 45.6229 102.407 45.6587 101.953 45.4882C101.827 45.4411 101.735 45.3312 101.625 45.2525C101.352 44.4941 101.344 43.8207 101.328 43.0198Z" fill="#1AD4A5"/>
<path d="M101.207 51.6492C104.933 51.6261 136.596 51.3689 137.523 51.9396C137.798 52.7014 137.682 53.4013 137.613 54.195C133.617 54.6189 129.235 54.2199 125.194 54.1997L101.229 54.1555C101.2 53.3217 101.212 52.4838 101.207 51.6492Z" fill="#1AD4A5"/>
<path d="M117.563 60.3583C124.239 60.2821 130.922 60.3558 137.598 60.3655C137.667 61.2236 137.652 62.1037 137.676 62.9652L121.604 62.9867C118.884 62.9854 103.205 63.3225 101.903 62.8486C101.341 62.6436 101.216 62.4345 100.957 61.9172C100.969 61.3444 101.128 61.0452 101.379 60.5452C103.26 60.0006 114.868 60.3604 117.563 60.3583Z" fill="#1AD4A5"/>
<path d="M166.192 24.8854C166.27 24.8542 166.349 24.8239 166.426 24.7915C169.416 23.5428 173.297 20.8063 176.31 19.1573C182.088 15.9966 188.065 13.3063 194.158 10.8131C227 -2.62909 266.311 -3.97841 299.441 9.24788C334.597 23.2835 360.377 47.5354 375.244 82.4079C376.29 84.8612 377.126 87.4504 378.008 89.9689C386.715 114.819 387.192 141.071 380.76 166.497C379.329 172.15 377.697 177.866 375.477 183.265C372.837 189.684 369.814 196.19 366.373 202.212C364.89 204.808 363.187 207.266 361.633 209.818C358.545 214.887 355.524 219.92 351.526 224.362L351.452 224.742C349.612 224.466 347.702 224.578 345.884 224.198C347.228 221.643 348.212 219.322 347.628 216.368C345.813 216.484 343.966 216.435 342.147 216.452C335.734 216.133 329.223 216.537 322.792 216.402C320.679 216.498 318.521 216.428 316.404 216.436C316.365 210.578 316.377 204.72 316.44 198.863L316.409 108.245C316.419 103.009 316.07 98.5424 312.134 94.654C310.457 92.997 308.578 91.7382 306.27 91.1633C302.527 90.2302 297.945 90.7344 294.08 90.7382L275.538 90.758C253.126 91.0349 230.672 90.7146 208.257 90.694L190.661 90.6397C186.902 90.6195 183.061 90.4777 179.313 90.7323C175.105 90.5303 170.818 90.7222 166.602 90.7449C166.422 86.1503 166.54 81.5056 166.539 76.9063L166.537 52.1675C165.109 51.4246 163.148 50.0324 161.602 49.7875L161.287 50.1115C161.402 47.3262 161.183 28.6206 161.724 27.5878C161.674 26.8866 161.703 26.2814 161.822 25.5886C163.26 25.204 164.694 24.8534 166.192 24.8854Z" fill="#B5EBE2"/>
<path d="M361.974 124.486C362.747 124.378 363.503 124.302 364.267 124.508C365.633 124.875 366.815 125.71 367.479 126.975C368.09 128.139 368.263 129.542 367.87 130.805C367.321 132.569 366.035 133.482 364.497 134.332C363.928 134.346 363.337 134.367 362.779 134.235C361.245 133.872 359.852 132.84 359.095 131.456C358.478 130.326 358.303 128.997 358.703 127.764C359.233 126.128 360.5 125.223 361.974 124.486Z" fill="#89EADB"/>
<path d="M256.433 34.1859C257.277 34.1076 258.135 34.0201 258.958 34.2785C260.327 34.7078 261.523 35.7596 262.163 37.0361C262.786 38.2793 262.911 39.7486 262.406 41.0545C261.755 42.7376 260.499 43.5368 258.912 44.2338C257.988 44.2826 257.003 44.3495 256.112 44.0562C254.732 43.6021 253.506 42.5815 252.907 41.2473C252.377 40.0659 252.3 38.6838 252.77 37.47C253.467 35.6695 254.77 34.925 256.433 34.1859Z" fill="#57DBC6"/>
<path d="M336.568 78.4128C337.596 78.4789 338.498 78.5694 339.411 79.0837C339.558 79.1645 339.699 79.2525 339.836 79.3476C339.974 79.4427 340.106 79.5446 340.232 79.6532C340.36 79.7617 340.481 79.8765 340.596 79.9974C340.711 80.1181 340.82 80.2445 340.923 80.3766C341.025 80.5085 341.121 80.6451 341.209 80.7866C341.298 80.9283 341.379 81.074 341.453 81.2238C341.526 81.3734 341.592 81.5265 341.651 81.683C341.709 81.8396 341.759 81.9987 341.802 82.1603C341.846 82.3284 341.882 82.4982 341.909 82.67C341.936 82.8417 341.955 83.0144 341.965 83.188C341.975 83.3617 341.976 83.5354 341.968 83.7091C341.96 83.883 341.943 84.056 341.918 84.228C341.892 84.4 341.858 84.5703 341.815 84.739C341.772 84.9073 341.721 85.0733 341.662 85.2369C341.602 85.4002 341.534 85.5601 341.459 85.7166C341.382 85.8729 341.299 86.0251 341.208 86.1733C340.302 87.6648 338.956 88.4271 337.309 88.8614C335.893 88.8138 334.348 88.1127 333.356 87.1026C332.347 86.0756 331.772 84.6295 331.853 83.1876C331.961 81.2887 332.913 80.1136 334.26 78.9027C335.013 78.6578 335.789 78.5454 336.568 78.4128Z" fill="#89EADB"/>
<path d="M166.25 25.189C166.909 26.545 166.434 48.6858 166.537 52.1672C165.109 51.4244 163.148 50.0321 161.602 49.7872L161.287 50.1113C161.402 47.3259 161.183 28.6203 161.724 27.5875C163.22 26.7176 164.663 25.8914 166.25 25.189Z" fill="#1AD4A5"/>
<path d="M226.235 37.3786C227.367 37.289 228.383 37.4451 229.424 37.9177C231.133 38.6938 232.396 40.1223 233.009 41.8933C233.075 42.0813 233.131 42.2721 233.178 42.4657C233.225 42.6593 233.262 42.8547 233.289 43.0519C233.316 43.2495 233.333 43.4477 233.34 43.6466C233.347 43.8458 233.345 44.0448 233.332 44.2434C233.319 44.4424 233.296 44.64 233.263 44.8364C233.23 45.0328 233.188 45.2271 233.136 45.4193C233.083 45.6115 233.022 45.8007 232.95 45.9867C232.879 46.1727 232.799 46.3547 232.709 46.5325C231.709 48.5271 230.059 49.4972 228.031 50.1828C226.215 50.3444 224.392 49.9563 222.923 48.8402C221.562 47.8065 220.71 46.2716 220.479 44.5843C220.238 42.8192 220.617 40.8887 221.766 39.4922C222.976 38.0234 224.431 37.5899 226.235 37.3786Z" fill="#89EADB"/>
<path d="M335.877 116.917C336.223 116.884 336.57 116.867 336.918 116.864C337.266 116.862 337.613 116.874 337.959 116.902C338.306 116.93 338.65 116.972 338.993 117.03C339.336 117.087 339.676 117.159 340.013 117.246C340.349 117.333 340.682 117.434 341.01 117.55C341.338 117.665 341.66 117.795 341.976 117.938C342.293 118.082 342.603 118.239 342.906 118.409C343.209 118.58 343.504 118.763 343.792 118.959C346.85 121.027 349.191 124.254 349.839 127.919C350.417 131.192 349.539 134.67 347.631 137.373C345.517 140.368 342.513 141.998 338.961 142.604C335.652 142.818 332.606 142.373 329.826 140.405C326.991 138.398 324.928 135.259 324.418 131.803C323.93 128.487 324.945 124.848 326.912 122.149C329.15 119.078 332.175 117.517 335.877 116.917Z" fill="#57DBC6"/>
<path d="M356.006 151.685C358.658 150.072 361.587 148.758 364.372 147.378C364.679 147.813 364.582 148.07 364.574 148.585C366.633 165.032 360.223 196.501 350.445 210.342C350.42 210.378 350.39 210.41 350.362 210.444C349.318 212.243 347.69 214.237 347.627 216.368C345.812 216.484 343.965 216.435 342.146 216.452C335.733 216.133 329.222 216.537 322.791 216.402C320.678 216.498 318.52 216.428 316.403 216.436C316.364 210.578 316.376 204.72 316.439 198.863C317.117 198.611 318.767 193.025 319.394 191.926C319.403 191.877 319.406 191.827 319.42 191.779C320.031 189.617 321.254 187.282 322.299 185.297C328.943 172.669 343.171 157.884 356.006 151.685Z" fill="#1AD4A5"/>
<path d="M316.439 198.863C317.117 198.611 318.767 193.025 319.394 191.927C319.384 192.065 319.377 192.203 319.364 192.34C319.276 193.277 318.842 194.241 318.529 195.132C317.48 198.121 316.801 200.286 316.847 203.5C316.86 204.45 316.796 205.52 317.031 206.44C318.079 206.465 318.537 204.818 320.098 205.177C320.777 205.333 323.959 206.82 324.255 206.528C325.633 205.162 327.379 199.831 328.814 199.212L328.722 199.408C327.527 201.908 320.242 214.095 320.453 216.114L321.06 216.005L320.926 216.122C321.561 216.13 322.243 216.092 322.869 216.175C323.521 216.192 324.171 216.104 324.819 216.039C327.354 211.544 329.942 206.792 332.83 202.521C332.836 202.599 332.853 202.677 332.848 202.756C332.743 204.484 329.495 208.124 328.925 210.077C329.356 210.281 329.215 210.285 329.72 210.173C331.526 209.774 337.302 213.543 338.698 214.576C339.149 214.909 339.428 215.144 339.699 215.631C339.537 216.11 339.682 215.955 339.355 216.167L339.212 216.008L339.314 216.21L339.956 216.082L339.853 216.161C342.201 216.042 344.553 216.122 346.902 215.982C348.224 214.168 348.31 211.754 350.362 210.445C349.318 212.243 347.69 214.237 347.627 216.369C345.812 216.484 343.965 216.435 342.146 216.452C335.733 216.134 329.222 216.537 322.791 216.403C320.678 216.498 318.52 216.428 316.403 216.436C316.364 210.578 316.376 204.721 316.439 198.863Z" fill="#57DBC6"/>
<path d="M166.537 52.167C175.943 55.8757 184.971 58.318 195.053 59.3731C203.211 60.2271 211.424 59.8437 219.598 60.3609C236.554 61.4333 253.805 67.6959 266.022 79.8102C268.11 81.8805 274.25 88.146 275.39 90.3884C275.45 90.5067 275.489 90.6346 275.538 90.7575C253.126 91.0344 230.672 90.7142 208.257 90.6935L190.661 90.6392C186.902 90.619 183.061 90.4772 179.313 90.7318C175.105 90.5298 170.818 90.7217 166.602 90.7444C166.422 86.1498 166.54 81.5051 166.539 76.9058L166.537 52.167Z" fill="#57DBC6"/>
<path d="M95.4183 90.6C111.126 90.4936 126.911 90.26 142.612 90.635C148.798 90.9675 155.076 90.7574 161.271 90.749L166.602 90.7452C170.817 90.7225 175.104 90.5306 179.313 90.7326C183.061 90.478 186.901 90.6198 190.661 90.64L208.256 90.6943C230.672 90.715 253.125 91.0352 275.537 90.7583L294.079 90.7385C297.944 90.7347 302.526 90.2305 306.269 91.1636C308.577 91.7385 310.457 92.9973 312.133 94.6543C316.069 98.5427 316.419 103.009 316.408 108.245L316.439 198.863C316.377 204.721 316.365 210.579 316.403 216.436C318.52 216.428 320.679 216.498 322.791 216.403C329.222 216.537 335.733 216.134 342.146 216.452C339.59 216.791 336.87 216.637 334.29 216.633L320.446 216.587C318.531 216.584 315.868 216.288 314.046 216.832L313.864 217.104C315.409 217.135 317.031 217.083 318.563 217.268C315.746 217.492 312.866 217.396 310.041 217.404L295.022 217.422C278.879 217.467 262.736 217.422 246.594 217.288L227.369 217.31C224.962 217.315 221.537 217.692 219.256 217.237C219.091 218.538 218.875 219.694 218.259 220.874C216.367 222.87 215.238 223.234 212.501 223.302C204.475 223.501 196.411 223.334 188.381 223.337C184.841 223.339 179.276 223.755 175.965 223.23C174.578 223.009 173.42 222.354 172.351 221.472C171.537 220.174 171.212 218.87 170.904 217.393C169.558 217.378 168.212 217.342 166.866 217.284C164.142 217.63 160.961 217.308 158.199 217.299L138.994 217.254L74.1875 217.252L74.4501 216.442L74.5949 215.774C74.2532 212.021 74.493 207.989 74.6088 204.213C74.8432 200.66 74.7393 197.041 74.7292 193.479L74.7132 177.239L74.7872 124.811C74.7533 119.83 74.69 114.85 74.5974 109.87C74.5524 106.932 74.1959 103.656 74.7683 100.775C75.5271 96.9582 77.7817 94.4026 80.9467 92.2882C83.3524 91.4304 85.5026 90.757 88.0607 90.5761C90.5129 90.6367 92.9655 90.6447 95.4183 90.6Z" fill="#FEFEFE"/>
<path d="M270.059 136.267L270.581 136.436C271.029 138.256 273.183 144.256 272.198 145.641C271.765 146.249 270.814 146.536 270.104 146.564C269.175 146.601 268.224 146.54 267.295 146.509L267.55 146.202C268.514 146.097 269.48 146.128 270.448 146.081C271.067 146.051 271.387 145.963 271.804 145.505L270.059 136.267Z" fill="#57DBC6"/>
<path d="M266.191 146.164C265.333 143.956 265.073 133.305 265.867 130.981C266.689 130.321 268.233 130.589 269.231 130.657C269.647 132.592 270.097 134.518 270.582 136.436L270.06 136.267L269.705 134.992C269.468 134.125 269.247 132.736 268.46 132.198C267.837 131.773 266.859 131.933 266.157 131.998L265.904 132.212C265.712 134.918 265.414 140.477 266.033 143.013C266.076 144.044 266.219 145.141 266.191 146.164Z" fill="#5BC0BE"/>
<path d="M266.034 143.014C265.414 140.477 265.713 134.918 265.905 132.212L266.158 131.998C266.86 131.933 267.838 131.773 268.461 132.198C269.248 132.736 269.469 134.126 269.706 134.992C268.385 135.253 267.273 135.83 266.093 136.457C266.101 138.643 266.081 140.828 266.034 143.014Z" fill="#57DBC6"/>
<path d="M107.808 124.877C107.797 124.114 107.789 123.414 107.946 122.665C109.783 122.161 112.605 122.489 114.563 122.463L114.564 124.844L107.808 124.877Z" fill="#9492EE"/>
<path d="M114.563 122.463L115.153 122.555L115.192 124.619L115.158 164.178L114.562 164.054C114.278 151.008 114.56 137.896 114.564 124.844L114.563 122.463Z" fill="#5C48A3"/>
<path d="M114.562 164.054L115.158 164.178C115.92 164.243 116.238 164.165 116.832 164.67C117.244 165.855 117.398 167.441 116.752 168.59C116.722 168.643 116.682 168.689 116.647 168.738L115.267 168.92L114.562 168.86C114.138 168.846 113.713 168.829 113.288 168.811C112.577 168.786 111.732 168.826 111.232 168.207C110.562 167.378 110.929 165.07 110.977 164.007L114.562 164.054Z" fill="#FDCC6E"/>
<path d="M266.093 136.457C267.273 135.83 268.384 135.253 269.705 134.991L270.06 136.267L271.805 145.505C271.388 145.963 271.068 146.051 270.449 146.081C269.481 146.129 268.515 146.097 267.551 146.202L267.296 146.509C266.821 146.472 266.578 146.451 266.191 146.163C266.219 145.141 266.076 144.044 266.033 143.013C266.08 140.828 266.1 138.642 266.093 136.457Z" fill="#B5EBE2"/>
<path d="M158.939 174.465C162.599 174.097 166.437 174.37 170.119 174.422C172.932 174.461 175.826 174.339 178.624 174.553C176.617 175.22 173.198 174.729 171.031 174.784C171.543 175.578 173.114 178.657 173.966 178.676C175.733 178.716 177.175 178.087 179.195 178.71C176.73 178.962 161.001 179.144 159.698 178.529C158.62 177.392 158.912 175.923 158.939 174.465Z" fill="#89EADB"/>
<path d="M255.981 174.289C262.52 174.571 269.202 174.322 275.751 174.237C275.774 174.89 275.813 175.557 275.787 176.21C275.754 177.038 275.474 177.723 274.827 178.254C274.309 178.679 273.733 178.777 273.084 178.851C270.864 179.104 268.492 178.922 266.25 178.903C262.799 178.875 259.304 178.951 255.862 178.715C255.792 178.334 255.736 177.955 255.686 177.57C255.548 176.495 255.292 175.184 255.981 174.289Z" fill="#24B7EA"/>
<path d="M115.152 122.555C133.865 122.269 152.627 122.736 171.345 122.762L193.284 122.786C197.144 122.792 201.204 122.562 205.046 122.922C190.195 123.598 175.203 122.329 160.355 123.099C161.468 123.207 162.108 123.134 163.009 123.84C162.087 123.993 161.177 123.99 160.246 124.002C167.489 124.878 175.455 123.652 182.768 124.4C175.129 124.788 167.318 124.332 159.659 124.355L115.191 124.619L115.152 122.555Z" fill="#9492EE"/>
<path d="M114.563 168.86L115.268 168.92L115.279 174.298C120.736 174.133 126.302 173.891 131.754 174.166C131.741 175.71 131.663 177.251 131.593 178.794C127.013 178.518 109.165 179.063 106.881 178.07C106.314 177.823 105.753 177.374 105.597 176.747C105.443 176.126 105.795 175.133 106.259 174.681C106.769 174.183 107.494 174.314 108.159 174.283L114.557 174.332L114.563 168.86Z" fill="#89EADB"/>
<path d="M227.864 112.954C233.976 112.983 240.174 112.759 246.272 113.113C246.313 115.224 246.634 118.038 246.167 120.075L245.708 120.281C239.525 120.32 233.342 120.3 227.16 120.219C227.12 118.273 226.75 115.493 227.247 113.65C227.368 113.198 227.485 113.174 227.864 112.954Z" fill="#F3B991"/>
<path d="M205.047 122.922L246.818 122.828C248.77 122.82 258.46 122.473 259.715 122.761C259.905 122.804 260.051 122.957 260.219 123.055C260.43 123.546 260.464 123.919 260.504 124.443C244.523 124.645 228.513 124.41 212.528 124.417C212.385 134.959 212.488 145.555 212.577 156.099C212.41 157.419 212.741 160.655 211.917 161.56C212.119 157.339 211.931 153.017 211.931 148.786L211.991 124.431L182.769 124.4C175.455 123.652 167.49 124.878 160.246 124.002C161.177 123.99 162.087 123.993 163.009 123.84C162.108 123.134 161.468 123.207 160.355 123.098C175.203 122.329 190.195 123.598 205.047 122.922Z" fill="url(#paint1_linear_9217_59895)"/>
<path d="M211.922 174.42C215.844 175.272 222.667 174.41 226.958 174.531C226.96 175.659 227.218 177.76 226.432 178.618C221.61 179.149 215.098 178.755 210.075 178.751L179.195 178.711C177.175 178.088 175.733 178.717 173.966 178.677C173.114 178.658 171.543 175.579 171.031 174.785C173.198 174.73 176.617 175.221 178.623 174.553L201.773 174.54C204.757 174.541 209.123 174.952 211.922 174.42Z" fill="#24B7EA"/>
<path d="M143.586 166.783C145.632 166.588 147.488 166.752 149.349 167.713C151.897 169.029 153.836 171.493 154.622 174.239C154.668 174.398 154.71 174.559 154.749 174.721C154.787 174.882 154.821 175.045 154.851 175.208C154.881 175.372 154.907 175.536 154.928 175.7C154.95 175.865 154.967 176.03 154.98 176.196C154.993 176.362 155.002 176.527 155.007 176.693C155.011 176.859 155.011 177.025 155.007 177.191C155.004 177.358 154.995 177.523 154.983 177.689C154.971 177.855 154.954 178.02 154.933 178.185C154.912 178.349 154.887 178.514 154.858 178.677C154.828 178.841 154.795 179.003 154.757 179.165C154.719 179.327 154.678 179.488 154.632 179.647C154.586 179.807 154.536 179.965 154.482 180.122C154.428 180.28 154.37 180.435 154.308 180.589C154.246 180.743 154.18 180.896 154.11 181.046C154.04 181.197 153.967 181.346 153.889 181.493C153.812 181.64 153.731 181.785 153.646 181.928C152.066 184.578 149.694 186.003 146.768 186.712C144.586 186.876 142.482 186.734 140.5 185.708C140.353 185.63 140.207 185.548 140.064 185.463C139.921 185.377 139.78 185.288 139.641 185.196C139.502 185.103 139.366 185.007 139.232 184.907C139.099 184.808 138.967 184.705 138.839 184.599C138.71 184.492 138.584 184.383 138.461 184.271C138.338 184.158 138.218 184.042 138.101 183.923C137.984 183.805 137.87 183.683 137.759 183.558C137.649 183.434 137.541 183.306 137.437 183.176C137.332 183.046 137.231 182.913 137.134 182.778C137.036 182.643 136.942 182.505 136.851 182.365C136.76 182.225 136.673 182.083 136.59 181.938C136.507 181.794 136.427 181.648 136.351 181.499C136.275 181.351 136.203 181.2 136.135 181.048C136.067 180.896 136.002 180.742 135.942 180.587C135.882 180.431 135.825 180.274 135.773 180.116C135.721 179.957 135.672 179.798 135.628 179.637C134.886 176.959 135.162 173.734 136.625 171.351C138.228 168.741 140.729 167.524 143.586 166.783Z" fill="#9492EE"/>
<path d="M144.452 175.063C144.885 175.135 145.361 175.191 145.746 175.419C146.196 175.687 146.539 176.008 146.638 176.545C146.799 177.42 146.294 178.064 145.811 178.722C145.158 178.783 144.623 178.795 144.107 178.327C143.8 178.05 143.694 177.674 143.638 177.281C143.512 176.392 143.919 175.723 144.452 175.063Z" fill="#5C48A3"/>
<path d="M239.794 165.934C242.167 165.766 244.22 166.037 246.332 167.185C246.49 167.27 246.647 167.359 246.801 167.451C246.955 167.543 247.107 167.64 247.256 167.74C247.406 167.84 247.553 167.943 247.697 168.05C247.841 168.157 247.982 168.268 248.121 168.383C248.26 168.497 248.396 168.615 248.529 168.735C248.662 168.856 248.791 168.981 248.918 169.108C249.045 169.236 249.168 169.366 249.289 169.5C249.409 169.633 249.526 169.77 249.639 169.909C249.753 170.049 249.862 170.191 249.969 170.336C250.075 170.48 250.178 170.628 250.277 170.778C250.376 170.928 250.472 171.08 250.563 171.235C250.654 171.39 250.742 171.546 250.826 171.706C250.91 171.865 250.989 172.026 251.065 172.189C251.141 172.351 251.213 172.516 251.28 172.683C251.347 172.849 251.411 173.018 251.47 173.187C251.529 173.357 251.584 173.528 251.635 173.7C251.682 173.86 251.725 174.021 251.765 174.182C251.804 174.344 251.839 174.507 251.87 174.67C251.901 174.834 251.928 174.998 251.951 175.163C251.973 175.327 251.992 175.493 252.006 175.658C252.021 175.824 252.031 175.99 252.037 176.157C252.043 176.323 252.045 176.489 252.043 176.655C252.041 176.822 252.035 176.988 252.024 177.154C252.013 177.32 251.998 177.486 251.98 177.651C251.961 177.816 251.938 177.981 251.911 178.145C251.883 178.309 251.852 178.473 251.817 178.636C251.781 178.798 251.742 178.96 251.699 179.12C251.655 179.281 251.607 179.44 251.556 179.599C251.504 179.757 251.449 179.914 251.39 180.069C251.33 180.225 251.267 180.378 251.2 180.53C251.133 180.683 251.062 180.833 250.987 180.982C250.913 181.131 250.834 181.277 250.752 181.422C249.19 184.237 246.644 185.841 243.633 186.692C241.09 186.955 238.701 186.885 236.384 185.647C233.787 184.258 231.989 181.924 231.235 179.084C231.188 178.913 231.146 178.741 231.107 178.567C231.07 178.394 231.036 178.22 231.006 178.045C230.977 177.87 230.953 177.694 230.932 177.518C230.912 177.342 230.896 177.165 230.885 176.988C230.874 176.811 230.867 176.633 230.864 176.456C230.862 176.278 230.864 176.101 230.871 175.924C230.878 175.746 230.889 175.569 230.904 175.392C230.92 175.216 230.94 175.039 230.965 174.864C230.989 174.688 231.018 174.513 231.052 174.339C231.085 174.164 231.124 173.991 231.166 173.819C231.208 173.646 231.255 173.475 231.306 173.305C231.357 173.135 231.412 172.967 231.472 172.799C231.531 172.632 231.595 172.467 231.663 172.303C231.731 172.139 231.803 171.977 231.879 171.816C231.956 171.656 232.036 171.498 232.12 171.341C232.204 171.185 232.293 171.032 232.385 170.88C234.088 168.118 236.723 166.663 239.794 165.934Z" fill="#5C48A3"/>
<path d="M240.358 169.905C241.896 169.836 243.17 169.738 244.616 170.382C244.818 170.472 245.014 170.571 245.206 170.681C245.397 170.791 245.582 170.911 245.761 171.04C245.94 171.169 246.112 171.307 246.276 171.454C246.441 171.602 246.598 171.757 246.746 171.92C246.895 172.084 247.034 172.254 247.165 172.432C247.296 172.61 247.417 172.794 247.528 172.984C247.64 173.175 247.741 173.371 247.832 173.572C247.924 173.773 248.004 173.978 248.074 174.187C248.141 174.378 248.198 174.572 248.245 174.768C248.293 174.964 248.33 175.163 248.358 175.363C248.385 175.563 248.403 175.764 248.411 175.966C248.419 176.168 248.417 176.37 248.404 176.571C248.392 176.773 248.37 176.974 248.338 177.173C248.306 177.373 248.264 177.57 248.212 177.765C248.16 177.961 248.099 178.153 248.028 178.342C247.957 178.531 247.877 178.717 247.788 178.898C246.747 180.968 244.836 182 242.726 182.689C241.272 183.066 239.556 182.878 238.202 182.238C236.681 181.521 235.578 180.209 235.053 178.621C234.982 178.404 234.922 178.183 234.874 177.959C234.826 177.736 234.789 177.51 234.763 177.283C234.738 177.055 234.724 176.827 234.721 176.598C234.719 176.369 234.728 176.141 234.748 175.913C234.769 175.685 234.801 175.459 234.844 175.234C234.888 175.009 234.943 174.787 235.009 174.568C235.074 174.349 235.151 174.133 235.239 173.922C235.326 173.71 235.424 173.504 235.533 173.302C236.623 171.313 238.278 170.497 240.358 169.905Z" fill="#9492EE"/>
<path d="M240.871 174.263C241.423 174.273 242.007 174.313 242.458 174.668C242.876 174.998 243.098 175.469 243.088 176.002C243.07 176.912 242.596 177.493 241.964 178.084C241.455 178.064 240.99 178.008 240.569 177.688C240.115 177.345 239.879 176.876 239.856 176.311C239.817 175.367 240.275 174.903 240.871 174.263Z" fill="#5C48A3"/>
<path d="M154.368 114.019C173.605 113.934 192.842 114.008 212.078 114.241C212.049 116.27 212.187 118.236 212.405 120.254L183.143 120.243L145.933 120.178C140.435 120.158 134.711 120.561 129.241 120.127C128.111 120.038 126.839 119.796 125.873 119.17C125.338 118.823 124.891 118.311 124.838 117.646C124.776 116.871 125.229 116.026 125.74 115.473C126.493 114.657 127.557 114.292 128.633 114.145C131.186 113.795 134.102 114.159 136.689 114.164C142.58 114.175 148.476 114.072 154.368 114.019Z" fill="#F3B991"/>
<path d="M260.504 124.443C263.023 124.77 265.858 124.287 267.563 126.602C267.906 127.067 268.216 127.566 268.514 128.061C267.172 128.016 264.705 127.629 263.607 128.578C262.889 129.197 263.24 145.887 263.417 147.786C263.46 148.247 263.526 148.638 263.703 149.069C266.496 150.967 274.545 147.416 275.473 151.734C275.753 153.04 275.598 154.619 275.634 155.962L275.677 156.92C276.044 158.236 276.294 160.894 275.733 162.159L275.687 162.261L275.784 163.515C275.738 167.089 275.726 170.663 275.751 174.237C269.202 174.322 262.52 174.571 255.982 174.288C256.108 173.999 256.168 173.799 256.142 173.47C255.878 170.227 252.886 166.553 250.341 164.713C247.193 162.437 243.096 161.338 239.242 161.967C234.235 162.784 230.639 166.152 227.802 170.142C222.752 170.178 217.701 170.169 212.651 170.117L212.65 172.819C215.137 172.803 225.224 172.339 226.79 172.964C226.931 173.523 226.962 173.961 226.958 174.53C222.667 174.409 215.844 175.272 211.922 174.42C211.674 170.192 211.84 165.798 211.917 161.56C212.741 160.654 212.41 157.419 212.577 156.098C212.488 145.555 212.385 134.958 212.528 124.417C228.513 124.41 244.523 124.645 260.504 124.443Z" fill="#9492EE"/>
<path d="M275.675 156.921C276.042 158.236 276.293 160.894 275.731 162.16L275.686 162.262C274.086 161.843 272.279 161.938 270.618 161.581L270.724 160.571L270.51 159.072C270.636 158.672 270.796 158.3 271.057 157.966C272.007 156.749 274.318 157.009 275.675 156.921Z" fill="#F9FCAC"/>
<path d="M270.726 160.571C271.436 160.383 272.189 160.477 272.915 160.515C273.743 160.512 274.88 160.307 275.603 160.676C275.827 161.227 275.779 161.581 275.733 162.16L275.687 162.261C274.087 161.843 272.281 161.938 270.619 161.581L270.726 160.571Z" fill="#FDCC6E"/>
<path d="M217.05 129.918C220.728 129.868 224.405 130.07 228.082 130.024C229.842 130.002 231.72 129.684 233.465 129.822C234.25 129.885 235.059 130.059 235.537 130.749C236.123 131.593 236.048 145.764 235.676 147.412C235.563 147.908 235.472 147.905 235.053 148.136C231.24 148.229 219.532 148.659 216.485 147.804C215.912 147.191 216.134 135.31 216.156 133.698C216.174 132.372 216.043 130.903 217.05 129.918Z" fill="#FEFEFE"/>
<path d="M238.251 129.982C244.745 129.657 251.372 129.921 257.881 129.916L257.861 141.347C257.856 143.421 258.07 145.772 257.673 147.802L257.26 148.071C253.741 148.208 250.198 148.142 246.675 148.151C243.729 148.158 240.703 148.304 237.774 147.974C237.548 145.454 237.29 133.034 237.747 130.92C237.827 130.549 238.029 130.28 238.251 129.982Z" fill="#FEFEFE"/>
<path d="M95.4183 90.6C111.126 90.4936 126.911 90.26 142.612 90.635C148.798 90.9675 155.076 90.7574 161.271 90.749L166.602 90.7452C170.817 90.7225 175.104 90.5306 179.313 90.7326L179.553 90.7558C181.743 90.9502 183.977 90.8909 186.175 90.9106C183.172 91.0298 170.407 90.5933 168.732 91.092C171.408 91.6636 175.899 91.3425 178.793 91.3189C179.679 91.3113 180.547 91.5016 181.42 91.4902C182.316 91.4788 183.209 91.3037 184.106 91.2903C184.954 91.2781 185.796 91.4502 186.643 91.478C185.186 91.584 183.739 91.6337 182.277 91.6518C184.589 91.7873 186.903 91.8176 189.218 91.8627C187.552 93.6922 186.414 95.677 186.527 98.2346C186.606 100.009 187.123 101.878 188.502 103.097C188.746 103.312 188.954 103.357 189.264 103.422C189.401 103.451 189.537 103.482 189.674 103.51C189.785 103.533 189.898 103.553 190.009 103.575C185.683 103.729 181.273 103.482 176.936 103.464C168.741 103.43 160.538 103.491 152.344 103.353C137.638 103.518 122.918 103.384 108.211 103.379L95.1582 103.369C92.7681 103.368 90.2951 103.245 87.9129 103.459C87.3195 103.513 86.9744 103.533 86.5518 103.98C85.8843 104.686 85.9205 105.471 85.8831 106.386C85.6727 111.501 85.9344 116.68 85.8881 121.805C85.7919 138.299 85.8385 154.793 86.0279 171.287C86.1017 178.607 86.1238 185.926 86.0944 193.246C86.0628 197.402 85.7741 201.644 85.995 205.791C86.0343 206.52 86.1217 207.243 86.2572 207.96C88.0927 208.657 122.337 208.193 127.429 208.196L260.701 208.279C246.264 208.651 231.778 208.426 217.335 208.426L153.023 208.363C155.594 210.594 162.668 212.898 166.044 213.839C167.74 214.311 173.519 215.125 174.569 216.135C174.476 216.65 174.425 216.607 173.989 216.911C172.999 216.826 172.034 216.719 171.041 216.812C170.059 217.532 168.071 217.127 166.866 217.284C164.142 217.63 160.961 217.308 158.199 217.299L138.994 217.254L74.1875 217.252L74.4501 216.442L74.5949 215.774C74.2532 212.021 74.493 207.989 74.6088 204.213C74.8432 200.66 74.7393 197.041 74.7292 193.479L74.7132 177.239L74.7872 124.811C74.7533 119.83 74.69 114.85 74.5974 109.87C74.5524 106.932 74.1959 103.656 74.7683 100.775C75.5271 96.9582 77.7817 94.4026 80.9467 92.2882C83.3524 91.4304 85.5026 90.757 88.0607 90.5761C90.5129 90.6367 92.9655 90.6447 95.4183 90.6Z" fill="url(#paint2_linear_9217_59895)"/>
<path d="M74.5949 215.774L74.8647 216.422C103.23 216.122 131.619 216.675 159.989 216.593C163.663 216.622 167.374 216.59 171.041 216.812C170.059 217.532 168.071 217.127 166.866 217.284C164.142 217.63 160.961 217.308 158.199 217.299L138.994 217.253L74.1875 217.252L74.4501 216.441L74.5949 215.774Z" fill="#440E9A"/>
<path d="M95.4178 90.6C111.126 90.4936 126.91 90.26 142.612 90.635C148.798 90.9675 155.075 90.7574 161.27 90.749L166.601 90.7452C170.817 90.7225 175.103 90.5306 179.312 90.7326L179.553 90.7558C181.742 90.9502 183.977 90.8909 186.174 90.9106C183.171 91.0298 170.406 90.5933 168.731 91.092C171.408 91.6636 175.898 91.3425 178.792 91.3189C179.678 91.3113 180.547 91.5016 181.419 91.4902C182.316 91.4788 183.208 91.3037 184.105 91.2903C184.953 91.2781 185.795 91.4502 186.642 91.478C185.185 91.584 183.738 91.6337 182.277 91.6518C172.985 91.5892 163.693 91.586 154.401 91.6421C138.797 91.3505 123.134 91.5882 107.524 91.5962L93.4788 91.6186C90.518 91.6278 87.2857 91.4102 84.3754 91.9632C82.0812 92.3993 80.0421 93.6337 78.3645 95.2267C75.9382 97.5297 75.0076 100.393 74.9546 103.667C74.8178 112.118 74.9773 120.599 74.9727 129.054L74.9836 185.659L75.0114 206.309C75.0148 209.526 75.3843 213.281 74.8641 216.422L74.5943 215.774C74.2526 212.021 74.4925 207.989 74.6082 204.213C74.8426 200.66 74.7387 197.041 74.7286 193.479L74.7126 177.239L74.7867 124.811C74.7527 119.83 74.6894 114.85 74.5969 109.87C74.5518 106.932 74.1953 103.656 74.7677 100.775C75.5266 96.9582 77.7812 94.4026 80.9461 92.2882C83.3518 91.4304 85.502 90.757 88.0601 90.5761C90.5124 90.6367 92.9649 90.6447 95.4178 90.6Z" fill="#440E9A"/>
<path d="M179.313 90.7322C183.061 90.4775 186.901 90.6194 190.661 90.6396L208.256 90.6939C230.672 90.7145 253.125 91.0348 275.537 90.7578L294.079 90.7381C297.944 90.7343 302.527 90.2301 306.269 91.1632C308.577 91.7381 310.457 92.9969 312.133 94.6539C316.069 98.5423 316.419 103.009 316.409 108.245L316.439 198.863C316.377 204.72 316.365 210.578 316.403 216.436C318.52 216.428 320.679 216.498 322.791 216.402C329.222 216.537 335.733 216.133 342.146 216.452C339.59 216.79 336.87 216.637 334.29 216.633L320.446 216.587C318.531 216.583 315.868 216.287 314.046 216.832L313.864 217.103C315.409 217.135 317.031 217.083 318.563 217.267C315.747 217.492 312.866 217.396 310.041 217.404L295.022 217.422C278.879 217.466 262.736 217.422 246.594 217.288L227.369 217.309C224.962 217.315 221.537 217.692 219.256 217.236C219.091 218.537 218.875 219.693 218.259 220.873C216.367 222.87 215.238 223.233 212.501 223.301C204.475 223.5 196.411 223.334 188.381 223.337C184.841 223.338 179.276 223.755 175.965 223.229C174.578 223.009 173.421 222.354 172.351 221.471C171.538 220.173 171.212 218.87 170.904 217.393C169.558 217.378 168.212 217.341 166.866 217.283C168.071 217.127 170.059 217.532 171.041 216.812C172.034 216.719 172.999 216.826 173.989 216.91C174.425 216.606 174.476 216.649 174.569 216.135C173.519 215.125 167.74 214.31 166.044 213.838C162.668 212.898 155.594 210.594 153.023 208.363L217.335 208.425C231.778 208.426 246.264 208.651 260.701 208.279L289.098 208.239C294.134 208.244 299.278 208.461 304.303 208.205C304.916 208.174 305.593 208.181 306.094 207.792C306.913 204.405 306.488 200.16 306.489 196.681L306.475 178.539C306.533 153.724 306.464 128.91 306.268 104.096C282.367 103.872 258.464 103.781 234.562 103.824C219.71 103.901 204.859 103.818 190.009 103.574C189.898 103.553 189.785 103.533 189.674 103.51C189.537 103.482 189.401 103.45 189.264 103.421C188.954 103.357 188.746 103.312 188.502 103.097C187.123 101.877 186.606 100.009 186.527 98.2342C186.415 95.6766 187.552 93.6917 189.218 91.8622C186.904 91.8172 184.589 91.7869 182.277 91.6514C183.739 91.6333 185.186 91.5836 186.643 91.4775C185.796 91.4498 184.954 91.2776 184.106 91.2898C183.209 91.3033 182.316 91.4784 181.42 91.4897C180.547 91.5011 179.679 91.3109 178.793 91.3184C175.899 91.342 171.408 91.6631 168.732 91.0916C170.407 90.5929 183.172 91.0293 186.175 90.9102C183.977 90.8904 181.743 90.9498 179.553 90.7553L179.313 90.7322Z" fill="#5C48A3"/>
<path d="M192.66 95.0122L192.96 95.3178C192.743 96.024 192.277 96.468 191.793 97.0017C192.308 98.3636 192.663 99.1447 193.867 100.042C193.49 100.03 193.014 100.048 192.655 99.9347C192.092 99.7571 191.628 99.3796 191.318 98.8817C190.914 98.2336 190.837 97.4764 191.069 96.7491C191.352 95.862 191.851 95.423 192.66 95.0122Z" fill="#FEFEFE"/>
<path d="M192.66 95.0122C193.489 94.8085 193.993 94.7542 194.77 95.2277C195.414 95.6208 195.858 96.4541 195.956 97.1851C196.056 97.9255 195.878 98.7411 195.35 99.2937C194.968 99.6935 194.396 99.9221 193.867 100.042C192.662 99.1447 192.308 98.3636 191.793 97.0017C192.277 96.468 192.743 96.024 192.96 95.3177L192.66 95.0122Z" fill="#B5EBE2"/>
<path d="M171.042 216.812C172.035 216.719 173 216.826 173.99 216.911L174.889 217.145C173.955 217.155 173.08 217.179 172.158 217.342C175.868 217.546 179.63 217.423 183.347 217.423L202.767 217.427C205.793 217.427 215.495 217.826 217.971 217.264L217.867 217.029C218.352 216.847 218.564 216.884 219.06 217.014L219.257 217.237C219.092 218.538 218.876 219.694 218.26 220.873C216.368 222.87 215.239 223.234 212.502 223.301C204.476 223.501 196.412 223.334 188.382 223.337C184.842 223.339 179.277 223.755 175.966 223.23C174.579 223.009 173.421 222.354 172.352 221.472C171.538 220.174 171.213 218.87 170.905 217.393C169.559 217.378 168.213 217.342 166.867 217.284C168.072 217.127 170.06 217.532 171.042 216.812Z" fill="#FEFEFE"/>
<path d="M171.042 216.812C172.035 216.719 173 216.826 173.99 216.911L174.889 217.145C173.955 217.155 173.08 217.179 172.158 217.342C172.518 218.834 172.961 220.278 174.386 221.092C175.211 221.563 176.102 221.579 177.026 221.624C180.601 221.798 213.629 221.953 215.351 221.414C216.429 221.077 217.071 220.25 217.508 219.248C217.79 218.601 217.904 217.961 217.971 217.264L217.867 217.029C218.352 216.847 218.564 216.884 219.06 217.014L219.257 217.237C219.092 218.538 218.876 219.694 218.26 220.873C216.368 222.87 215.239 223.234 212.502 223.301C204.476 223.501 196.412 223.334 188.382 223.337C184.842 223.339 179.277 223.755 175.966 223.23C174.579 223.009 173.421 222.354 172.352 221.472C171.538 220.174 171.213 218.87 170.905 217.393C169.559 217.378 168.213 217.342 166.867 217.284C168.072 217.127 170.06 217.532 171.042 216.812Z" fill="url(#paint3_linear_9217_59895)"/>
<path d="M115.19 124.619L159.658 124.356C167.317 124.332 175.127 124.789 182.767 124.4L211.989 124.431L211.93 148.786C211.929 153.017 212.118 157.34 211.916 161.561C211.838 165.798 211.673 170.193 211.92 174.42C209.122 174.952 204.755 174.541 201.772 174.54L178.622 174.553C175.825 174.34 172.93 174.462 170.117 174.422C166.435 174.371 162.597 174.097 158.938 174.465C158.427 171.994 157.268 169.402 155.742 167.384C153.663 164.635 150.409 162.619 146.974 162.174C143.223 161.689 139.386 162.956 136.455 165.294C133.568 167.596 132.138 170.54 131.752 174.167C126.3 173.891 120.734 174.133 115.277 174.299L115.266 168.92L116.645 168.739C116.68 168.689 116.721 168.643 116.751 168.59C117.397 167.441 117.242 165.855 116.83 164.67C116.236 164.165 115.918 164.244 115.156 164.178L115.19 124.619Z" fill="url(#paint4_linear_9217_59895)"/>
<path d="M144.703 130.011C147.774 129.87 160.101 129.786 162.14 130.579C162.922 131.978 162.616 147.479 162.233 149.835C161.758 150.175 161.167 150.095 160.606 150.1C154.662 150.125 148.686 150.199 142.747 149.96C142.613 146.889 141.967 132.649 143.007 130.598C143.541 130.131 144.031 130.103 144.703 130.011Z" fill="#FEFEFE"/>
<path d="M165.655 130.311L178.034 130.282C180.552 130.279 183.369 130.033 185.827 130.558C186.652 132.763 185.94 146.887 185.908 150.1C182.728 150.078 167.978 150.64 165.898 149.7C165.085 147.235 165.593 133.955 165.655 130.311Z" fill="#FEFEFE"/>
<path d="M188.475 130.156C191.797 129.879 205.921 129.823 208.405 130.613C209.232 131.859 208.914 147.589 208.83 150.243C202.211 150.275 195.201 150.765 188.641 150.046C188.368 143.487 188.195 136.715 188.475 130.156Z" fill="#FEFEFE"/>
<path d="M118.612 129.752C121.092 129.68 123.587 129.829 126.07 129.848C130.369 129.88 134.667 129.846 138.966 129.942C139.944 135.047 139.412 144.615 139.407 150.057L136.828 150.108C132.781 150.095 120.656 150.597 117.637 149.793C117.202 149.677 116.755 149.509 116.55 149.086C116.349 148.67 116.327 148.203 116.31 147.75C116.258 146.355 116.508 144.916 116.502 143.502C116.489 140.174 116.237 136.727 116.464 133.412C116.512 132.718 116.601 131.979 116.845 131.323C117.181 130.42 117.768 130.101 118.612 129.752Z" fill="#FEFEFE"/>
<defs>
<linearGradient id="paint0_linear_9217_59895" x1="196.427" y1="228.628" x2="196.408" y2="217.916" gradientUnits="userSpaceOnUse">
<stop stop-color="#C9C6CF"/>
<stop offset="1" stop-color="white"/>
</linearGradient>
<linearGradient id="paint1_linear_9217_59895" x1="212.817" y1="114.485" x2="209.485" y2="132.412" gradientUnits="userSpaceOnUse">
<stop stop-color="#3B36A8"/>
<stop offset="1" stop-color="#774EB7"/>
</linearGradient>
<linearGradient id="paint2_linear_9217_59895" x1="261.83" y1="158.313" x2="73.3074" y2="152.059" gradientUnits="userSpaceOnUse">
<stop stop-color="#60279C"/>
<stop offset="1" stop-color="#DDADEB"/>
</linearGradient>
<linearGradient id="paint3_linear_9217_59895" x1="194.936" y1="217.536" x2="194.963" y2="222.841" gradientUnits="userSpaceOnUse">
<stop stop-color="#340493"/>
<stop offset="1" stop-color="#5C2FBE"/>
</linearGradient>
<linearGradient id="paint4_linear_9217_59895" x1="212.45" y1="151.541" x2="114.39" y2="146.774" gradientUnits="userSpaceOnUse">
<stop stop-color="#B4B0FC"/>
<stop offset="1" stop-color="#F3F5FB"/>
</linearGradient>
</defs>
</svg>
