<svg width="316" height="190" viewBox="0 0 316 190" fill="none" xmlns="http://www.w3.org/2000/svg">
<path d="M210.787 174.143C212.829 174.577 220.107 174.278 222.567 174.172L223.18 174.251C223.268 174.434 223.326 174.556 223.358 174.759C219.063 174.934 214.723 174.826 210.422 174.835L210.787 174.143Z" fill="#5BC0BE"/>
<path d="M56.0156 61.4216C56.0957 60.2771 56.3507 59.2678 57.2375 58.4762C57.3058 58.4143 57.3772 58.3561 57.4518 58.3016C57.5262 58.2471 57.6032 58.1967 57.6829 58.1503C57.7625 58.104 57.8444 58.0619 57.9284 58.0241C58.0126 57.9863 58.0985 57.9531 58.186 57.9243C58.2735 57.8957 58.3624 57.8718 58.4525 57.8524C58.5424 57.8329 58.6332 57.8183 58.7249 57.8086C58.8164 57.7987 58.9082 57.7937 59.0003 57.7935C59.0924 57.7935 59.1843 57.7982 59.276 57.8076C60.149 57.9009 60.8917 58.4248 61.3912 59.135C61.9501 59.9301 62.0788 60.8113 62.1539 61.757C61.9423 61.703 61.6804 61.7023 61.4614 61.6826C61.2911 60.6623 61.1667 59.7696 60.2648 59.1188C59.8027 58.7853 59.2277 58.6061 58.6586 58.6977C58.0787 58.7913 57.6077 59.1439 57.2795 59.623C56.8273 60.2834 56.7301 60.9312 56.7324 61.7158C56.4794 61.4816 56.3428 61.497 56.0156 61.4216Z" fill="#557A98"/>
<path d="M23.0156 61.8241C23.1452 60.5099 23.2248 59.5193 24.3398 58.6481C24.4203 58.5841 24.5039 58.5246 24.5906 58.4695C24.6773 58.4141 24.7666 58.3635 24.8585 58.3175C24.9504 58.2716 25.0444 58.2307 25.1406 58.1946C25.2368 58.1584 25.3345 58.1274 25.4339 58.1017C25.5332 58.0758 25.6337 58.055 25.7352 58.0394C25.8367 58.024 25.9387 58.014 26.0412 58.0091C26.1438 58.0043 26.2463 58.0048 26.3488 58.0108C26.4513 58.0167 26.5532 58.0279 26.6545 58.0444C26.7484 58.0589 26.8414 58.0781 26.9333 58.102C27.0253 58.126 27.1158 58.1545 27.2048 58.1877C27.2938 58.2209 27.381 58.2586 27.4663 58.3007C27.5517 58.3429 27.6346 58.3893 27.7151 58.4398C27.7956 58.4903 27.8734 58.5449 27.9485 58.6036C28.0235 58.662 28.0953 58.7242 28.1638 58.7901C28.2325 58.856 28.2977 58.9253 28.3594 58.998C28.4211 59.0705 28.4789 59.146 28.533 59.2244C29.0742 59.9962 29.2248 60.7795 29.213 61.7045L29.2124 61.8613L28.5359 61.862C28.4884 61.1162 28.4237 60.2575 27.9235 59.6597C27.5264 59.1855 26.8978 58.9137 26.2863 58.9028C25.5872 58.8903 24.883 59.1793 24.4092 59.6989C23.8433 60.3194 23.7133 61.0319 23.7674 61.8448L23.0156 61.8241Z" fill="#557A98"/>
<path d="M23.769 61.8455C23.715 61.0326 23.8449 60.3201 24.4108 59.6996C24.8847 59.1799 25.5889 58.8909 26.288 58.9035C26.8995 58.9143 27.5281 59.1862 27.9252 59.6604C28.4254 60.2582 28.49 61.1169 28.5376 61.8626C26.95 61.9081 25.357 61.8633 23.769 61.8455Z" fill="#FEFEFE"/>
<path d="M56.7325 61.7161C56.7302 60.9315 56.8273 60.2836 57.2796 59.6232C57.6078 59.1441 58.0787 58.7915 58.6587 58.6979C59.2278 58.6063 59.8028 58.7856 60.2649 59.119C61.1668 59.7699 61.2912 60.6626 61.4615 61.6828C60.6295 62.0851 57.8227 62.0509 56.8798 61.7727C56.8293 61.7579 56.7814 61.7348 56.7325 61.7161Z" fill="#FEFEFE"/>
<path d="M270.669 38.5313C270.731 37.7859 270.689 36.9637 271.36 36.479C271.626 36.2869 271.806 36.2282 272.12 36.1663C272.567 36.3636 272.733 36.5624 272.893 37.0323C273.196 37.921 273.058 38.815 273.208 39.7127C273.176 40.8321 273.269 41.961 273.201 43.0795C273.15 43.9138 272.938 44.5554 272.302 45.1041C271.856 45.2286 271.796 45.2431 271.355 45.111C271.126 44.8919 270.957 44.7189 270.836 44.4163C270.466 43.4867 270.768 39.9763 270.682 38.7082L270.669 38.5313Z" fill="#476EA1"/>
<path d="M301.781 41.6647C301.891 40.2237 301.52 38.1981 302.137 36.8714C302.327 36.4648 302.491 36.3475 302.892 36.1833C303.38 36.2628 303.614 36.4443 303.985 36.7429C304.342 37.2902 304.259 37.8689 304.247 38.499C304.251 40.2092 304.177 41.9583 304.298 43.663C304.247 43.9398 304.178 44.3204 303.994 44.5504C303.772 44.8285 303.24 45.1719 302.863 45.194C302.618 45.2082 302.421 45.1884 302.246 45.0091C301.587 44.3343 301.788 42.5854 301.781 41.6647Z" fill="#476EA1"/>
<path d="M288.528 168.149L289.055 168.465C285.096 172.431 275.467 175.26 270.025 175.253C264.3 175.246 258.015 174.04 252.871 171.452L253.4 170.84C255.257 171.642 257.155 172.335 259.092 172.917C270.922 176.393 278.196 173.821 288.528 168.149Z" fill="#89EADB"/>
<path d="M5.85191 44.4961C6.04985 44.5528 6.23788 44.564 6.38432 44.7222C7.00573 45.3941 6.81689 47.4375 6.85056 48.3602C8.23583 48.3677 9.74075 48.1644 10.8899 49.0858L10.9156 49.5886C9.81289 50.568 8.09979 50.2652 6.75003 50.2009C6.76579 51.1269 7.02959 52.1494 6.85043 53.0596C6.72299 53.7068 6.345 53.9019 5.8297 54.2291C5.49526 54.0907 5.28416 54.0198 5.03214 53.7466C4.44958 53.1146 4.75186 51.0323 4.77667 50.1844C3.67441 50.1538 1.99396 50.3261 1.08025 49.6305C0.840764 49.4479 0.894064 49.4163 0.847656 49.1415C0.88494 49.0957 0.91707 49.0449 0.959572 49.0037C1.85451 48.1394 3.62304 48.2527 4.77279 48.2587C4.7574 47.4342 4.64867 46.4472 4.83555 45.6442C4.99229 44.9706 5.30241 44.8243 5.85191 44.4961Z" fill="#89EADB"/>
<path d="M314.669 43.1562L315.152 43.7036C315.141 43.7534 315.128 43.8031 315.119 43.8535C314.809 45.631 314.987 47.6883 314.986 49.4948L314.992 60.0861L315.002 77.8886C315.001 79.8645 314.808 81.897 314.866 83.8587C314.885 84.502 314.993 85.1498 315.109 85.7818C314.466 86.3338 313.367 87.3102 312.528 87.4621C310.612 87.8091 304.161 87.3428 301.776 87.3379L285.106 87.3498C282.698 87.3563 280.139 87.5807 277.752 87.4002L277.449 87.3748C278.108 87.6285 278.619 87.9093 279.32 87.6951C279.935 87.5073 284.275 87.8559 284.927 88.2022L285.107 88.4655C283.49 88.6791 280.874 88.9117 279.316 88.4777L279.476 88.4286C278.278 88.2082 277.107 88.1274 275.891 88.0721L276.039 88.1169C275.634 88.0503 275.159 87.8935 274.769 87.8526C274.209 87.7936 273.632 88.0915 273.037 88.0085L272.853 87.8533C273.356 87.6565 274.105 87.7699 274.512 87.5129C271.434 86.518 263.455 88.4481 261.156 87.1652C260.993 86.7259 260.991 86.4426 261.006 85.9842C261.191 86.2584 261.41 86.6376 261.676 86.836C262.041 87.1075 262.452 87.1217 262.885 87.1362C265.888 87.238 268.941 87.0901 271.949 87.0743L288.936 87.0561L304.499 87.0828C307.254 87.0934 310.046 87.2364 312.796 87.0924C313.356 86.7698 313.844 86.3654 314.347 85.9624C314.978 83.0721 314.593 75.7684 314.589 72.4049C314.558 62.6553 314.585 52.9057 314.669 43.1562Z" fill="#B5EBE2"/>
<path d="M212.034 169.973C215.827 170.025 219.69 170.114 223.477 169.924C223.468 169.983 223.459 170.042 223.45 170.102C223.302 171.171 223.66 173.345 223.016 174.116L222.567 174.173C220.107 174.278 212.828 174.577 210.787 174.143C211.181 172.961 210.992 171.725 211.344 170.593C211.482 170.146 211.634 170.16 212.034 169.973Z" fill="#FEFEFE"/>
<path d="M255.278 42.9374C255.96 42.5215 256.573 42.0042 257.199 41.5085L257.333 42.823C257.128 43.7128 256.989 44.8711 256.178 45.4201C255.029 46.1984 248.193 45.9473 246.525 45.8629C244.654 45.768 240.044 44.9409 238.503 45.7427C237.761 44.8286 237.056 43.8821 236.328 42.9558C242.644 42.8421 248.962 43.0158 255.278 42.9374Z" fill="#B5EBE2"/>
<path d="M15.7564 10.9194C16.141 11.0031 16.644 11.101 16.9461 11.3673C17.8784 12.1884 17.4984 15.516 17.5496 16.7455C18.8416 16.7363 20.4661 16.5531 21.7158 16.8813C22.2343 17.0174 22.5538 17.2072 22.8319 17.684C22.856 18.1697 22.8605 18.2188 22.6126 18.6331C21.3707 19.4612 18.99 19.1751 17.5261 19.2265C17.5263 20.4494 17.8334 22.7001 17.3037 23.8119C17.0705 24.3016 16.7719 24.3286 16.3099 24.5122C15.9746 24.4351 15.7021 24.3421 15.3925 24.1912C14.6829 22.9822 15.0646 20.5878 15.0874 19.2078C13.5069 19.1184 11.3293 19.6025 9.87336 19.0077C9.53482 18.6686 9.45832 18.4334 9.31641 17.9895C9.36373 17.711 9.33932 17.5248 9.54283 17.3107C10.5949 16.2041 13.7144 16.67 15.112 16.7159C15.1047 14.9311 14.8142 12.4919 15.7564 10.9194Z" fill="#89EADB"/>
<path d="M223.477 169.923C224.385 169.778 225.369 169.785 226.29 169.733C229.247 169.998 232.245 169.63 235.186 169.902C235.236 171.622 235.593 173.611 234.302 174.959C233.89 175.388 232.613 175.341 232.031 175.343C229.982 175.352 225.294 175.569 223.531 174.982L223.357 174.758C223.326 174.555 223.267 174.433 223.179 174.25L222.566 174.172L223.015 174.115C223.66 173.344 223.301 171.169 223.45 170.1C223.458 170.041 223.468 169.982 223.477 169.923Z" fill="#99DA74"/>
<path d="M224.642 172.296C225.919 172.305 232.742 172.015 233.543 172.68C233.672 173.196 233.479 173.64 233.33 174.131C230.798 174.162 226.952 174.529 224.588 174.018C224.454 173.455 224.574 172.864 224.642 172.296Z" fill="#B5EBE2"/>
<path d="M13.6428 114.979L39.7818 115.083L49.8293 115.101C51.5737 115.102 53.4073 114.99 55.1409 115.135C55.6148 116.633 56.1212 118.222 56.3227 119.78C55.5153 119.102 55.6804 117.239 54.9768 116.336C53.7286 116.44 52.6305 117.237 51.3974 117.459C48.835 117.943 46.2541 118.286 43.6545 118.487C41.055 118.688 38.4522 118.746 35.8463 118.661C32.3087 118.571 28.9394 118.112 26.4047 115.437C24.6813 115.272 22.9506 115.345 21.222 115.304C18.6818 115.245 16.1522 115.127 13.6094 115.108L13.6428 114.979Z" fill="#B5EBE2"/>
<path d="M285.552 103.898C285.834 103.661 286.05 103.481 286.388 103.324C286.671 103.193 286.949 103.067 287.229 102.928L287.171 102.714C286.749 102.518 286.343 102.314 285.936 102.089L286.139 101.988C293.045 105.241 297.752 109.499 302.079 115.739C306.899 122.101 308.393 132.098 307.32 139.849C306.758 143.903 305.581 150.553 302.894 153.648L302.447 153.037C302.755 152.232 303.254 151.474 303.576 150.654C304.945 147.164 306.028 143.261 306.505 139.545C307.399 132.568 305.752 122.127 301.44 116.471C300.523 117.164 299.592 117.844 298.692 118.557C296.624 114.147 292.724 110.957 288.902 108.131C287.71 107.249 286.29 106.37 285.283 105.286C285.506 104.796 285.539 104.434 285.552 103.898Z" fill="#89EADB"/>
<path d="M285.283 105.286C286.29 106.37 287.71 107.249 288.902 108.131C292.724 110.956 296.624 114.146 298.692 118.557C296.143 120.566 293.354 122.288 290.908 124.422C287.939 119.62 285.608 117.327 280.957 114.209C282.331 111.21 283.887 108.28 285.283 105.286Z" fill="#57DBC6"/>
<path d="M241.078 150.754C243.957 149.382 246.683 147.798 249.413 146.151C252.737 151.168 256.381 154.638 262.023 156.869C261.235 157.902 260.478 158.929 259.85 160.07C258.951 161.704 258.25 163.699 256.956 165.056L256.575 165.256C256.162 165.076 255.754 164.886 255.35 164.688C254.945 164.49 254.545 164.283 254.15 164.068C253.754 163.853 253.363 163.63 252.977 163.398C252.591 163.166 252.209 162.926 251.833 162.678C251.457 162.431 251.086 162.175 250.721 161.911C250.356 161.647 249.996 161.376 249.642 161.097C249.288 160.818 248.94 160.532 248.598 160.238C248.257 159.944 247.921 159.643 247.592 159.335C247.263 159.027 246.94 158.712 246.624 158.391C246.308 158.069 245.999 157.741 245.698 157.406C245.396 157.071 245.101 156.73 244.813 156.382C244.525 156.035 244.245 155.682 243.973 155.322C243.7 154.963 243.435 154.598 243.177 154.228C242.92 153.857 242.671 153.481 242.429 153.1C242.187 152.719 241.954 152.333 241.729 151.942C241.504 151.55 241.287 151.155 241.078 150.754Z" fill="#F4C989"/>
<path d="M255.491 104.027C255.74 104.021 255.649 103.998 255.874 104.088C256.337 104.275 259.846 112.953 260.293 114.005C255.759 116.689 252.596 119.48 249.908 124.076C249.065 123.744 248.327 123.258 247.566 122.773C245.435 121.279 243.122 120.06 240.982 118.57C244.538 111.508 248.76 107.797 255.491 104.027Z" fill="#EDBFE4"/>
<path d="M299.978 121.942C299.993 121.948 300.009 121.952 300.023 121.96C301.16 122.64 301.887 125.605 302.258 126.828C304.167 133.126 303.878 141.468 300.777 147.356C299.35 146.544 297.871 145.918 296.333 145.355C294.828 144.848 293.271 144.449 291.746 144.005C293.944 138.539 293.95 132.854 292.228 127.276C294.799 125.472 297.455 123.821 299.978 121.942Z" fill="#57DBC6"/>
<path d="M240.122 122.083C242.742 123.911 245.626 125.255 248.463 126.702C246.332 132.164 246.593 138.145 248.343 143.649C247.033 144.399 245.664 145.068 244.325 145.77C242.799 146.542 241.279 147.33 239.721 148.035C239.691 147.962 239.661 147.888 239.632 147.814C236.102 138.741 236.194 130.969 240.122 122.083Z" fill="#89EADB"/>
<path d="M262.024 156.868C268.396 159.336 273.99 158.739 280.168 156.146C281.61 158.705 283.406 161.106 285.061 163.533C276.258 167.624 268.187 169.199 258.804 165.775C258.184 165.547 257.568 165.307 256.957 165.055C258.251 163.698 258.952 161.703 259.851 160.07C260.479 158.928 261.236 157.901 262.024 156.868Z" fill="#89EADB"/>
<path d="M34.4555 50.8867C33.2684 50.6343 32.0288 50.3051 31.0229 49.5953C30.0744 48.9257 29.7084 48.2027 29.5026 47.082C29.0576 44.6546 28.8702 35.6384 29.1485 33.1854C29.245 32.3335 29.374 31.427 29.908 30.7307C31.0133 29.2897 32.8102 28.8699 34.5129 28.6833C35.5376 29.1977 36.232 31.485 36.8074 32.5398L36.961 32.555C37.172 33.6322 37.194 34.8353 37.9108 35.7172L37.7178 35.9857C38.811 37.4241 40.309 39.8402 40.6713 41.6016L40.8065 41.6072C41.2702 42.6501 42.2739 43.6525 42.5168 44.7449L42.4921 44.9176C43.1561 46.8252 44.501 48.4732 45.0078 50.4267C41.5318 50.9487 37.96 50.7743 34.4555 50.8867Z" fill="#ED9686"/>
<path d="M36.8071 32.5398L36.9607 32.5549C37.1717 33.6322 37.1937 34.8353 37.9105 35.7171L37.7175 35.9857C37.1208 35.5168 36.4356 35.0024 36.2695 34.2121C36.1303 33.5488 36.4244 33.046 36.8071 32.5398Z" fill="#F2C7C2"/>
<path d="M40.6723 41.6013L40.8076 41.6069C41.2713 42.6499 42.2749 43.6523 42.5178 44.7447C40.7954 44.7374 35.2364 45.7481 34.0883 44.6636C33.6069 44.2089 33.7956 42.9409 33.8228 42.3302C35.9535 41.4708 38.4127 41.6333 40.6723 41.6013Z" fill="#F2C7C2"/>
<path d="M34.5137 28.6836C37.7848 28.3254 46.8179 27.8888 49.3237 29.8007C50.4684 30.674 51.006 31.9835 51.18 33.3844C51.4517 35.5738 51.3165 37.9217 51.3398 40.1279C51.3592 41.9769 51.5577 43.9613 51.3329 45.7961C51.2184 46.731 50.9476 47.7044 50.3687 48.4633C49.1881 50.0101 46.7972 50.2095 45.0085 50.427C44.5018 48.4735 43.1568 46.8255 42.4929 44.9179L42.5175 44.7452C42.2746 43.6528 41.271 42.6504 40.8072 41.6075L40.672 41.6018C40.3097 39.8405 38.8118 37.4244 37.7185 35.986L37.9115 35.7174C37.1947 34.8356 37.1727 33.6325 36.9617 32.5553L36.8081 32.5401C36.2328 31.4853 35.5383 29.198 34.5137 28.6836Z" fill="#F3B785"/>
<path d="M40.8066 41.6069C42.0184 41.3739 43.7844 41.0774 44.8639 41.832C45.2081 42.0726 45.4753 42.4367 45.5373 42.8601C45.6217 43.4388 45.3804 43.9393 44.9955 44.3463C44.6134 44.75 43.8051 45.0838 43.2481 45.0541C42.9948 45.0403 42.7384 44.9767 42.4923 44.9174L42.5169 44.7447C42.274 43.6523 41.2704 42.6499 40.8066 41.6069Z" fill="#FEFEFE"/>
<path d="M36.9609 32.5551C38.513 32.2334 41.6873 31.9771 43.0336 32.8213C43.3297 33.0068 43.4905 33.2359 43.6815 33.5226C43.7412 34.0023 43.778 34.1358 43.4855 34.5569C42.6152 35.8098 39.32 35.6645 37.9107 35.7172C37.194 34.8354 37.172 33.6323 36.9609 32.5551Z" fill="#FEFEFE"/>
<path d="M276.986 100.651C277.206 100.085 277.374 99.5253 277.802 99.0814C279.931 98.6376 283.996 100.64 285.833 101.774C285.938 101.839 286.037 101.915 286.138 101.987L285.935 102.088C286.342 102.313 286.748 102.518 287.17 102.714L287.228 102.927C286.949 103.066 286.671 103.192 286.387 103.323C286.049 103.481 285.833 103.66 285.551 103.898C285.089 103.622 284.694 103.228 284.236 102.942C283.742 102.633 283.546 102.473 282.982 102.601C281.275 106.109 279.407 109.501 278.145 113.213C273.364 110.915 267.858 111.672 263.027 113.338C261.696 109.797 260.478 106.144 258.879 102.717C263.986 100.544 271.561 99.0244 276.986 100.651Z" fill="#B5EBE2"/>
<path d="M145.104 130.125C151.154 130.201 157.219 130.14 163.269 130.097L163.323 144.452L145.084 144.431L145.104 130.125Z" fill="#476EA1"/>
<path d="M185.808 129.944L203.776 130.02C203.862 134.805 203.91 139.685 203.716 144.465C197.782 144.72 191.742 144.494 185.795 144.49L185.808 129.944Z" fill="#476EA1"/>
<path d="M167.296 130.018L183.649 129.992L183.69 138.849C183.701 140.637 183.799 142.476 183.635 144.257C183.241 144.527 182.773 144.439 182.302 144.45L165.542 144.457C165.55 139.728 165.333 134.927 165.537 130.209C166.018 129.935 166.736 130.028 167.296 130.018Z" fill="#476EA1"/>
<path d="M290.528 146.205C293.363 147.571 296.111 149.292 298.855 150.843C300.076 151.54 301.263 152.276 302.446 153.036L302.893 153.647C302.599 154.186 302.292 154.719 301.972 155.243C301.652 155.768 301.32 156.284 300.976 156.793C300.631 157.302 300.274 157.802 299.906 158.293C299.537 158.784 299.157 159.267 298.766 159.74C298.374 160.213 297.972 160.676 297.558 161.13C297.144 161.583 296.72 162.027 296.285 162.46C295.85 162.893 295.405 163.315 294.949 163.727C294.494 164.139 294.03 164.539 293.555 164.928C292.1 166.122 290.425 167.182 289.056 168.464L288.529 168.148C287.973 167.362 287.424 166.572 286.819 165.822C286.475 165.231 286.047 164.67 285.659 164.106L285.061 163.532C283.406 161.106 281.61 158.704 280.168 156.145C284.685 154.275 288.11 150.354 290.528 146.205Z" fill="#9492EE"/>
<path d="M141.241 130.183L142.935 130.194C142.942 134.939 142.922 139.684 142.875 144.428L126.162 144.436L124.412 144.438L124.387 130.231C130.002 130.141 135.625 130.193 141.241 130.183Z" fill="#476EA1"/>
<path d="M107.383 130.182L122.258 130.26C122.296 134.987 122.293 139.713 122.25 144.439L117.396 144.451L102.651 144.559L102.563 136.92C102.547 135.528 102.422 134.042 102.621 132.664C102.708 132.055 102.906 131.313 103.338 130.851C104.213 129.915 106.229 130.178 107.383 130.182Z" fill="#476EA1"/>
<path d="M223.353 11.1631C223.333 9.55533 222.915 2.74693 223.571 1.75768C223.791 1.42584 224.301 1.18726 224.676 1.13388C227.085 0.790509 232.385 1.09071 235.176 1.09631C241.468 1.10883 247.809 0.920014 254.095 1.10554C254.575 1.11971 255.781 1.06962 256.14 1.38037C257.144 2.24835 257.084 4.05384 257.159 5.27606C256.934 7.18964 257.108 9.29368 257.168 11.2204C253.47 10.9545 249.651 11.1423 245.937 11.1298C238.409 11.0923 230.881 11.1033 223.353 11.1631Z" fill="#F4C989"/>
<path d="M243.14 3.78076C243.493 3.87698 243.693 4.04999 243.973 4.27967C244.331 5.03726 244.182 5.68907 244.016 6.48323C243.681 6.45588 243.492 6.42523 243.202 6.24795C242.845 5.43236 242.824 4.61282 243.14 3.78076Z" fill="#FEFEFE"/>
<path d="M240.958 3.93472C241.206 3.92055 241.48 3.88759 241.727 3.91099C242.148 3.95053 242.206 3.97064 242.459 4.2771C242.417 4.88047 242.038 5.43012 241.752 5.95275C241.775 6.19825 241.789 6.05622 241.63 6.36301L241.384 6.33105C240.918 5.56226 240.912 4.80863 240.958 3.93472Z" fill="#FEFEFE"/>
<path d="M236.148 3.91895C236.66 3.93674 237.033 3.86392 237.463 4.15489L237.523 4.53286C237.284 5.12305 237.116 5.71126 236.957 6.32781C236.733 6.40953 236.519 6.37954 236.282 6.37691C236.015 6.18216 235.939 6.11065 235.862 5.76497C235.737 5.2018 235.829 4.39841 236.148 3.91895Z" fill="#FEFEFE"/>
<path d="M238.734 3.8938C239.294 3.93301 239.861 4.04176 240.418 4.12117C240.437 4.83494 240.502 5.54771 240.32 6.24433L239.963 6.40547C239.394 6.41239 238.743 6.50598 238.304 6.0677C237.996 5.75992 237.859 5.50553 237.911 5.06297C237.973 4.53408 238.364 4.2197 238.734 3.8938Z" fill="#FEFEFE"/>
<path d="M226.508 3.06396L226.702 3.07319C227.623 3.10713 228.403 3.49894 229.242 3.85154C229.255 4.35638 229.293 4.88362 229.261 5.38747C229.234 5.80235 229.236 6.06828 228.924 6.36288C228.436 5.66197 228.777 4.65131 228.245 3.98006C228.186 3.90558 228.121 3.83671 228.058 3.76487C227.758 3.79519 227.541 3.83671 227.255 3.94677C226.941 4.06771 227.037 3.97643 226.92 4.25983C227.176 4.60484 227.487 4.88527 227.798 5.17921C227.902 5.56641 227.983 5.74798 227.688 6.09432C227.384 6.45021 227.047 6.37606 226.628 6.38364C226.112 5.75885 226.456 3.86439 226.508 3.06396Z" fill="#FEFEFE"/>
<path d="M138.665 120.016L139.607 120.067C142.829 120.177 146.079 120.071 149.305 120.056L165.535 120.068L175.427 120.132C176.769 120.14 178.458 120.352 179.756 120.091C182.28 120.028 185.116 119.791 187.609 120.111L187.811 120.13C190.467 120.349 193.203 120.225 195.87 120.225L209.855 120.232C213.05 120.242 216.541 119.999 219.644 120.819C222.071 121.46 224.095 122.677 225.726 124.599C226.402 125.397 226.976 126.278 227.498 127.184C223.033 127.127 218.568 127.105 214.103 127.119C211.619 127.118 209.069 127 206.593 127.163L101.547 126.781C101.579 125.027 101.407 122.858 102.713 121.489C103.377 120.792 104.43 120.576 105.346 120.455C107.731 120.138 110.324 120.328 112.73 120.324C117.789 120.35 122.848 120.316 127.906 120.221C130.297 120.242 132.73 120.304 135.112 120.086C136.294 120.079 137.484 120.097 138.665 120.016Z" fill="#57DBC6"/>
<path d="M268.678 117.303C268.943 117.28 269.208 117.264 269.473 117.253C269.739 117.243 270.005 117.239 270.27 117.24C270.536 117.242 270.802 117.25 271.067 117.263C271.332 117.277 271.597 117.297 271.862 117.322C272.126 117.348 272.39 117.38 272.653 117.417C272.916 117.455 273.178 117.498 273.439 117.548C273.7 117.597 273.96 117.652 274.219 117.714C274.478 117.775 274.735 117.842 274.99 117.915C275.246 117.987 275.5 118.066 275.752 118.15C276.004 118.234 276.254 118.324 276.502 118.42C276.75 118.516 276.996 118.617 277.24 118.724C277.483 118.83 277.724 118.942 277.963 119.06C278.201 119.178 278.437 119.301 278.67 119.429C278.903 119.557 279.133 119.691 279.36 119.829C279.587 119.968 279.811 120.112 280.031 120.26C280.252 120.409 280.469 120.563 280.682 120.722C284.383 123.488 286.912 127.974 287.547 132.548C288.214 137.355 287.038 142.003 284.084 145.851C281.041 149.814 276.566 152.212 271.656 152.821C267.247 152.99 263.327 152.177 259.717 149.52C255.876 146.692 253.267 142.572 252.567 137.823C251.885 133.194 253.216 128.243 255.984 124.498C259.122 120.252 263.53 118.088 268.678 117.303Z" fill="#57DBC6"/>
<path d="M269.151 127.666C270.686 127.618 272.095 127.689 273.491 128.425C275.22 129.337 276.399 131.035 276.953 132.886C277.517 134.771 277.295 136.688 276.332 138.403C275.236 140.355 273.51 141.335 271.442 141.961C269.557 142.195 267.871 142.02 266.231 140.969C264.607 139.929 263.342 138.279 262.956 136.366C262.577 134.483 262.905 132.429 263.992 130.833C265.234 129.01 267.038 128.064 269.151 127.666Z" fill="#FEFEFE"/>
<path d="M223.353 11.1632C230.881 11.1035 238.409 11.0924 245.937 11.1299C249.651 11.1425 253.47 10.9546 257.168 11.2206C257.313 17.5363 257.364 23.8528 257.321 30.1701C257.313 33.933 257.409 37.7523 257.199 41.5086C256.573 42.0042 255.96 42.5216 255.278 42.9374C248.962 43.0158 242.644 42.8422 236.328 42.9559C233.814 43.2969 229.187 43.4172 226.666 43.1872C225.691 43.0982 224.726 42.8132 224.116 41.9933C223.743 41.4914 223.556 40.8821 223.449 40.2725C223.059 38.0633 223.066 30.0265 223.329 27.6753C223.572 22.2084 223.355 16.641 223.353 11.1632Z" fill="#9492EE"/>
<path d="M233 34.0868C233.425 34.0551 233.746 34.033 234.167 34.1326C234.339 34.3563 234.423 34.4183 234.476 34.7079C234.769 36.3249 232.451 39.1958 231.553 40.4341C231.239 39.8054 230.917 39.1806 230.588 38.5598C229.856 37.3824 228.721 35.8876 228.467 34.5056C228.578 34.4011 228.752 34.2235 228.887 34.1596C229.833 33.7141 230.938 34.9231 231.746 35.3142C232.358 35.1498 232.273 34.4763 233 34.0868Z" fill="#57DBC6"/>
<path d="M232.071 16.1183C232.853 16.0883 233.627 16.03 234.405 16.1381L234.583 16.4195C234.573 18.3601 232.495 21.0184 231.491 22.6472L230.568 21.1871C229.977 20.1165 229.321 19.0399 228.804 17.9333C228.581 17.4552 228.432 17.0143 228.611 16.4982C229.007 16.2218 229.121 16.2379 229.611 16.2089C230.402 16.5427 230.954 17.4219 231.492 18.0747L232.071 16.1183Z" fill="#57DBC6"/>
<path d="M232.618 25.1533C233.363 25.1348 234.089 25.1895 234.831 25.2482C234.052 27.7955 232.648 30.1618 231.514 32.5638L230.072 30.0392C229.19 28.5145 228.311 26.9512 227.6 25.3385C228.389 25.3639 229.181 25.4733 229.966 25.5553C230.505 26.0246 231.01 26.5482 231.526 27.0441C231.828 26.3123 232.086 25.7527 232.618 25.1533Z" fill="#57DBC6"/>
<path d="M277.412 41.1562C285.337 41.5427 293.338 40.768 301.269 41.2791C301.139 41.9771 301.318 43.1993 300.967 43.7315C300.585 43.9816 300.302 44.0564 300.222 44.5569C300.101 45.3093 300.481 46.3644 301.026 46.887C301.535 47.3748 302.204 47.5791 302.898 47.556C303.731 47.5286 304.601 47.1734 305.164 46.5443C305.216 46.4872 305.265 46.4276 305.31 46.3654C305.356 46.303 305.398 46.2384 305.437 46.1716C305.476 46.1049 305.511 46.0361 305.542 45.9654C305.574 45.8948 305.601 45.8228 305.625 45.7492C305.649 45.6758 305.668 45.6012 305.684 45.5254C305.7 45.4499 305.712 45.3736 305.72 45.2967C305.728 45.2198 305.731 45.1427 305.731 45.0654C305.73 44.9881 305.726 44.911 305.717 44.8341C305.632 44.0458 305.115 43.5305 304.594 42.9871C304.574 42.4368 304.598 41.9164 304.657 41.3694C307.198 41.0573 309.847 41.4396 312.41 41.2261L312.588 41.2096C313.707 41.7411 314.158 42.0245 314.668 43.1564C314.584 52.9057 314.557 62.6552 314.588 72.4051C314.592 75.7686 314.977 83.0723 314.346 85.9626C313.843 86.3656 313.355 86.77 312.795 87.0926C310.046 87.2366 307.253 87.0936 304.498 87.083L288.935 87.0563L271.948 87.0745C268.941 87.0903 265.887 87.2382 262.884 87.1364C262.451 87.1219 262.04 87.1077 261.675 86.8362C261.409 86.6378 261.19 86.2585 261.005 85.9844C260.666 83.6068 260.858 81.0362 260.866 78.6296L260.861 66.7494L260.771 51.4622C260.763 48.7377 260.542 45.8125 260.958 43.1195C261.039 42.5949 261.165 42.3926 261.612 42.0842C263.252 40.9499 268.182 41.1147 270.138 41.4277C270.066 42.0486 270.158 42.6651 270.221 43.2836C270.096 43.456 269.983 43.5726 269.813 43.7021C269.568 43.8883 269.25 44.0748 269.125 44.3704C268.941 44.8054 268.932 45.4918 269.088 45.9344C269.3 46.5391 269.8 46.9836 270.368 47.2495C271.204 47.6413 272.379 47.7563 273.242 47.3843C273.855 47.1204 274.308 46.602 274.545 45.9812C274.842 45.2032 274.76 44.468 274.452 43.7157C274.258 43.5812 273.988 43.4276 273.833 43.252C273.447 42.8114 273.606 41.7731 273.6 41.2017C274.876 41.287 276.137 41.2432 277.412 41.1562Z" fill="#9492EE"/>
<path d="M266.194 55.3406C266.224 55.3386 266.255 55.3363 266.285 55.3347C273.861 54.9511 281.614 55.2793 289.202 55.3067C292.959 55.33 296.716 55.3317 300.473 55.3119C302.714 55.2965 305 55.1732 307.236 55.2694C307.783 55.2932 308.438 55.2859 308.864 55.6629C309.611 56.922 309.221 69.3525 309.269 71.8803C309.307 73.9228 309.695 81.7435 309.262 83.2514C309.152 83.635 308.975 83.8077 308.707 84.0878C307.008 84.47 304.99 84.2519 303.244 84.239L294.063 84.1853L276.738 84.1846C273.395 84.1784 269.911 84.3913 266.605 83.9151L266.51 83.7859L266.086 83.7724C265.89 83.3186 265.865 82.8761 265.841 82.3877C265.623 77.9384 265.863 73.3856 265.845 68.9258C265.829 64.8011 265.53 60.5356 265.795 56.4238C265.825 55.9614 265.875 55.7005 266.194 55.3406Z" fill="#FEFEFE"/>
<path d="M288.504 60.5512L304.884 60.4958L304.887 67.9857C299.431 67.9455 293.954 67.8028 288.5 67.9449C288.567 65.4829 288.519 63.0141 288.504 60.5512Z" fill="#B5EBE2"/>
<path d="M56.0145 61.4214C56.3417 61.4968 56.4783 61.4814 56.7313 61.7157C56.7802 61.7344 56.8281 61.7575 56.8787 61.7723C57.8216 62.0505 60.6284 62.0847 61.4604 61.6824C61.6793 61.7021 61.9412 61.7028 62.1529 61.7568L62.4282 61.7842L63.2313 61.9424C65.488 61.9035 67.7464 61.8366 70.0024 61.9236C70.6542 62.5497 71.201 63.158 71.7284 63.8948C71.4794 75.0988 71.374 86.3039 71.412 97.5101C71.395 102.72 71.5528 107.976 71.3667 113.18C71.3461 113.755 71.3805 114.39 71.0848 114.896C69.2925 115.489 57.9207 115.188 55.1409 115.135C53.4073 114.99 51.5737 115.102 49.8293 115.101L39.7818 115.083L13.6428 114.979C13.388 112.456 13.5644 109.741 13.5494 107.199C13.4671 101.53 13.4801 95.8611 13.5885 90.1926L13.6659 75.3961C13.6797 72.5423 13.6174 69.631 13.805 66.7838C13.8488 66.1192 13.9888 65.5422 14.2173 64.9187C14.519 64.4234 14.8547 63.9321 15.2607 63.5165C17.0469 61.688 19.644 61.9048 21.9762 61.946L23.0157 61.8237L23.7674 61.8445C25.3554 61.8623 26.9484 61.9071 28.536 61.8616L29.2124 61.861L29.8603 61.8013C31.8587 62.092 34.0639 61.9015 36.0925 61.9005L48.2559 61.8936C50.3245 61.8923 52.4834 61.7697 54.5432 61.9117C54.9243 61.9249 55.3099 61.9628 55.6808 61.8547C55.9299 61.7819 55.9148 61.6399 56.0145 61.4214Z" fill="#9492EE"/>
<path d="M23.0159 61.8237L23.7677 61.8444C25.3557 61.8622 26.9487 61.9071 28.5363 61.8616L29.2127 61.8609L29.8606 61.8013C30.0299 62.5381 29.9262 63.1461 29.8218 63.8803C27.6321 63.9403 24.7819 64.3479 22.6741 63.7817C22.1761 63.648 21.973 63.4236 21.7246 62.9886C21.7544 62.58 21.7903 62.3127 21.9764 61.9459L23.0159 61.8237Z" fill="#476EA1"/>
<path d="M56.0161 61.4214C56.3433 61.4968 56.4798 61.4814 56.7328 61.7157C56.7817 61.7344 56.8297 61.7575 56.8802 61.7723C57.8231 62.0505 60.6299 62.0847 61.4619 61.6824C61.6808 61.7021 61.9427 61.7028 62.1544 61.7568L62.4297 61.7842L63.2328 61.9424C63.3408 62.3279 63.3553 62.6502 63.3658 63.0473C63.2584 63.2635 63.2483 63.447 63.0034 63.5244C61.9548 63.8566 55.5313 63.9578 54.6822 63.5139C54.4502 62.9636 54.5067 62.4986 54.5447 61.9117C54.9258 61.9249 55.3114 61.9628 55.6823 61.8547C55.9314 61.7819 55.9163 61.6399 56.0161 61.4214Z" fill="#476EA1"/>
<path d="M21.0723 71.2295C25.1591 71.3412 29.2593 71.2588 33.3486 71.2773L63.5201 71.3336L63.4364 107.898C58.1737 108.07 52.8398 107.894 47.5709 107.868L21.187 107.819C21.2091 95.6433 21.4745 83.3947 21.0723 71.2295Z" fill="#FEFEFE"/>
<path d="M25.2832 98.9749L28.64 98.9614C28.7195 101.251 28.7135 103.587 28.5964 105.876L25.2914 105.875L25.2832 98.9749Z" fill="#9492EE"/>
<path d="M32.9906 93.0222C34.0343 92.9902 35.0859 93.0209 36.1305 93.0258C36.1988 97.2561 36.2243 101.487 36.207 105.718L32.9805 105.742L32.9906 93.0222Z" fill="#9492EE"/>
<path d="M47.9375 87.3807C49.0281 87.353 50.1069 87.3876 51.1965 87.4383C51.1926 93.5923 51.3445 99.7466 51.3839 105.901L47.8984 105.895L47.9375 87.3807Z" fill="#B5EBE2"/>
<path d="M40.1953 85.5121C41.3053 85.4716 42.4215 85.4808 43.5324 85.4683L43.4908 105.86L40.1983 105.871C40.2479 99.0849 40.2469 92.2984 40.1953 85.5121Z" fill="#B5EBE2"/>
<path d="M55.8009 85.871C56.7987 85.8215 57.802 85.8172 58.801 85.7952C58.9028 88.2617 59.2365 104.475 58.7154 105.855L55.4685 105.868C55.3162 101.426 55.4284 96.9395 55.4343 92.4925C55.437 90.4679 55.1688 88.0152 55.5069 86.0469L55.8009 85.871Z" fill="#B5EBE2"/>
<path d="M58.622 74.2114C59.5141 74.2147 60.2246 74.7841 60.9493 75.2471C59.4186 76.4766 58.0391 77.9041 56.514 79.1481C54.1503 81.0765 51.4768 82.8322 49.3796 85.0562C47.4701 83.6561 45.3476 82.6088 43.194 81.6505C41.2031 82.995 39.3505 84.7653 37.4892 86.2969C33.6292 89.4839 29.7518 92.6497 25.8572 95.7943C25.7206 95.9037 25.4673 96.1419 25.2933 96.2124C24.9002 96.3716 24.7657 96.2339 24.4213 96.0546C24.1091 95.6183 23.9795 95.2051 24.0002 94.6679C24.0197 94.1592 24.2454 93.913 24.5766 93.5489C25.8692 92.1269 27.597 90.9314 29.085 89.7224L37.2697 83.0646C38.9983 81.6805 40.8615 80.3568 42.4644 78.8324L42.6128 78.6887C44.7933 79.6104 46.9306 80.6992 49.0724 81.7112C52.4046 79.5758 55.4749 76.6394 58.622 74.2114Z" fill="#9492EE"/>
<path d="M37.2983 153.002C46.3133 152.979 55.3411 152.911 64.3548 153.021C71.9684 153.075 79.582 153.089 87.1958 153.062C87.6593 153.089 88.1959 153.078 88.5454 153.436C88.8828 153.781 89.0909 154.365 89.0531 154.847C89.0134 155.354 88.6845 155.95 88.2933 156.269C88.0347 156.48 87.7446 156.535 87.4302 156.609L85.6248 156.597C85.6435 160.961 85.4974 165.391 85.6924 169.746C86.0327 172.713 85.8483 175.854 85.8407 178.84C94.0073 178.7 102.191 178.402 110.356 178.372L121.365 178.371C123.172 178.373 125.047 178.483 126.846 178.355C127.914 178.98 129.023 179.513 130.232 179.796C132.911 180.426 135.263 179.562 137.49 178.15C138.892 176.952 139.809 175.763 140.791 174.202L144.23 174.592C155.13 174.604 166.445 174.859 177.306 174.572C182.327 174.614 187.409 174.708 192.428 174.553C193.195 176.154 194.057 177.5 195.412 178.67C197.84 180.264 200.354 181.255 203.312 180.64C204.875 180.316 206.207 179.6 207.493 178.673C207.577 178.7 207.66 178.729 207.744 178.754C208.986 179.122 210.946 178.914 212.256 178.936L224.943 179.082C234.107 179.246 300.291 180.33 302.529 183.865C302.081 184.583 300.926 184.801 300.13 184.982C297.57 185.563 294.801 185.696 292.187 185.951C286.59 186.534 280.981 186.962 275.361 187.234C259.537 188.259 243.696 188.84 227.84 188.978C199.262 189.768 170.678 190.072 142.089 189.89C113.062 189.588 84.0507 188.73 55.0562 187.318C50.7 187.115 25.1604 185.858 23.0278 184.546C22.966 184.508 22.9073 184.465 22.8471 184.425L22.8086 184.115C23.7756 182.872 26.5743 182.603 28.0408 182.428C29.8042 182.216 36.9901 181.925 38.0515 181.308C37.1857 180.82 36.5891 180.241 35.9826 179.454C35.5408 178.725 35.2326 177.995 35.0931 177.147C34.6668 174.557 34.9087 171.695 34.9195 169.074C34.9353 164.988 34.9304 160.902 34.9048 156.816C33.6819 156.826 32.6526 156.968 31.7107 156.054C31.3228 155.677 31.0737 155.159 31.117 154.608C31.1515 154.167 31.3632 153.783 31.6959 153.499C32.7626 152.59 35.893 152.986 37.2983 153.002Z" fill="#B5EBE2"/>
<path d="M140.791 174.202L144.23 174.592C155.13 174.604 166.445 174.859 177.306 174.572C182.327 174.614 187.409 174.708 192.428 174.553C193.195 176.154 194.057 177.5 195.413 178.67C193.758 179.036 189.244 178.666 187.274 178.633L164.728 178.244L145.768 178.213C143.13 178.212 140.079 178.542 137.49 178.15C138.892 176.952 139.809 175.763 140.791 174.202Z" fill="#FEFEFE"/>
<path d="M37.2995 153.002C46.3145 152.979 55.3423 152.911 64.3559 153.021C71.9695 153.075 79.5832 153.089 87.197 153.062C87.6604 153.089 88.197 153.078 88.5466 153.436C88.8839 153.781 89.092 154.365 89.0543 154.847C89.0146 155.354 88.6857 155.95 88.2945 156.269C88.0359 156.48 87.7457 156.535 87.4313 156.609L85.6259 156.597C85.6446 160.961 85.4986 165.391 85.6935 169.746C85.6361 172.58 86.408 178.99 84.4142 180.9C82.6554 182.585 79.8371 182.273 77.6073 182.218C76.3854 182.246 75.1629 182.29 73.9413 182.22C69.4391 182.412 64.8735 182.261 60.365 182.254C55.7738 182.247 51.1485 182.383 46.5639 182.157C43.7132 182.211 40.7334 182.447 38.0527 181.308C37.1869 180.82 36.5902 180.241 35.9837 179.454C35.542 178.725 35.2338 177.995 35.0943 177.147C34.668 174.557 34.9099 171.695 34.9207 169.074C34.9364 164.988 34.9315 160.902 34.9059 156.816C33.683 156.826 32.6538 156.968 31.7119 156.054C31.3239 155.677 31.0748 155.159 31.1182 154.608C31.1526 154.167 31.3643 153.783 31.6971 153.499C32.7638 152.59 35.8941 152.986 37.2995 153.002Z" fill="#1BBC9A"/>
<path d="M53.9977 162.573C56.1107 162.448 57.9161 162.766 59.7645 163.827C62.013 165.118 63.3898 167.247 64.02 169.726C64.6472 172.192 64.1214 174.715 62.8283 176.869C61.3829 179.276 59.3713 180.515 56.6942 181.184C54.3843 181.257 52.2156 181.18 50.1804 179.933C48.1751 178.705 46.843 176.618 46.288 174.354C45.6631 171.803 46.2082 168.997 47.6044 166.789C49.099 164.423 51.3587 163.207 53.9977 162.573Z" fill="#57DBC6"/>
<path d="M54.6521 167.049C55.7492 167.058 56.7286 167.316 57.6558 167.924C57.7765 168.003 57.8933 168.088 58.0059 168.179C58.1184 168.269 58.2262 168.365 58.3292 168.467C58.4323 168.568 58.5301 168.674 58.6226 168.785C58.7154 168.896 58.8024 169.012 58.8835 169.131C58.9649 169.251 59.0402 169.374 59.1093 169.502C59.1785 169.629 59.2412 169.759 59.2974 169.892C59.3539 170.026 59.4035 170.161 59.4464 170.3C59.4895 170.438 59.5256 170.578 59.5547 170.72C59.815 171.971 59.5665 173.398 58.8527 174.461C57.983 175.757 56.8021 176.234 55.3301 176.532C54.3088 176.6 53.2756 176.43 52.3911 175.89C51.4085 175.29 50.754 174.321 50.4908 173.203C50.4521 173.035 50.4219 172.865 50.4002 172.693C50.3786 172.522 50.3656 172.35 50.3612 172.177C50.3566 172.004 50.3607 171.831 50.3737 171.659C50.3866 171.486 50.408 171.315 50.438 171.145C50.468 170.975 50.5062 170.806 50.5529 170.64C50.5997 170.473 50.6547 170.31 50.7179 170.149C50.7812 169.988 50.8522 169.831 50.9309 169.677C51.0099 169.524 51.0964 169.374 51.1902 169.229C52.0353 167.942 53.1837 167.344 54.6521 167.049Z" fill="#1BBC9A"/>
<path d="M79.3416 156.627L85.626 156.597C85.6447 160.961 85.4986 165.392 85.6936 169.747C85.6362 172.581 86.4081 178.991 84.4143 180.901C82.6554 182.586 79.8372 182.274 77.6074 182.219C76.3855 182.247 75.163 182.291 73.9414 182.221C74.5525 179.897 74.1846 175.845 74.179 173.36L74.1675 156.815L79.293 156.779L79.3416 156.627Z" fill="#57DBC6"/>
<path d="M37.2995 153.002C46.3145 152.979 55.3423 152.911 64.3559 153.021C71.9695 153.075 79.5832 153.089 87.197 153.062C87.6604 153.089 88.197 153.078 88.5466 153.436C88.8839 153.781 89.092 154.365 89.0543 154.847C89.0146 155.354 88.6857 155.95 88.2945 156.269C88.0359 156.48 87.7457 156.535 87.4313 156.609L85.6259 156.597L79.3415 156.626C75.862 156.44 72.3108 156.734 68.8227 156.756C60.5696 156.839 52.3163 156.867 44.0627 156.839C43.233 158.981 42.5454 161.17 41.7538 163.326C40.8513 165.783 39.5982 168.412 39.1492 170.986L38.9917 171.147L38.9451 171.354C38.4954 173.279 36.0996 177.915 36.9496 179.54C37.564 180.715 40.2779 181.463 41.5037 181.719C42.5326 181.935 46.0929 181.873 46.5639 182.157C43.7132 182.211 40.7334 182.447 38.0527 181.308C37.1869 180.82 36.5902 180.241 35.9837 179.454C35.542 178.725 35.2338 177.995 35.0943 177.147C34.668 174.557 34.9099 171.695 34.9207 169.074C34.9364 164.988 34.9315 160.902 34.9059 156.816C33.683 156.826 32.6538 156.968 31.7119 156.054C31.3239 155.677 31.0748 155.159 31.1182 154.608C31.1526 154.167 31.3643 153.783 31.6971 153.499C32.7638 152.59 35.8941 152.986 37.2995 153.002Z" fill="#0B8574"/>
<path d="M208.303 129.777C214.748 129.719 221.194 129.702 227.639 129.726C229.762 135.542 231.284 141.583 233.351 147.428C234.122 149.729 233.918 153.683 233.734 156.155C233.749 157.409 233.772 158.662 233.725 159.916L233.7 165.535C231.752 165.515 229.077 165.169 227.284 166.017C226.841 166.426 226.576 166.81 226.293 167.342C226.403 168.142 226.333 168.932 226.291 169.734C225.369 169.786 224.385 169.779 223.477 169.923C219.689 170.113 215.827 170.025 212.034 169.972C211.634 170.16 211.482 170.146 211.343 170.593C210.992 171.725 211.181 172.961 210.787 174.143L210.421 174.835C209.543 176.248 208.727 177.546 207.493 178.675C206.207 179.601 204.875 180.317 203.312 180.642C200.354 181.256 197.84 180.265 195.413 178.671C194.058 177.501 193.195 176.155 192.428 174.554C187.409 174.709 182.327 174.615 177.306 174.573C166.445 174.86 155.13 174.605 144.23 174.594L140.791 174.203C139.809 175.764 138.892 176.953 137.49 178.151C135.263 179.564 132.911 180.427 130.232 179.798C129.023 179.514 127.914 178.981 126.846 178.356C125.048 178.484 123.172 178.375 121.365 178.372L110.356 178.374C102.191 178.403 94.0075 178.701 85.8409 178.841C85.8484 175.855 86.0329 172.714 85.6925 169.748C85.4976 165.392 85.6436 160.962 85.6249 156.598L87.4303 156.611C90.629 160.423 94.1135 163.962 97.2977 167.779C97.5116 165.317 97.2268 162.86 98.1526 160.527C98.9584 160.453 99.8258 160.44 100.613 160.265C100.496 155.53 100.892 150.71 100.542 145.99C102.798 145.578 107.076 145.895 109.512 145.899L129.016 145.888L206.136 145.924L206.134 129.79L208.303 129.777Z" fill="#1BBC9A"/>
<path d="M119.596 169.707C119.872 166.328 120.944 163.375 123.475 161.03C126.032 158.661 129.389 157.573 132.846 157.776C133.676 157.825 134.248 158.019 134.791 158.656C131.601 158.132 128.433 158.414 125.737 160.343C123.415 162.003 121.58 164.761 121.128 167.603C121.085 167.876 121.047 168.151 121.013 168.425C120.899 168.933 120.908 169.177 120.536 169.55C120.224 169.604 119.91 169.668 119.596 169.707Z" fill="#0B8574"/>
<path d="M193.373 161.716C193.553 160.858 195.01 159.664 195.711 159.216C195.889 159.102 196.069 158.992 196.252 158.887C196.435 158.782 196.621 158.682 196.809 158.586C196.997 158.49 197.187 158.399 197.38 158.313C197.573 158.227 197.767 158.145 197.964 158.068C198.16 157.992 198.358 157.92 198.558 157.853C198.758 157.786 198.96 157.724 199.163 157.667C199.366 157.61 199.57 157.558 199.776 157.512C199.982 157.465 200.188 157.423 200.396 157.386C200.604 157.35 200.812 157.318 201.021 157.292C201.231 157.266 201.44 157.245 201.651 157.229C201.861 157.213 202.071 157.202 202.282 157.197C202.493 157.191 202.704 157.191 202.914 157.196C203.125 157.201 203.336 157.211 203.546 157.227C203.756 157.242 203.966 157.263 204.175 157.289C204.385 157.314 204.593 157.345 204.801 157.381C205.009 157.417 205.216 157.459 205.421 157.505C208.661 158.243 210.392 160.31 212.062 163.011C213.011 164.547 213.553 166.22 213.272 168.034C212.623 165.955 211.776 163.944 210.314 162.301C208.267 160 205.202 158.662 202.156 158.501C198.753 158.321 195.879 159.431 193.373 161.716Z" fill="#0B8574"/>
<path d="M214.941 149.362C216.514 149.445 218.11 149.102 219.676 148.952C221.101 148.817 222.517 148.817 223.946 148.829C224.388 149.297 224.8 149.752 225.335 150.115L225.71 150.009C225.863 149.79 226.02 149.527 226.205 149.336C226.801 148.724 232.437 149.047 233.643 149.05L233.646 154.656L233.734 156.155C233.75 157.409 233.773 158.662 233.725 159.916L233.701 165.535C231.752 165.514 229.078 165.169 227.285 166.016C226.774 165.179 226.024 165.092 225.614 164.554C224.967 163.7 226.063 152.784 225.537 150.653L225.326 150.548C225.298 150.585 225.264 150.619 225.242 150.66C224.879 151.323 224.817 163.523 224.975 164.654C221.913 164.807 217.897 164.439 215.019 164.928C215.21 159.767 214.991 154.529 214.941 149.362Z" fill="#0B8574"/>
<path d="M216.213 161.983C216.732 162.148 217.106 162.357 217.402 162.819L217.264 163.144C216.787 163.131 216.396 163.11 215.936 162.954C215.84 162.488 215.986 162.389 216.213 161.983Z" fill="#1BBC9A"/>
<path d="M220.023 152.997C220.246 152.692 220.275 152.657 220.669 152.596C221.406 152.481 222.268 152.659 222.999 152.78C222.951 154.872 223.095 161.86 222.767 163.218C222.423 163.344 222.352 163.317 221.988 163.243C222.142 159.894 222.034 156.504 222.032 153.15C221.326 153.209 220.67 153.347 220.023 152.997Z" fill="#1BBC9A"/>
<path d="M220.023 152.997C220.67 153.347 221.326 153.209 222.032 153.151C222.034 156.505 222.142 159.894 221.988 163.243C221.403 163.23 220.826 163.244 220.255 163.094C219.725 159.897 220.364 156.427 220.043 153.182C220.038 153.12 220.03 153.059 220.023 152.997Z" fill="#FEFEFE"/>
<path d="M233.647 154.655L233.735 156.154C233.75 157.409 233.773 158.661 233.725 159.915L233.07 159.633C231.864 159.613 228.914 159.978 227.977 159.275C227.514 158.324 227.129 157.203 227.312 156.129C227.402 155.602 227.623 155.249 228.088 154.968C229.09 154.363 231.735 154.718 232.86 154.967C233.142 154.901 233.383 154.775 233.647 154.655Z" fill="#FEFEFE"/>
<path d="M233.647 154.656L233.735 156.155C233.75 157.41 233.773 158.662 233.725 159.916L233.07 159.634C233.075 159.403 233.075 159.172 233.071 158.941C233.009 156.218 232.85 158.446 231.822 157.458C232.531 156.635 232.868 156.32 232.863 155.19C232.863 155.116 232.861 155.042 232.86 154.968C233.142 154.902 233.383 154.776 233.647 154.656Z" fill="#237077"/>
<path d="M208.303 129.777C214.748 129.719 221.194 129.702 227.639 129.726C229.761 135.542 231.283 141.583 233.35 147.428C232.725 147.372 232.016 147.378 231.436 147.124C230.747 147.036 230.103 147.022 229.409 147.052C228.583 147.624 220.047 147.512 218.483 147.381C216.084 147.492 212.408 147.677 210.098 147.337L210.18 147.182C209.722 147.151 209.266 147.116 208.81 147.066C208.61 145.373 208.724 143.559 208.721 141.848C208.737 138.425 208.715 135.003 208.654 131.581C208.599 130.931 208.553 130.382 208.303 129.777Z" fill="#476EA1"/>
<path d="M208.654 131.58C209.146 131.571 209.831 131.466 210.242 131.753L210.309 132.042C210.328 134.218 210.728 145.875 210.18 147.182C209.723 147.151 209.267 147.115 208.811 147.066C208.611 145.373 208.725 143.558 208.721 141.848C208.738 138.425 208.716 135.003 208.654 131.58Z" fill="#FEFEFE"/>
<path d="M225.096 146.935C224.508 145.339 221.819 133.549 222.252 132.503C222.471 131.975 222.955 131.79 223.465 131.661C224.568 131.382 225.874 131.273 226.964 131.607C228.103 132.686 231.829 144.542 231.888 146.343C231.895 146.552 231.843 146.708 231.751 146.892L231.437 147.124C230.748 147.036 230.103 147.022 229.409 147.052C227.972 146.935 226.537 146.939 225.096 146.935Z" fill="#FEFEFE"/>
<path d="M211.588 132.055C212.765 131.658 219.227 131.47 220.215 131.945C220.931 132.289 221.413 134.43 221.591 135.189C222.501 139.088 223.17 143.067 224.005 146.987C222.789 147.012 221.549 146.989 220.337 147.08C217.467 146.82 214.385 147.055 211.492 147.059C211.419 144.118 211.486 141.161 211.486 138.219C211.485 136.188 211.331 134.07 211.588 132.055Z" fill="#FEFEFE"/>
<path d="M85.6249 156.597L87.4303 156.61C90.629 160.423 94.1135 163.962 97.2977 167.779C97.5116 165.317 97.2268 162.859 98.1526 160.526C98.9584 160.453 99.8258 160.44 100.613 160.265C101.232 160.288 101.857 160.291 102.28 160.832C103.274 162.105 102.696 165.777 102.779 167.417C102.868 168.267 102.849 168.981 102.752 169.825L114.108 169.709C115.845 169.702 117.77 169.541 119.488 169.742L119.596 169.707C119.91 169.669 120.223 169.605 120.536 169.551C120.908 169.178 120.899 168.934 121.013 168.426C121.047 168.151 121.085 167.877 121.128 167.604C121.58 164.761 123.415 162.004 125.736 160.343C128.433 158.415 131.601 158.133 134.791 158.656C138.182 159.761 140.474 161.33 142.115 164.604C142.945 166.261 143.347 167.977 143.563 169.808C158.968 169.733 174.372 169.736 189.776 169.816C190.251 166.704 191.239 164.073 193.372 161.716C195.878 159.431 198.752 158.32 202.155 158.5C205.201 158.662 208.266 159.999 210.313 162.3C211.775 163.944 212.621 165.954 213.271 168.033C213.319 168.492 213.446 168.977 213.196 169.39C212.8 169.61 212.474 169.722 212.042 169.833L212.034 169.972C211.634 170.16 211.482 170.146 211.343 170.592C210.992 171.725 211.181 172.96 210.787 174.143L210.421 174.834C209.543 176.248 208.727 177.546 207.493 178.674C206.207 179.601 204.875 180.317 203.312 180.641C200.354 181.255 197.84 180.265 195.413 178.671C194.058 177.501 193.195 176.155 192.428 174.554C187.409 174.709 182.327 174.614 177.306 174.573C166.445 174.86 155.13 174.605 144.23 174.593L140.791 174.203C139.809 175.764 138.892 176.953 137.49 178.151C135.263 179.563 132.911 180.427 130.232 179.797C129.023 179.514 127.914 178.981 126.846 178.356C125.048 178.483 123.172 178.374 121.365 178.372L110.356 178.373C102.191 178.403 94.0075 178.701 85.8409 178.841C85.8484 175.855 86.0329 172.714 85.6925 169.747C85.4976 165.392 85.6436 160.961 85.6249 156.597Z" fill="#FEFEFE"/>
<path d="M97.5312 171.63C98.4128 172.785 99.1503 173.528 100.543 174.044C100.522 174.464 100.608 174.551 100.303 174.863C99.7404 174.772 99.2136 174.664 98.7318 174.34C97.8545 173.75 97.7344 172.582 97.5312 171.63Z" fill="#A1C779"/>
<path d="M119.596 169.707C119.91 169.668 120.224 169.604 120.536 169.55C120.909 169.177 120.899 168.933 121.013 168.425C121.065 169.232 121.104 170.04 121.207 170.842C121.12 171.09 121.12 171.368 120.851 171.467C120.409 171.631 119.854 171.526 119.391 171.491L119.488 169.741L119.596 169.707Z" fill="#237077"/>
<path d="M121.207 170.842L121.439 172.178C120.925 172.929 120.331 174.093 119.529 174.547L119.125 173.897C119.194 173.091 119.253 172.289 119.391 171.491C119.854 171.526 120.41 171.632 120.852 171.468C121.12 171.368 121.12 171.09 121.207 170.842Z" fill="#A1C779"/>
<path d="M102.78 167.417C102.868 168.267 102.85 168.981 102.753 169.825C101.509 169.885 98.5201 170.349 97.5661 169.668C97.3777 169.533 97.4089 169.405 97.3691 169.195C98.2934 168.404 101.131 169.34 102.513 168.786C102.857 168.318 102.768 167.989 102.78 167.417Z" fill="#5BC0BE"/>
<path d="M141.985 170.034L142.484 170.103L143.179 170.126C143.686 170.813 143.449 171.65 143.363 172.454C143.68 172.924 144.002 173.391 144.301 173.873L144.23 174.593L140.791 174.202C141.455 172.815 141.729 171.537 141.985 170.034Z" fill="#B5EBE2"/>
<path d="M100.544 174.044C106.721 173.756 112.939 174.225 119.123 173.898L119.527 174.548C119.18 174.717 118.837 174.839 118.45 174.877C115.675 175.151 112.655 174.915 109.859 174.918C106.736 174.921 103.401 175.176 100.303 174.863C100.608 174.551 100.522 174.464 100.544 174.044Z" fill="#99DA74"/>
<path d="M192.098 173.813L192.428 174.554C187.41 174.709 182.328 174.615 177.306 174.573C166.446 174.86 155.131 174.605 144.23 174.594L144.302 173.873C149.701 174.107 155.13 173.721 160.525 173.948C165.95 173.862 171.475 173.752 176.895 173.956C178.653 173.845 191.535 174.236 192.098 173.813Z" fill="#5BC0BE"/>
<path d="M126.847 178.355C126.549 178.136 126.258 177.907 125.975 177.668C123.916 175.904 122.551 173.446 122.346 170.721C122.144 168.045 122.859 165.319 124.663 163.294C124.77 163.176 124.879 163.06 124.992 162.947C125.105 162.834 125.22 162.724 125.338 162.617C125.456 162.51 125.576 162.406 125.7 162.304C125.823 162.203 125.948 162.105 126.076 162.01C126.204 161.915 126.334 161.823 126.466 161.734C126.599 161.646 126.733 161.56 126.87 161.478C127.006 161.396 127.145 161.318 127.285 161.242C127.425 161.167 127.567 161.095 127.711 161.027C127.855 160.959 128 160.894 128.147 160.833C128.294 160.772 128.443 160.715 128.593 160.661C128.743 160.607 128.894 160.557 129.046 160.511C129.198 160.464 129.351 160.422 129.506 160.383C129.66 160.344 129.815 160.309 129.971 160.279C130.127 160.247 130.284 160.22 130.441 160.196C130.599 160.173 130.757 160.154 130.915 160.138C131.073 160.123 131.232 160.111 131.391 160.103C134.094 159.945 136.77 160.74 138.8 162.59C140.956 164.554 141.844 167.179 141.985 170.034C141.729 171.536 141.456 172.814 140.791 174.202C139.81 175.763 138.893 176.952 137.491 178.15C135.263 179.563 132.911 180.426 130.233 179.797C129.024 179.513 127.915 178.98 126.847 178.355Z" fill="#476EA1"/>
<path d="M131.655 164.41C132.657 164.347 133.685 164.484 134.595 164.925C135.944 165.58 136.904 166.745 137.384 168.162C137.887 169.645 137.812 171.272 137.062 172.657C136.152 174.338 134.713 175.098 132.955 175.597C131.661 175.579 130.579 175.496 129.414 174.838C129.331 174.792 129.249 174.743 129.169 174.693C129.088 174.642 129.009 174.589 128.931 174.535C128.854 174.48 128.778 174.423 128.703 174.365C128.628 174.306 128.555 174.246 128.483 174.183C128.412 174.121 128.342 174.057 128.273 173.99C128.205 173.924 128.138 173.857 128.074 173.787C128.009 173.718 127.946 173.647 127.884 173.574C127.823 173.501 127.764 173.427 127.707 173.351C127.649 173.275 127.594 173.198 127.541 173.119C127.487 173.04 127.436 172.96 127.387 172.879C127.337 172.797 127.29 172.715 127.245 172.631C127.2 172.547 127.157 172.462 127.116 172.376C127.076 172.29 127.038 172.203 127.001 172.115C126.965 172.027 126.931 171.938 126.9 171.848C126.868 171.758 126.839 171.668 126.812 171.576C126.785 171.485 126.76 171.393 126.738 171.3C126.716 171.207 126.696 171.112 126.679 171.017C126.661 170.923 126.646 170.828 126.634 170.732C126.621 170.636 126.611 170.54 126.604 170.444C126.596 170.348 126.591 170.252 126.588 170.156C126.585 170.059 126.585 169.963 126.587 169.866C126.59 169.77 126.594 169.674 126.602 169.578C126.609 169.481 126.618 169.386 126.63 169.29C126.643 169.194 126.657 169.099 126.674 169.004C126.691 168.909 126.711 168.815 126.732 168.721C126.754 168.627 126.779 168.534 126.805 168.441C126.832 168.348 126.861 168.256 126.892 168.165C126.923 168.074 126.957 167.984 126.993 167.894C127.029 167.805 127.067 167.717 127.108 167.629C127.148 167.542 127.191 167.455 127.236 167.37C127.281 167.285 127.328 167.201 127.377 167.118C127.426 167.036 127.478 166.954 127.531 166.874C128.518 165.404 129.96 164.708 131.655 164.41Z" fill="#BBB6B5"/>
<path d="M132.961 166.468C133.882 166.682 134.519 167.121 135.042 167.921C135.111 168.028 135.174 168.138 135.232 168.251C135.289 168.364 135.341 168.479 135.387 168.597C135.433 168.716 135.473 168.836 135.507 168.958C135.541 169.08 135.569 169.203 135.591 169.328C135.613 169.453 135.628 169.579 135.638 169.705C135.647 169.832 135.65 169.958 135.647 170.085C135.644 170.212 135.635 170.338 135.619 170.464C135.603 170.59 135.581 170.715 135.553 170.838C135.37 171.647 134.851 172.213 134.243 172.738L133.349 172.457C133.947 171.942 134.461 171.294 134.723 170.541C134.994 169.759 135.043 168.86 134.642 168.113C134.19 167.27 133.559 166.944 132.668 166.709L132.961 166.468Z" fill="#ED9686"/>
<path d="M134.243 172.739C133.61 173.332 132.777 173.575 131.914 173.539C131.122 173.506 130.439 173.066 129.912 172.495C129.827 172.405 129.747 172.31 129.671 172.211C129.595 172.112 129.524 172.01 129.459 171.904C129.393 171.798 129.333 171.689 129.279 171.577C129.224 171.465 129.175 171.35 129.133 171.233C129.089 171.116 129.052 170.997 129.021 170.876C128.99 170.756 128.965 170.634 128.947 170.51C128.928 170.387 128.915 170.263 128.909 170.139C128.903 170.014 128.903 169.889 128.909 169.765C128.958 168.83 129.342 167.746 130.099 167.153C130.87 166.55 132.014 166.346 132.961 166.47L132.668 166.71C131.811 166.683 131.195 166.933 130.458 167.347C129.724 168.409 129.252 169.187 129.495 170.536C129.628 171.272 129.981 171.988 130.629 172.394C131.267 172.793 132.192 172.84 132.899 172.625C133.052 172.578 133.2 172.517 133.349 172.459L134.243 172.739Z" fill="#BD8666"/>
<path d="M130.457 167.347C131.194 166.932 131.81 166.683 132.667 166.709C133.559 166.944 134.189 167.27 134.641 168.113C135.042 168.861 134.993 169.759 134.722 170.542C134.46 171.295 133.946 171.943 133.348 172.458C133.199 172.516 133.051 172.577 132.898 172.624C132.191 172.839 131.266 172.792 130.628 172.394C129.98 171.988 129.627 171.271 129.494 170.535C129.251 169.186 129.723 168.409 130.457 167.347Z" fill="#F3B785"/>
<path d="M192.098 173.813C191.255 171.29 191.215 168.515 192.283 166.055C192.351 165.903 192.422 165.753 192.497 165.604C192.572 165.455 192.65 165.309 192.732 165.164C192.814 165.019 192.9 164.877 192.989 164.736C193.077 164.596 193.17 164.457 193.265 164.321C193.361 164.185 193.46 164.051 193.562 163.92C193.664 163.789 193.769 163.661 193.877 163.534C193.986 163.408 194.097 163.285 194.211 163.164C194.326 163.044 194.443 162.926 194.563 162.811C194.683 162.696 194.806 162.584 194.931 162.475C195.057 162.366 195.185 162.261 195.315 162.158C195.446 162.055 195.579 161.956 195.714 161.86C195.85 161.764 195.987 161.671 196.127 161.582C196.267 161.492 196.409 161.406 196.553 161.324C196.697 161.241 196.843 161.162 196.991 161.087C197.139 161.012 197.289 160.94 197.44 160.872C197.591 160.804 197.744 160.74 197.899 160.679C200.508 159.682 203.668 159.855 206.172 161.078C210.126 163.01 210.76 166 212.042 169.833L212.034 169.972C211.634 170.16 211.482 170.146 211.344 170.592C210.992 171.725 211.181 172.96 210.787 174.143L210.422 174.834C209.543 176.248 208.727 177.546 207.494 178.674C206.207 179.601 204.875 180.317 203.313 180.641C200.354 181.256 197.84 180.265 195.413 178.671C194.058 177.501 193.196 176.155 192.428 174.554L192.098 173.813Z" fill="#476EA1"/>
<path d="M200.307 164.559C201.702 164.481 202.965 164.451 204.257 165.064C205.71 165.753 206.761 167.035 207.276 168.551C207.31 168.653 207.341 168.755 207.369 168.858C207.397 168.961 207.423 169.064 207.447 169.169C207.47 169.273 207.491 169.378 207.508 169.483C207.527 169.588 207.542 169.694 207.555 169.8C207.567 169.906 207.577 170.013 207.585 170.119C207.592 170.226 207.597 170.333 207.599 170.44C207.601 170.547 207.601 170.653 207.598 170.76C207.594 170.867 207.589 170.974 207.58 171.08C207.571 171.187 207.56 171.293 207.546 171.399C207.532 171.505 207.516 171.61 207.497 171.715C207.477 171.821 207.456 171.925 207.431 172.03C207.407 172.133 207.38 172.237 207.351 172.34C207.321 172.442 207.289 172.544 207.254 172.645C207.22 172.746 207.182 172.846 207.143 172.946C207.103 173.045 207.061 173.143 207.016 173.24C206.972 173.337 206.925 173.433 206.876 173.528C206.023 175.162 204.667 176.076 202.952 176.621C201.526 176.742 200.153 176.615 198.858 175.964C198.765 175.917 198.674 175.869 198.584 175.817C198.494 175.766 198.405 175.713 198.318 175.657C198.231 175.602 198.145 175.544 198.061 175.484C197.977 175.423 197.894 175.361 197.813 175.297C197.732 175.232 197.653 175.166 197.575 175.097C197.497 175.029 197.422 174.959 197.347 174.886C197.273 174.814 197.201 174.739 197.131 174.663C197.061 174.587 196.993 174.509 196.926 174.43C196.86 174.35 196.796 174.269 196.734 174.186C196.672 174.103 196.612 174.018 196.554 173.932C196.496 173.846 196.441 173.759 196.388 173.67C196.334 173.581 196.283 173.49 196.235 173.399C196.186 173.307 196.14 173.214 196.096 173.12C196.052 173.026 196.011 172.931 195.972 172.835C195.933 172.739 195.896 172.642 195.862 172.544C195.828 172.446 195.797 172.347 195.768 172.248C195.711 172.054 195.663 171.859 195.626 171.66C195.588 171.463 195.56 171.263 195.543 171.062C195.525 170.861 195.518 170.66 195.52 170.458C195.522 170.257 195.535 170.056 195.557 169.855C195.58 169.655 195.612 169.456 195.655 169.259C195.697 169.062 195.749 168.868 195.81 168.676C195.872 168.484 195.944 168.296 196.024 168.111C196.105 167.926 196.194 167.746 196.293 167.57C197.184 165.983 198.602 165.067 200.307 164.559Z" fill="#BBB6B5"/>
<path d="M203.551 167.338C204.463 167.978 204.948 168.96 205.152 170.048C205.308 170.885 205.242 171.815 204.755 172.536C204.533 172.864 204.214 173.128 203.866 173.314C204.352 172.249 204.307 171.371 204.229 170.22L204.13 170.51C204.01 170.274 203.965 170.063 203.903 169.807C204.029 169.567 204.15 169.329 204.204 169.059C204.331 168.412 203.881 167.852 203.551 167.338Z" fill="#ED9686"/>
<path d="M204.131 170.51L204.229 170.22C204.307 171.371 204.353 172.249 203.866 173.313L203.38 173.703C203.184 173.862 202.992 174.034 202.767 174.152C202.14 174.48 201.139 174.503 200.478 174.272C199.5 173.929 198.777 173.072 198.312 172.176C199.477 172.635 199.627 173.749 201.203 173.754C201.307 173.754 201.41 173.748 201.513 173.737C201.616 173.726 201.718 173.71 201.82 173.689C201.921 173.667 202.021 173.64 202.119 173.608C202.218 173.576 202.315 173.538 202.409 173.496C202.504 173.454 202.596 173.407 202.686 173.355C202.775 173.303 202.862 173.246 202.946 173.185C203.03 173.124 203.111 173.059 203.188 172.989C203.265 172.92 203.338 172.846 203.407 172.769C203.992 172.114 204.198 171.371 204.131 170.51Z" fill="#BD8666"/>
<path d="M198.312 172.176C198.173 171.933 198.051 171.713 197.982 171.438C197.953 171.319 197.929 171.199 197.911 171.078C197.893 170.957 197.881 170.835 197.875 170.713C197.87 170.59 197.87 170.468 197.876 170.346C197.882 170.223 197.894 170.102 197.912 169.981C197.93 169.859 197.954 169.739 197.984 169.621C198.014 169.502 198.05 169.385 198.091 169.27C198.132 169.155 198.179 169.042 198.232 168.931C198.284 168.821 198.342 168.713 198.405 168.608C198.924 167.74 199.795 167.029 200.791 166.808C200.909 166.781 201.027 166.76 201.147 166.745C201.267 166.731 201.387 166.722 201.508 166.72C201.628 166.718 201.749 166.721 201.869 166.732C201.989 166.742 202.108 166.759 202.227 166.782C202.345 166.804 202.462 166.833 202.578 166.868C202.693 166.903 202.807 166.944 202.918 166.99C203.029 167.037 203.138 167.089 203.243 167.148C203.349 167.206 203.452 167.269 203.551 167.338C203.882 167.852 204.331 168.412 204.204 169.059C204.151 169.328 204.029 169.567 203.904 169.807C203.965 170.063 204.011 170.274 204.131 170.51C204.198 171.371 203.991 172.114 203.407 172.769C203.338 172.847 203.265 172.92 203.187 172.99C203.11 173.059 203.03 173.124 202.946 173.185C202.862 173.246 202.775 173.303 202.686 173.355C202.596 173.407 202.504 173.454 202.409 173.496C202.314 173.539 202.218 173.576 202.119 173.608C202.021 173.64 201.921 173.667 201.819 173.689C201.718 173.71 201.616 173.727 201.513 173.738C201.41 173.749 201.306 173.754 201.203 173.754C199.627 173.749 199.476 172.635 198.312 172.176Z" fill="#F3B785"/>
<path opacity="0.8" d="M62.4299 61.7846C64.4493 59.7119 66.3404 55.5878 67.8363 52.9793C69.4783 50.1153 71.2545 47.2662 73.2545 44.6408C77.0997 39.5934 81.2472 34.7098 85.8968 30.3864C87.5719 28.829 89.4144 27.4262 91.1956 25.9941C92.0883 25.2647 92.9929 24.5507 93.9095 23.8518C94.8262 23.1532 95.7545 22.4703 96.6942 21.8031C97.6338 21.136 98.5844 20.4849 99.546 19.85C100.508 19.2151 101.48 18.5968 102.462 17.9951C103.445 17.3932 104.437 16.8081 105.439 16.24C106.441 15.6719 107.453 15.1209 108.474 14.5871C109.494 14.0533 110.524 13.537 111.562 13.0383C112.6 12.5394 113.647 12.0583 114.701 11.595C115.755 11.1317 116.817 10.6865 117.886 10.2594C118.956 9.83212 120.032 9.42317 121.115 9.03257C122.198 8.64197 123.288 8.26982 124.383 7.91613C125.479 7.56265 126.58 7.22774 127.687 6.91139C128.794 6.59526 129.906 6.29791 131.023 6.01935C132.14 5.74101 133.262 5.48167 134.387 5.24134C135.513 5.001 136.643 4.77977 137.776 4.57766C138.909 4.37577 140.045 4.1931 141.184 4.02966C169.21 0.287852 195.122 7.35098 218.2 23.5259C219.994 24.7831 221.589 26.3398 223.33 27.6754C223.067 30.0266 223.06 38.0634 223.449 40.2726C223.557 40.8822 223.743 41.4915 224.117 41.9934C224.727 42.8133 225.692 43.0983 226.667 43.1873C229.188 43.4173 233.815 43.297 236.328 42.956C237.056 43.8823 237.761 44.8287 238.504 45.7428C249.481 62.7323 255.586 78.2087 257.513 98.5255C247.919 102.886 239.001 111.118 235.202 121.168C233.551 125.539 232.13 130.908 232.132 135.623C232.133 137.372 232.434 139.111 232.418 140.859C230.45 136.594 229.606 131.77 227.592 127.314C223.076 127.276 218.559 127.262 214.042 127.272C211.635 127.273 208.979 127.477 206.594 127.163C209.071 127 211.621 127.118 214.105 127.119C218.57 127.105 223.035 127.127 227.499 127.184C226.978 126.278 226.404 125.397 225.727 124.599C224.097 122.677 222.072 121.46 219.645 120.819C216.542 119.999 213.051 120.242 209.856 120.232L195.872 120.225C193.204 120.225 190.468 120.349 187.812 120.13L187.611 120.112C185.117 119.791 182.282 120.029 179.757 120.091C178.459 120.352 176.771 120.14 175.429 120.132L165.536 120.068L149.306 120.057C146.08 120.071 142.831 120.178 139.608 120.067L138.666 120.016C137.486 120.097 136.296 120.08 135.113 120.087C132.732 120.304 130.298 120.242 127.908 120.221C122.849 120.316 117.79 120.35 112.731 120.324C110.325 120.328 107.733 120.138 105.348 120.455C104.431 120.576 103.378 120.792 102.714 121.489C101.409 122.859 101.58 125.027 101.548 126.781C100.961 126.937 100.259 127.107 99.9362 127.69C99.6484 128.208 99.6326 129.016 99.6126 129.593C99.5548 131.253 99.6559 144.888 99.8893 145.693C100.149 145.909 100.21 145.93 100.543 145.99C100.894 150.71 100.497 155.529 100.615 160.265C99.8269 160.44 98.9595 160.453 98.1537 160.526C97.2279 162.859 97.5128 165.317 97.2988 167.779C94.1146 163.962 90.6301 160.423 87.4315 156.61C87.7459 156.535 88.036 156.481 88.2946 156.27C88.6858 155.951 89.0147 155.355 89.0544 154.848C89.0922 154.366 88.8841 153.782 88.5467 153.437C88.1972 153.079 87.6605 153.09 87.1971 153.063C79.5833 153.09 71.9696 153.076 64.3561 153.022C55.3424 152.912 46.3146 152.98 37.2996 153.003C37.3833 151.793 37.3698 150.582 37.3695 149.37L36.6022 149.195C36.5201 149.118 36.4033 149.066 36.3557 148.964C36.1955 148.62 36.3642 144.108 36.2789 143.276L36.2441 142.949L35.9701 141.778C35.5457 141.797 35.1886 141.836 34.7879 141.661C34.1499 140.671 34.5844 138.527 34.6044 137.343C37.1595 137.284 39.7283 137.24 42.283 137.319C44.6611 137.119 47.1318 137.244 49.5211 137.245L61.1775 137.198C59.3451 131.459 58.2122 125.508 56.3244 119.78C56.1228 118.223 55.6164 116.633 55.1425 115.136C57.9224 115.189 69.2942 115.49 71.0865 114.897C71.3822 114.39 71.3477 113.755 71.3684 113.181C71.5545 107.977 71.3966 102.72 71.4137 97.5105C71.3756 86.3039 71.4811 75.0988 71.7301 63.8952C71.2026 63.1584 70.6559 62.5501 70.0041 61.924C67.748 61.837 65.4897 61.9039 63.233 61.9428L62.4299 61.7846Z" fill="#89EADB"/>
<path d="M122.739 2.96559C126.572 2.73399 130.679 4.16735 133.703 6.49825C137.539 9.4561 140.237 13.798 140.854 18.6659C141.439 23.2803 140.265 28.2589 137.418 31.9564C134.181 36.1595 129.854 38.3 124.691 38.9309C120.2 39.063 115.707 37.9296 112.226 34.9292C108.534 31.7467 106.395 27.1079 106.051 22.2557C105.718 17.5451 106.999 12.6027 110.108 9.00495C113.552 5.01974 117.571 3.32645 122.739 2.96559Z" fill="#8CDD96"/>
<path d="M122.734 7.94116C122.993 8.01356 123.221 8.10714 123.468 8.21187C124.144 8.97762 123.963 9.8541 123.942 10.8162C125.281 11.092 126.623 11.3925 127.856 12.0094C128.642 12.4026 129.696 13.0301 129.969 13.9089C129.886 14.252 129.833 14.4223 129.481 14.5948C129.304 14.6815 129.022 14.7393 128.832 14.6684C128.345 14.4864 127.874 14.0311 127.453 13.7212C126.389 12.9386 125.218 12.7277 123.948 12.5056L123.9 21.2368C125.19 21.5152 126.494 21.7498 127.683 22.351C129.094 23.0647 130.303 24.1741 130.775 25.7331C131.16 27.0088 131.057 28.4936 130.415 29.668C128.973 32.3035 126.675 32.1161 124.195 32.8231C124.057 33.2819 124.124 33.8201 124.135 34.3003C123.983 34.4911 123.791 34.7349 123.571 34.85C123.54 34.8666 123.508 34.881 123.474 34.8932C123.441 34.9054 123.407 34.9153 123.373 34.923C123.338 34.9306 123.303 34.9358 123.268 34.9387C123.233 34.9415 123.198 34.9419 123.162 34.9398C123.127 34.9379 123.092 34.9335 123.058 34.9267C123.023 34.9198 122.989 34.9106 122.955 34.8992C122.922 34.8878 122.889 34.8741 122.858 34.8583C122.826 34.8423 122.795 34.8242 122.766 34.8042C122.181 34.3999 121.991 33.4819 121.923 32.828C120.541 32.426 119.207 31.9355 118.172 30.873C117.655 30.3422 116.936 29.4033 116.94 28.631L117.156 28.479C118.444 28.6307 119.45 29.8738 120.541 30.5027C120.978 30.7548 121.484 30.9202 121.956 31.0928C122.025 28.2038 121.963 25.2947 121.962 22.4037C120.531 22.0552 119.227 21.6998 118.06 20.7305C116.878 19.7485 116.109 18.3744 116.013 16.8214C116.001 16.6472 115.997 16.4729 116.002 16.2983C116.007 16.1239 116.021 15.9501 116.044 15.7769C116.066 15.6039 116.097 15.4324 116.137 15.2624C116.176 15.0925 116.224 14.9249 116.28 14.7596C116.336 14.5944 116.4 14.4326 116.473 14.274C116.545 14.1153 116.625 13.9607 116.712 13.8102C116.8 13.6597 116.895 13.5139 116.997 13.3729C117.099 13.232 117.208 13.0965 117.323 12.9666C118.549 11.5942 120.108 11.0565 121.883 10.9512C121.882 10.4608 121.872 9.96113 121.913 9.47238C121.974 8.75127 122.195 8.40073 122.734 7.94116Z" fill="#048F95"/>
<path d="M121.516 12.9412L121.795 12.9897C122.195 13.7657 121.887 19.6599 121.877 20.9412C120.847 20.7158 119.978 20.3964 119.047 19.9734C118.23 19.4815 117.624 18.9451 117.26 18.1371C116.841 17.2107 116.942 16.1905 117.464 15.3085C118.299 13.8944 119.862 13.4002 121.516 12.9412Z" fill="#8CDD96"/>
<path d="M124.021 22.9412C125.324 23.3294 126.7 23.7547 127.776 24.6319C128.415 25.1531 128.922 25.8614 128.991 26.7117C129.082 27.8259 128.453 28.7775 127.8 29.6048C126.576 30.5376 125.501 30.7813 124.014 30.9412C123.972 28.2767 124.039 25.6067 124.021 22.9412Z" fill="#8CDD96"/>
<path d="M37.3684 149.369C37.3694 148.899 37.3366 148.48 37.5519 148.047C38.8979 147.865 40.3853 147.989 41.7473 147.994L49.8243 148.028L58.918 148.043C60.5869 148.042 62.3129 147.949 63.9746 148.104C64.2651 148.492 64.2181 148.782 64.2569 149.26L64.1321 149.373C55.2304 149.344 46.2623 149.637 37.3684 149.369Z" fill="#5BC0BE"/>
<path d="M35.9688 141.777C37.2812 141.279 59.2059 141.653 62.7439 141.622L62.8985 141.621C63.062 142.213 63.1056 142.62 63.0416 143.233C60.7701 142.935 58.2394 143.122 55.9473 143.12C49.7229 143.117 42.366 143.463 36.2428 142.948L35.9688 141.777Z" fill="#5BC0BE"/>
<path d="M64.1934 149.503C65.8961 149.26 67.7192 149.35 69.4393 149.348L77.5984 149.354C80.6969 149.354 83.909 149.079 86.9901 149.247C87.3163 150.418 87.6134 151.574 87.5454 152.803C87.4299 152.905 87.3396 153.002 87.1966 153.063C79.5828 153.09 71.9691 153.076 64.3555 153.022C64.2599 151.851 64.2058 150.678 64.1934 149.503Z" fill="#B5EBE2"/>
<path d="M90.9316 71.1799C91.5211 68.9075 92.9094 66.9386 94.9189 65.7048C97.0096 64.4216 99.5571 64.1237 101.914 64.7419C103.976 65.2823 105.871 66.553 106.942 68.4293C107.494 69.3972 107.661 70.3778 107.786 71.4686L105.761 71.4343C101.458 71.169 97.1517 71.5754 92.826 71.1948C92.1735 71.2748 91.5851 71.2379 90.9316 71.1799Z" fill="#57DBC6"/>
<path d="M92.8262 71.1941C93.2066 71.0943 93.4123 71.0228 93.8072 71.0524C95.5712 70.1901 94.6907 67.3446 99.1988 67.0332C100.093 66.9715 101.047 66.931 101.906 67.2253C104.09 67.972 104.079 70.5496 105.762 71.4337C101.458 71.1684 97.1518 71.5747 92.8262 71.1941Z" fill="#89EADB"/>
<path d="M61.998 137.302C63.2275 136.962 82.9047 137.096 83.9221 137.627C84.6596 138.729 84.44 140.55 84.4499 141.84C77.3 141.714 70.0439 141.351 62.899 141.621L62.7444 141.623C62.127 140.2 62.0732 138.826 61.998 137.302Z" fill="#FEFEFE"/>
<path d="M63.0176 143.354C66.0088 142.919 69.2652 143.137 72.2863 143.128C76.8502 143.114 81.4677 142.998 86.027 143.209C86.3112 144.6 86.8291 146.322 86.5774 147.747C86.1314 148.023 85.3099 147.917 84.7927 147.921C77.8798 147.808 70.9512 147.878 64.0363 147.865C63.654 146.37 63.3349 144.864 63.0176 143.354Z" fill="#B5EBE2"/>
<path d="M82.1741 85.4623L82.457 85.4392C84.2831 87.5887 85.2822 87.592 87.935 88.4013L88.2415 88.3407C88.4349 87.9865 88.4496 87.9324 88.8632 87.825C90.2403 87.4671 110.376 87.7087 110.76 87.9212C110.822 87.9558 110.872 88.0086 110.931 88.0488C111.006 88.1005 111.084 88.1473 111.161 88.1974C111.221 88.2369 111.28 88.2778 111.34 88.318L111.794 88.348C112.064 88.0817 112.288 87.8903 112.397 87.5162C112.421 87.4335 112.441 87.3498 112.463 87.2668L112.723 87.1267C114.499 87.4764 114.215 86.2729 115.44 86.4021C115.045 87.7584 114.921 89.2512 114.636 90.6444C114.488 90.828 114.344 91.0076 114.178 91.1743C113.013 92.3409 111.78 92.589 110.191 92.6173C105.476 92.7014 100.731 92.5425 96.0104 92.562C93.0319 92.5742 88.3656 92.908 85.6199 92.4605C84.7767 92.3231 83.9559 91.9197 83.356 91.3075C81.9007 89.8216 82.1981 87.3821 82.1741 85.4623Z" fill="#E19244"/>
<path d="M82.1747 85.4619C81.8448 84.1556 81.6656 71.9472 82.0463 71.1675C82.5659 70.9501 83.0352 71.0357 83.5787 71.0881C86.1734 73.4525 92.0446 80.6283 94.9062 81.8486C95.4142 80.6507 95.0929 79.8678 96.0815 78.7355C96.7868 77.9278 97.796 77.5014 98.8538 77.4395C100.392 77.3495 101.186 77.7677 102.302 78.7526C103.561 79.3293 110.194 86.3081 111.098 87.756C111.276 88.0417 111.514 88.1742 111.794 88.3476L111.34 88.3176C111.281 88.2774 111.221 88.2365 111.161 88.197C111.085 88.1469 111.006 88.1001 110.931 88.0483C110.873 88.0081 110.823 87.9554 110.761 87.9208C110.377 87.7083 90.2408 87.4667 88.8637 87.8246C88.4502 87.932 88.4354 87.9861 88.2421 88.3403L87.9355 88.4009C85.2827 87.5916 84.2837 87.5883 82.4576 85.4388L82.1747 85.4619Z" fill="#F3B785"/>
<path d="M94.9062 81.849C95.4143 80.6511 95.093 79.8682 96.0815 78.7359C96.7868 77.9282 97.7961 77.5018 98.8538 77.4399C100.392 77.3499 101.186 77.7681 102.302 78.7531C103.128 79.9733 103.753 81.2881 103.483 82.8099C103.281 83.9484 102.584 84.9133 101.626 85.5387C101.495 85.6253 101.359 85.7048 101.22 85.7773C101.08 85.85 100.937 85.9154 100.791 85.9734C100.644 86.0314 100.496 86.0818 100.345 86.1246C100.193 86.1675 100.04 86.2025 99.885 86.2297C99.7301 86.257 99.5742 86.2763 99.4174 86.2877C99.2607 86.2989 99.1037 86.3022 98.9464 86.2976C98.7893 86.293 98.6329 86.2804 98.4771 86.2597C98.3211 86.2391 98.1666 86.2105 98.0137 86.1741C97.8791 86.1418 97.7465 86.1024 97.6159 86.0561C97.4855 86.0095 97.3579 85.9561 97.2332 85.8959C97.1083 85.836 96.9869 85.7694 96.8692 85.6962C96.7515 85.6231 96.6381 85.5439 96.5289 85.4586C96.4195 85.3734 96.3149 85.2826 96.2151 85.1861C96.1156 85.0897 96.0213 84.9882 95.9322 84.8816C95.8434 84.7751 95.7603 84.6642 95.6831 84.5488C95.6061 84.4335 95.5353 84.3143 95.4708 84.1913C95.0713 83.4383 94.9394 82.6906 94.9062 81.849Z" fill="#FEFEFE"/>
<path d="M83.5781 71.0883C85.9727 71.0214 88.5579 70.8612 90.9318 71.1792C91.5852 71.2372 92.1737 71.2741 92.8261 71.194C97.1518 71.5746 101.458 71.1683 105.761 71.4336L107.786 71.4679C109.326 71.4873 114.103 71.1677 115.109 72.036C116.214 72.99 116.057 83.3082 115.807 85.1849C115.749 85.6169 115.656 86.0209 115.44 86.4018C114.215 86.2726 114.498 87.4761 112.723 87.1265L112.463 87.2665C112.441 87.3495 112.421 87.4332 112.397 87.516C112.288 87.89 112.064 88.0814 111.794 88.3477C111.513 88.1744 111.276 88.0419 111.097 87.7562C110.194 86.3082 103.56 79.3295 102.301 78.7528C101.185 77.7678 100.392 77.3497 98.8532 77.4396C97.7954 77.5016 96.7862 77.928 96.0809 78.7356C95.0923 79.8679 95.4137 80.6509 94.9056 81.8487C92.044 80.6285 86.1729 73.4526 83.5781 71.0883Z" fill="#F4C989"/>
<path d="M127.907 120.221C125.238 116.695 123.025 112.832 121.895 108.512C121.816 108.221 121.741 107.928 121.669 107.634C121.597 107.341 121.529 107.046 121.465 106.751C121.401 106.456 121.34 106.159 121.283 105.863C121.226 105.566 121.172 105.268 121.123 104.97C121.073 104.672 121.027 104.373 120.985 104.074C120.942 103.775 120.904 103.475 120.869 103.175C120.834 102.874 120.803 102.574 120.775 102.272C120.748 101.972 120.724 101.67 120.704 101.369C120.684 101.067 120.668 100.765 120.655 100.463C120.642 100.161 120.633 99.8588 120.628 99.5565C120.623 99.2542 120.622 98.9519 120.624 98.6496C120.627 98.3473 120.633 98.0452 120.642 97.7431C120.652 97.4408 120.666 97.1388 120.683 96.8372C120.7 96.5354 120.721 96.2337 120.746 95.9323C120.77 95.6311 120.799 95.3303 120.831 95.0298C120.863 94.729 120.899 94.4288 120.939 94.1291C120.978 93.8295 121.021 93.5304 121.068 93.2318C121.115 92.9331 121.166 92.6351 121.22 92.3378C121.274 92.0404 121.332 91.7437 121.394 91.4478C121.456 91.1519 121.521 90.8568 121.589 90.5627C121.658 90.2683 121.731 89.9749 121.807 89.6825C121.883 89.3899 121.963 89.0983 122.046 88.8079C122.13 88.5175 122.217 88.228 122.307 87.9396C122.398 87.6514 122.492 87.3642 122.589 87.0782C122.687 86.7922 122.788 86.5075 122.892 86.2241C122.997 85.9405 123.105 85.6583 123.217 85.3775C123.328 85.0967 123.443 84.8174 123.562 84.5395C123.68 84.2616 123.802 83.9852 123.928 83.7104C124.053 83.4354 124.181 83.162 124.313 82.8902C124.445 82.6187 124.581 82.3487 124.719 82.0802C124.858 81.812 125 81.5455 125.145 81.2808C125.291 81.0159 125.439 80.7529 125.591 80.4919C130.478 72.14 139.17 66.1478 148.435 63.8055C148.725 63.7326 149.016 63.6633 149.309 63.5976C149.601 63.5317 149.894 63.4696 150.187 63.4114C150.481 63.353 150.775 63.2982 151.071 63.247C151.366 63.1958 151.661 63.1485 151.958 63.105C152.254 63.061 152.55 63.0209 152.848 62.9847C153.145 62.9484 153.443 62.9158 153.741 62.8868C154.039 62.858 154.337 62.8329 154.636 62.8113C154.935 62.7898 155.233 62.772 155.532 62.758C155.832 62.7439 156.131 62.7336 156.43 62.727C156.729 62.7204 157.029 62.7175 157.328 62.7184C157.628 62.7193 157.927 62.7239 158.226 62.7323C158.526 62.7406 158.825 62.7527 159.124 62.7685C159.423 62.7843 159.722 62.8039 160.02 62.8272C160.319 62.8504 160.617 62.8774 160.915 62.9079C161.213 62.9387 161.51 62.973 161.807 63.011C162.104 63.049 162.401 63.0908 162.697 63.1363C162.993 63.1817 163.288 63.2309 163.583 63.2839C163.878 63.3366 164.172 63.3931 164.465 63.4533C164.759 63.5135 165.051 63.5773 165.343 63.6447C165.635 63.7122 165.926 63.7831 166.216 63.8576C166.506 63.9323 166.795 64.0106 167.083 64.0926C167.371 64.1745 167.658 64.26 167.944 64.3489C168.23 64.4379 168.515 64.5305 168.799 64.6267C169.082 64.7229 169.365 64.8226 169.646 64.9256C169.927 65.0289 170.207 65.1355 170.486 65.2456C170.765 65.3559 171.042 65.4694 171.318 65.5863C171.593 65.7034 171.868 65.8239 172.141 65.9478C172.413 66.0717 172.685 66.199 172.954 66.3297C173.224 66.4602 173.492 66.5941 173.758 66.7314C174.025 66.869 174.289 67.0097 174.552 67.1536C174.815 67.2975 175.076 67.4445 175.335 67.5948C175.595 67.7453 175.852 67.8989 176.108 68.0558C184.553 73.1945 190.255 81.1602 192.556 90.8253C195.032 101.224 193.119 111.061 187.61 120.112C185.117 119.791 182.281 120.028 179.757 120.091C178.459 120.352 176.77 120.14 175.428 120.132L165.536 120.068L149.306 120.057C146.08 120.071 142.83 120.177 139.608 120.067L138.666 120.016C137.485 120.097 136.295 120.08 135.113 120.086C132.731 120.304 130.298 120.242 127.907 120.221Z" fill="#FEFEFE"/>
<path d="M136.859 76.8423L137.441 76.3796C138.749 78.1469 140.42 80.0394 141.156 82.1293L141.083 82.2858C139.388 81.0675 137.921 78.6415 136.859 76.8423Z" fill="url(#paint0_linear_9217_60133)"/>
<path d="M156.09 96.0505C156.024 93.7933 155.821 78.5542 156.417 77.7501C156.644 77.734 156.648 77.6918 156.839 77.8605C157.075 78.0688 157.255 78.42 157.288 78.7354C157.377 79.5596 157.267 80.4757 157.267 81.3117L157.26 87.87C157.371 90.6143 157.312 93.3649 157.338 96.1108C158.694 96.3194 159.737 96.6658 160.615 97.8056C161.32 98.7197 161.57 99.9255 161.42 101.06C161.395 101.237 161.362 101.412 161.32 101.586C161.277 101.759 161.227 101.93 161.167 102.098C161.108 102.267 161.04 102.432 160.964 102.593C160.887 102.755 160.803 102.912 160.711 103.065C160.619 103.217 160.52 103.365 160.413 103.508C160.306 103.651 160.192 103.788 160.071 103.919C159.951 104.05 159.824 104.175 159.69 104.293C159.557 104.412 159.418 104.523 159.273 104.627C158.343 105.294 157.104 105.67 155.965 105.46C155.034 105.288 154.223 104.865 153.624 104.129C152.986 104.891 152.233 106.011 151.424 106.582C149.829 108.424 148.258 110.297 146.602 112.083C144.482 114.889 141.847 117.338 139.608 120.067L138.666 120.016C140.633 117.15 143.861 113.833 146.28 111.285C147.599 109.714 148.948 108.17 150.329 106.653L152.977 103.569C152.563 103.059 152.301 102.424 152.155 101.784C151.881 100.585 152.177 99.334 152.831 98.3095C153.612 97.0866 154.699 96.3787 156.09 96.0505Z" fill="#5BC0BE"/>
<path d="M157.137 97.1897C157.241 97.2134 157.345 97.2355 157.449 97.2612C158.524 97.5275 159.512 98.1915 160.036 99.187C160.416 99.9116 160.402 100.705 160.162 101.472C159.866 102.421 159.326 103.329 158.416 103.79C157.634 104.186 156.705 104.189 155.892 103.883C155.776 103.839 155.663 103.79 155.552 103.735C155.441 103.68 155.333 103.62 155.228 103.554C155.123 103.489 155.022 103.418 154.924 103.343C154.826 103.267 154.731 103.187 154.641 103.102C154.551 103.017 154.465 102.928 154.383 102.835C154.301 102.742 154.225 102.645 154.152 102.544C154.08 102.443 154.013 102.339 153.951 102.232C153.889 102.124 153.832 102.014 153.781 101.901C153.435 101.121 153.356 100.253 153.701 99.4578C154.243 98.2083 155.474 97.6346 156.669 97.1973L157.137 97.1897Z" fill="#F4C989"/>
<path d="M127.907 120.221C125.238 116.695 123.025 112.832 121.895 108.512C121.816 108.221 121.741 107.928 121.669 107.634C121.597 107.341 121.529 107.046 121.465 106.751C121.401 106.456 121.34 106.159 121.283 105.863C121.226 105.566 121.172 105.268 121.123 104.97C121.073 104.672 121.027 104.373 120.985 104.074C120.942 103.775 120.904 103.475 120.869 103.175C120.834 102.874 120.803 102.574 120.775 102.272C120.748 101.972 120.724 101.67 120.704 101.369C120.684 101.067 120.668 100.765 120.655 100.463C120.642 100.161 120.633 99.8588 120.628 99.5565C120.623 99.2542 120.622 98.9519 120.624 98.6496C120.627 98.3473 120.633 98.0452 120.642 97.7431C120.652 97.4408 120.666 97.1388 120.683 96.8372C120.7 96.5354 120.721 96.2337 120.746 95.9323C120.77 95.6311 120.799 95.3303 120.831 95.0298C120.863 94.729 120.899 94.4288 120.939 94.1291C120.978 93.8295 121.021 93.5304 121.068 93.2318C121.115 92.9331 121.166 92.6351 121.22 92.3378C121.274 92.0404 121.332 91.7437 121.394 91.4478C121.456 91.1519 121.521 90.8568 121.589 90.5627C121.658 90.2683 121.731 89.9749 121.807 89.6825C121.883 89.3899 121.963 89.0983 122.046 88.8079C122.13 88.5175 122.217 88.228 122.307 87.9396C122.398 87.6514 122.492 87.3642 122.589 87.0782C122.687 86.7922 122.788 86.5075 122.892 86.2241C122.997 85.9405 123.105 85.6583 123.217 85.3775C123.328 85.0967 123.443 84.8174 123.562 84.5395C123.68 84.2616 123.802 83.9852 123.928 83.7104C124.053 83.4354 124.181 83.162 124.313 82.8902C124.445 82.6187 124.581 82.3487 124.719 82.0802C124.858 81.812 125 81.5455 125.145 81.2808C125.291 81.0159 125.439 80.7529 125.591 80.4919C130.478 72.14 139.17 66.1478 148.435 63.8055C148.725 63.7326 149.016 63.6633 149.309 63.5976C149.601 63.5317 149.894 63.4696 150.187 63.4114C150.481 63.353 150.775 63.2982 151.071 63.247C151.366 63.1958 151.661 63.1485 151.958 63.105C152.254 63.061 152.55 63.0209 152.848 62.9847C153.145 62.9484 153.443 62.9158 153.741 62.8868C154.039 62.858 154.337 62.8329 154.636 62.8113C154.935 62.7898 155.233 62.772 155.532 62.758C155.832 62.7439 156.131 62.7336 156.43 62.727C156.729 62.7204 157.029 62.7175 157.328 62.7184C157.628 62.7193 157.927 62.7239 158.226 62.7323C158.526 62.7406 158.825 62.7527 159.124 62.7685C159.423 62.7843 159.722 62.8039 160.02 62.8272C160.319 62.8504 160.617 62.8774 160.915 62.9079C161.213 62.9387 161.51 62.973 161.807 63.011C162.104 63.049 162.401 63.0908 162.697 63.1363C162.993 63.1817 163.288 63.2309 163.583 63.2839C163.878 63.3366 164.172 63.3931 164.465 63.4533C164.759 63.5135 165.051 63.5773 165.343 63.6447C165.635 63.7122 165.926 63.7831 166.216 63.8576C166.506 63.9323 166.795 64.0106 167.083 64.0926C167.371 64.1745 167.658 64.26 167.944 64.3489C168.23 64.4379 168.515 64.5305 168.799 64.6267C169.082 64.7229 169.365 64.8226 169.646 64.9256C169.927 65.0289 170.207 65.1355 170.486 65.2456C170.765 65.3559 171.042 65.4694 171.318 65.5863C171.593 65.7034 171.868 65.8239 172.141 65.9478C172.413 66.0717 172.685 66.199 172.954 66.3297C173.224 66.4602 173.492 66.5941 173.758 66.7314C174.025 66.869 174.289 67.0097 174.552 67.1536C174.815 67.2975 175.076 67.4445 175.335 67.5948C175.595 67.7453 175.852 67.8989 176.108 68.0558C184.553 73.1945 190.255 81.1602 192.556 90.8253C195.032 101.224 193.119 111.061 187.61 120.112C185.117 119.791 182.281 120.028 179.757 120.091C184.539 115.029 186.851 107.411 187.173 100.569C185.7 100.458 180.344 100.749 179.427 100.246C179.272 99.8613 179.258 99.8514 179.369 99.4547C180.016 99.0714 185.915 99.3126 187.118 99.3179C187.125 98.9179 187.122 98.5178 187.109 98.1178C186.816 89.721 182.728 82.2845 176.693 76.6568C175.594 77.9783 173.269 82.1709 171.894 82.5936L171.671 82.3943C171.823 80.8936 175.016 77.3828 176.003 76.0304C174.746 75.3437 173.58 74.3073 172.321 73.5636C167.246 70.5652 162.815 69.6593 157.047 69.2938C157.066 70.5207 157.348 73.1915 156.557 74.1748C155.863 72.802 156.093 70.7813 156.124 69.2678C149.34 69.6277 142.581 71.7027 137.44 76.38L136.859 76.8427C130.308 82.7877 126.935 89.9309 126.48 98.8144C126.464 99.1231 126.45 99.4317 126.44 99.7404C128.012 99.747 134.793 99.4945 135.748 99.8531L135.863 100.085C134.89 100.94 128.255 100.602 126.556 100.605C127.447 108.637 129.733 113.993 135.113 120.086C132.731 120.304 130.298 120.242 127.907 120.221Z" fill="#9492EE"/>
<defs>
<linearGradient id="paint0_linear_9217_60133" x1="138.777" y1="80.7353" x2="138.571" y2="76.8188" gradientUnits="userSpaceOnUse">
<stop stop-color="#6381B4"/>
<stop offset="1" stop-color="#799BCF"/>
</linearGradient>
</defs>
</svg>
